<?xml version="1.0" encoding="UTF-8"?>
<svg id="Layer_1" xmlns="http://www.w3.org/2000/svg" version="1.1" viewBox="0 0 423.67 523.82">
  <!-- Generator: Adobe Illustrator 30.2.1, SVG Export Plug-In . SVG Version: 2.1.1 Build 1)  -->
  <defs>
    <style>
      .st0 {
        stroke: #fff;
      }

      .st0, .st1, .st2, .st3, .st4 {
        stroke-miterlimit: 10;
      }

      .st0, .st3 {
        fill: none;
      }

      .st1 {
        fill: #a8ffff;
      }

      .st1, .st2 {
        stroke-dasharray: 3.38;
        stroke-width: 1.69px;
      }

      .st1, .st2, .st3 {
        stroke: #231f20;
      }

      .st1, .st2, .st5 {
        opacity: .5;
      }

      .st2 {
        fill: #a8c4ff;
      }

      .st3 {
        stroke-width: .45px;
      }

      .st4 {
        fill: #e8e7e7;
        stroke: #7b7b7a;
      }
    </style>
  </defs>
  <path class="st4" d="M395.72,521.41l-310.39-125.34c-14.51-5.86-26.22-23.47-26.16-39.35l1.05-336.2c.06-15.87,11.88-23.99,26.39-18.13l310.39,125.34c14.51,5.86,26.22,23.47,26.16,39.35l-1.04,336.2c-.09,15.87-11.89,23.99-26.4,18.13Z"/>
  <path class="st0" d="M356.38,117.9l37.52,15.15c12.73,5.15,23.01,20.6,22.95,34.53l-.15,47.36"/>
  <polygon class="st3" points="367.94 184.98 112.12 83.74 112 374.3 367.26 475.78 367.94 184.98"/>
  <g class="st5">
    <line class="st1" x1="1.97" y1="417.71" x2="112.18" y2="374.56"/>
    <polygon class="st2" points="368.12 185.24 258.48 225.87 2.35 126.22 112.32 84 368.12 185.24"/>
    <polygon class="st2" points="368.14 185.22 258.48 225.87 258.01 516.31 367.31 475.95 368.14 185.22"/>
    <polygon class="st2" points="2.32 125.94 258.48 225.87 258.01 516.31 1.97 417.71 2.32 125.94"/>
  </g>
</svg>