<?xml version="1.0" encoding="UTF-8"?>
<svg id="Layer_1" xmlns="http://www.w3.org/2000/svg" xmlns:xlink="http://www.w3.org/1999/xlink" version="1.1" viewBox="0 0 364.99 523.82">
  <!-- Generator: Adobe Illustrator 30.2.1, SVG Export Plug-In . SVG Version: 2.1.1 Build 1)  -->
  <defs>
    <style>
      .st0 {
        mask: url(#mask);
      }

      .st1 {
        fill: #a8ffc1;
      }

      .st1, .st2, .st3, .st4 {
        stroke-miterlimit: 10;
      }

      .st1, .st3 {
        stroke: #231f20;
        stroke-dasharray: 3.38;
        stroke-width: 1.69px;
      }

      .st1, .st3, .st5 {
        opacity: .5;
      }

      .st2 {
        fill: none;
        stroke: #fff;
      }

      .st6 {
        fill: url(#linear-gradient);
      }

      .st3 {
        fill: #a8ffff;
      }

      .st4 {
        fill: #e8e7e7;
        stroke: #7b7b7a;
      }
    </style>
    <linearGradient id="linear-gradient" x1="328.61" y1="-265.01" x2="418.81" y2="-265.01" gradientTransform="translate(-547.52 606.7) scale(1.8 1)" gradientUnits="userSpaceOnUse">
      <stop offset="0" stop-color="#fff"/>
      <stop offset="1" stop-color="#000"/>
    </linearGradient>
    <mask id="mask" x="46.01" y="301.84" width="156.67" height="79.7" maskUnits="userSpaceOnUse">
      <rect class="st6" x="43.26" y="332.49" width="162.17" height="18.4" transform="translate(-122.5 74.71) rotate(-22.76)"/>
    </mask>
  </defs>
  <g class="st5">
    <line class="st3" x1="54.33" y1="377.18" x2="164.54" y2="334.04"/>
    <polygon class="st1" points="452.28 128.12 310.84 185.35 54.71 85.7 196.47 26.88 452.28 128.12"/>
    <polygon class="st1" points="452.29 128.11 310.84 185.35 310.37 475.78 451.46 418.83 452.29 128.11"/>
    <polygon class="st3" points="54.68 85.41 310.84 185.35 310.37 475.78 54.33 377.18 54.68 85.41"/>
  </g>
  <path class="st4" d="M337.05,521.41L26.66,396.07c-14.51-5.86-26.22-23.47-26.16-39.35L1.56,20.53C1.62,4.66,13.43-3.46,27.94,2.4l310.39,125.34c14.51,5.86,26.22,23.47,26.16,39.35l-1.04,336.2c-.09,15.87-11.89,23.99-26.4,18.13Z"/>
  <path class="st2" d="M297.7,117.9l37.52,15.15c12.73,5.15,23.01,20.6,22.95,34.53l-.15,47.36"/>
  <polygon class="st1" points="310.27 184.98 54.45 83.74 54.33 374.3 309.58 475.78 310.27 184.98"/>
  <g class="st0">
    <line class="st1" x1="196.47" y1="314.52" x2="54.33" y2="372.22"/>
  </g>
</svg>