<?xml version="1.0" encoding="UTF-8"?>
<svg xmlns="http://www.w3.org/2000/svg" xmlns:xlink="http://www.w3.org/1999/xlink" version="1.1" viewBox="0 0 453.55 523.82">
  <!-- Generator: Adobe Illustrator 30.2.1, SVG Export Plug-In . SVG Version: 2.1.1 Build 1)  -->
  <defs>
    <style>
      .st0, .st1, .st2, .st3, .st4, .st5, .st6, .st7, .st8, .st9, .st10 {
        fill: none;
      }

      .st11 {
        mask: url(#mask);
      }

      .st12 {
        fill: #a8ffc1;
      }

      .st12, .st13, .st1, .st14, .st2, .st3, .st15, .st4, .st5, .st6, .st7, .st8, .st16, .st9, .st10 {
        stroke-miterlimit: 10;
      }

      .st12, .st13, .st1, .st14, .st3, .st15, .st6 {
        stroke: #231f20;
      }

      .st12, .st1, .st14, .st15, .st4, .st5, .st8, .st17 {
        opacity: .5;
      }

      .st12, .st14, .st15 {
        stroke-dasharray: 3.38;
        stroke-width: 1.69px;
      }

      .st13 {
        fill: #757575;
      }

      .st18 {
        fill: url(#linear-gradient2);
      }

      .st19 {
        fill: url(#linear-gradient1);
      }

      .st1, .st4, .st5, .st20, .st8, .st9 {
        isolation: isolate;
      }

      .st14 {
        fill: #2a4030;
      }

      .st2, .st8 {
        stroke: #fff;
      }

      .st21, .st22 {
        fill: #878fc4;
      }

      .st23 {
        fill: url(#linear-gradient);
      }

      .st24 {
        fill: #329900;
      }

      .st15 {
        fill: #a8ffff;
      }

      .st4, .st9 {
        stroke: #ffe8cc;
      }

      .st5 {
        stroke: #c7f6ff;
      }

      .st25 {
        fill: #c4a887;
      }

      .st26 {
        mask: url(#mask-2);
      }

      .st27 {
        mask: url(#mask-1);
      }

      .st6 {
        stroke-width: .69px;
      }

      .st28 {
        fill: #fff;
      }

      .st7 {
        stroke-dasharray: 3.32 3.32;
      }

      .st7, .st10 {
        stroke: #4359a7;
      }

      .st16 {
        fill: #e8e7e7;
        stroke: #7b7b7a;
      }

      .st22 {
        mix-blend-mode: lighten;
      }
    </style>
    <linearGradient id="linear-gradient" x1="350.61" y1="-359.33" x2="415.93" y2="-359.33" gradientTransform="translate(-585.02 607.05) scale(1.8 1)" gradientUnits="userSpaceOnUse">
      <stop offset="0" stop-color="#fff"/>
      <stop offset="1" stop-color="#000"/>
    </linearGradient>
    <mask id="mask" x="47.31" y="218.85" width="113.45" height="57.71" maskUnits="userSpaceOnUse">
      <rect class="st23" x="45.31" y="241.05" width="117.43" height="13.32" transform="translate(-87.73 59.53) rotate(-22.76)"/>
    </mask>
    <linearGradient id="linear-gradient1" x1="419.98" y1="-234.45" x2="451.13" y2="-234.45" gradientTransform="translate(-544.03 560.96) scale(1.8 1)" xlink:href="#linear-gradient"/>
    <mask id="mask-1" x="211.97" y="312.74" width="54.1" height="27.52" maskUnits="userSpaceOnUse">
      <rect class="st19" x="211.02" y="323.33" width="56.01" height="6.35" transform="translate(-107.7 117.88) rotate(-22.76)"/>
    </mask>
    <linearGradient id="linear-gradient2" x1="379.37" y1="-305.23" x2="410.52" y2="-305.23" gradientTransform="translate(-565.73 594.71) scale(1.8 1)" xlink:href="#linear-gradient"/>
    <mask id="mask-2" x="117.27" y="275.72" width="54.1" height="27.52" maskUnits="userSpaceOnUse">
      <rect class="st18" x="116.32" y="286.3" width="56.01" height="6.35" transform="translate(-100.75 78.37) rotate(-22.76)"/>
    </mask>
  </defs>
  <g class="st20">
    <g id="Layer_1">
      <g>
        <path class="st6" d="M174.27,163.05"/>
        <g class="st17">
          <line class="st15" x1="53.33" y1="274.78" x2="163.54" y2="231.64"/>
          <polygon class="st14" points="451.28 163.47 309.84 220.7 53.71 121.05 195.47 62.24 451.28 163.47"/>
          <polygon class="st14" points="451.29 163.46 309.84 220.7 309.37 373.38 450.46 316.43 451.29 163.46"/>
          <polygon class="st15" points="53.68 120.77 309.84 220.7 309.37 373.38 53.33 274.78 53.68 120.77"/>
        </g>
        <path class="st16" d="M337.05,521.77L26.66,396.43c-14.51-5.86-26.22-23.47-26.16-39.35L1.56,20.88C1.62,5.02,13.43-3.1,27.94,2.75l310.39,125.34c14.51,5.86,26.22,23.47,26.16,39.35l-1.04,336.2c-.09,15.87-11.89,23.99-26.4,18.13Z"/>
        <path class="st2" d="M297.7,118.25l37.52,15.15c12.73,5.15,23.01,20.6,22.95,34.53l-.15,47.36"/>
        <polygon class="st14" points="309.27 220.33 53.45 119.09 53.33 271.9 308.58 373.38 309.27 220.33"/>
        <g class="st11">
          <line class="st12" x1="156.26" y1="228.04" x2="53.33" y2="269.82"/>
        </g>
        <g class="st27">
          <line class="st12" x1="263.93" y1="317.12" x2="214.84" y2="337.05"/>
        </g>
        <g class="st26">
          <line class="st12" x1="169.23" y1="280.1" x2="120.14" y2="300.02"/>
        </g>
        <g>
          <line class="st0" x1="196.55" y1="311.39" x2="206.58" y2="303.87"/>
          <line class="st1" x1="138.76" y1="270.29" x2="236.27" y2="309.42"/>
          <g>
            <line class="st10" x1="203.77" y1="244.2" x2="204.86" y2="244.64"/>
            <path class="st7" d="M215.37,225.27"/>
          </g>
          <path class="st13" d="M134.62,212.02c4.77-2.57,15.98,2.73,21.53,4.8l8.98-8.24c-7.23-2.57-20.19-7.46-27.58-5.42s-10.55,5.39-10.15,11.65c.39,6.27,4.76,19.88,8.86,26s5.72,7.42,5.72,7.42l6.9-15.11s-.45,1.09-2.97-2.94c-2.52-4.03-6.56-16.11-4.3-18.41,0,0-1.9-.6-4.63-.4"/>
          <path class="st13" d="M138.77,249.32s10.2-25.63,14.78-30.91c4.59-5.3,14.62-19.34,53.71-19.34s49.12,14.06,53.71,19.34c4.59,5.3,14.78,30.91,14.78,30.91,6.46,39.35-18.52,52.09-18.52,52.09,0,0-1.02,2.65-1.02,2.97-12.41,9.59-34.17,12.24-48.96,12.24-14.78,0-36.55-2.65-48.96-12.24,0-.33-1.02-2.97-1.02-2.97,0,0-32.3-13.07-18.52-52.09Z"/>
          <path class="st25" d="M156.15,216.82c-3.06,3.16-10.72,19.82-12.8,25.35s-5.94,13.2-6.4,20.23-1.05,9.7,2.1,18.6c3.15,8.9,8.56,13.11,12.54,15.7s5.19,3.57,7.9,4.27c0,.86.09,2.91.09,2.91,0,0,9.02,5.4,11.15,6.26s-.92-4.03-.92-4.03c0,0,15.89-1.28,9.43-6.26s-18.9-11.17-16.75-23.73,2.73-19.3,6.53-27.86,5.65-10.87,1.67-13.23c-3.98-2.36-6.88-3.05-10.13-7.29s-4.72-8.04-4.41-10.89Z"/>
          <path class="st21" d="M158.92,216.82c-2.28-.7-.12-3.03,1.52-4.46s10.66-6.69,17.24-8.98,13.32-2.73,13.85-1.91.82,1.59-2.75,2.39-14.47,4.13-17.69,5.83-6.25,3.21-7.84,4.79-2.11,3.04-4.33,2.34Z"/>
          <path class="st25" d="M254.52,215.55c2.25-.79,0-3.03-1.7-4.4s-10.93-6.24-17.6-8.26c-6.67-2.02-13.42-2.18-13.92-1.34s-.75,1.63,2.84,2.28c3.6.65,14.62,3.53,17.92,5.09s6.38,2.95,8.03,4.46,2.24,2.95,4.43,2.16Z"/>
          <path class="st5" d="M185.45,203.3c-12.34,2.39-19.28,6.81-25.27,11.52"/>
          <path class="st4" d="M252.38,213.06c-4.64-3.65-12.66-7.88-25.55-10.08"/>
          <path class="st13" d="M250.22,296.52c15.03-.51,24.3-2.59,29.19-13.87,4.89-11.28,3.35-21.72,8.94-25.14,5.59-3.43,11.08-5.52,5.84-7.77-5.24-2.25-13.82-3.84-17.35-.41s-9.79,13.28-11.59,17.13c-1.81,3.84-3.95,7.1-12.28,4.84"/>
          <path class="st8" d="M204.57,215.2c-1.06-.23-2.08-.59-3.01-1.09"/>
          <path class="st3" d="M294.13,252.57c-1.71.52-4.81.89-8.13.1s-5.97-2.09-5.66-3.16"/>
          <path class="st3" d="M253.4,225.99c1.13-3.09,1.41-9.09-5.46-13.09-6.88-4-20.42-9.93-40.56-9.93"/>
          <path class="st3" d="M161.37,225.88c-1.09-2.97-1.44-8.86,5.43-12.88,6.88-4.01,20.42-9.93,40.56-9.93"/>
          <path class="st3" d="M256.76,220.53c-2.5,6.97-15.7,18.92-50.66,18.92-34.96,0-44.52-10.4-47.93-19.58"/>
          <path class="st8" d="M171.09,237.83c-9.69-4.23-15.18-10.93-15.68-16.6"/>
          <path class="st13" d="M200.37,212.9c.48-1.5,1.23-3.43-.37-4.55s-5.19-4.72-5.33-6.22-.72-7.07,12.95-7.07c13.66,0,13.08,5.58,12.95,7.07-.14,1.5-3.72,5.08-5.33,6.22-1.61,1.13-.85,3.05-.37,4.55"/>
          <path class="st25" d="M196.9,197.88c-1.21.67-1.91,3.18-1.66,3.98s1.8,2.93,2.79,3.76,3.29,2.32,3.46,3.48.43,2.38-.33,3.32-1.44,1.33-.45,2.13,4.84,2.41,3.84-.33.72-3.26,1.45-4.17-.32-3.33-2.39-4.18-4.95-2.17-5.94-3.84c-1.38-2.32-.28-4.42-.77-4.15Z"/>
          <path class="st21" d="M201.15,288.2c6.7-11.83,9.6-30.19,9.13-36.39-.46-6.2-.58-9.63,5.71-11.08,6.28-1.46,15.08-1.13,26.02-5.86,7.39-3.2,10.95-5.53,13.14-8.87s5.32-5.74,3.04-10.8c.15.17,5.09,8.3,7.45,15.08,2.36,6.78,9.4,19.6,9.4,19.6,0,0-2.36,3.21-5.3,6.9-2.94,3.69-5.71,11.93-8.07,13.2s-7.09.71-8.3.59-.98.67-1.84,2.35-1.65,3.52-3.32,8.57,2.74,11.95,1.22,13.78c-2.59,3.11,1.79,5.2,3.65,5.26s2.89.86,2.89.86l-.63,2.82c-16.62,8.39-31.66,12.1-48.74,11.64s-18.47-1.33-18.47-1.33v-2.33s7.38.78,7.32-1.13-15.51-1.73-10.32-6.17,10.71-7.32,16.04-16.71Z"/>
          <path class="st21" d="M256.7,292.52c4.22-3.7,8.57-9.53,10.73-14.97s7-15.04,9.4-16.94,4.03-4.2,7-4.57,8.2-1.5,6.3-.4-4.93,2.53-5.93,5.77-2.87,11.6-3.87,14.9-3.13,9.4-5.3,11.47-4.93,4.27-9.23,5.63-6.9,1.27-8.4,1.43-2.87-.43-.7-2.33Z"/>
          <path class="st22" d="M207.57,205.09c3.97-.53,5.83-1.02,8.26-2.41s3.12-3.32,3.46-3.01,1.05,2.04.19,3.31-2.93,3.46-4.56,4.73-1.71,2.16-1.63,3.18.86,2.44,2.24,3.07-1.91,2.1-3.59,2.04-4.23-1.02-4.98-2.68-3.42-5.39-2.8-6.53,1.15-1.41,3.41-1.71Z"/>
          <path class="st5" d="M213.13,206.3c2.62-.98,4.3-2.37,5.53-3.69"/>
          <path class="st9" d="M196.13,202.16c1.08,1.25,2.54,2.58,4.77,3.64"/>
          <path class="st1" d="M160.99,302.57c14.03,6.64,25.81,9.63,46.59,9.63,20.78,0,32.56-2.99,46.59-9.63"/>
          <path class="st2" d="M147.4,196.62"/>
          <path class="st2" d="M253.74,196.62"/>
          <path class="st21" d="M139.51,212.58c-2.89.1-7.43.78-8.17,3.62s.82,8.23,1.95,10.63,5.63,12.39,7.79,14.5c0,.1,4.51-9.87,4.51-9.87,0,0-5.09-9.67-5.53-13.54s-.54-5.34-.54-5.34Z"/>
          <path class="st5" d="M144.01,231.62c-2.59-2.66-5.41-9.26-6.32-17.14"/>
          <path class="st5" d="M245.92,300.76c-7.98,4.9-11.04,5.07-24.12,6.06"/>
          <path class="st5" d="M269.7,288.48c4.09-3.32,6.75-8.77,8.85-16.11"/>
          <path class="st25" d="M277.55,250.04c-1.84,1.79-5.16,6.74-6.97,9.45s-3.8,6.4-4.73,8.13-2.88,4.41-4.27,4.99c-6.46,2.67-9.16,7.22-10.16,9.38s-2.06,5.29.25,5.98,9.45-6.02,11.21-9.34,5.88-12.08,8.85-15.82,4.27-5.74,7.55-6.69,8.69-1.44,8.19-1.9-4.88-.53-6.96-1.71-2.15-2.5-2.96-2.47Z"/>
          <path class="st5" d="M250.49,273.13c-2.91,1.85-6.04,7.42-5.44,12.23.37,3.01,1.08,5.48,1.94,7.27"/>
          <path class="st9" d="M277.49,251.62c.46,1.12,2.79,2.66,5.06,2.86"/>
          <path class="st8" d="M159.58,297.37c-7.24-3.57-13.27-8.02-16.96-13.27"/>
          <path class="st25" d="M157.09,213.02l-2.11,2.18s-6.88-3.88-15.1-4.62c-8.21-.74-7.82-.15-9.15,1.51s-.64,6.17-.2,8.33,1.91,9.7,5.53,16.46c3.62,6.76,4.21,6.95,4.21,6.95l-.32,1.16s-5.61-6.65-8.15-14.78c-2.55-8.13-4.65-14.84-3.67-19.05s5-5.73,7.79-6.76c-1.37,1.57.78,2.83,4.75,3.89s8.72,1.99,16.41,4.73Z"/>
          <path class="st8" d="M133.63,208.81c-3.23.78-5.28.41-4.92,6.27"/>
          <path class="st5" d="M212.2,212.9c-.83-.15-1.73-.53-2.62-1.09"/>
          <path class="st5" d="M260.55,223.05c-2.02,5.86-10.64,14.92-31.14,18.81"/>
          <path class="st21" d="M283.11,250.5c-1.13-.44-3.58-1.74-.85-2.04s4.21-.2,5.33.1-2.43,2.73-4.47,1.94Z"/>
          <path class="st25" d="M289.16,249.28c1.63-.44,5.52,1.61,4.93,2.17s-3.19.79-4.44.53-1.58-2.4-.49-2.7Z"/>
        </g>
        <g>
          <path d="M88.34,320.1l-.11-12.31-2.91-1.17v-1.56s6.95,2.79,6.95,2.79v1.56s-2.89-1.17-2.89-1.17l.11,12.31-1.15-.46Z"/>
          <path d="M96.2,323.45c-.61-.25-1.15-.67-1.62-1.28-.47-.61-.83-1.35-1.09-2.24-.27-.88-.4-1.85-.41-2.91v-.02c0-1.06.11-1.93.36-2.6.25-.67.6-1.12,1.06-1.35.46-.23.99-.23,1.6.01.61.25,1.15.67,1.62,1.28.47.61.83,1.35,1.1,2.22.26.88.4,1.84.41,2.91v.02c0,1.06-.11,1.93-.36,2.6s-.6,1.13-1.06,1.37c-.46.24-.99.23-1.6-.01ZM96.19,321.97c.39.16.73.15,1.01-.03.28-.18.5-.51.66-1,.15-.49.23-1.13.22-1.91v-.02c0-.78-.09-1.48-.26-2.1-.17-.62-.39-1.12-.69-1.53s-.64-.69-1.03-.84c-.38-.15-.72-.14-1.01.03-.29.17-.51.5-.67.99-.16.48-.23,1.12-.23,1.9v.02c0,.78.09,1.48.26,2.1.17.62.4,1.13.69,1.54.29.41.64.69,1.03.85Z"/>
          <path d="M103.23,329.62c-.54-.22-1.02-.53-1.43-.92-.41-.4-.74-.85-.99-1.35-.25-.5-.42-1.01-.49-1.53v-.09s1.1.45,1.1.45l.03.1c.11.4.32.77.62,1.1.31.33.68.59,1.14.77.58.23,1.03.19,1.35-.13.32-.32.47-.87.46-1.65v-1.28s-.04-.01-.04-.01c-.13.32-.3.57-.5.76-.21.19-.44.3-.71.34-.27.04-.56,0-.88-.13-.56-.22-1.05-.63-1.48-1.23-.43-.6-.76-1.33-1.01-2.19-.24-.87-.37-1.82-.38-2.86h0c0-1.05.1-1.9.34-2.57.23-.67.56-1.13.98-1.38s.92-.26,1.48-.04c.32.13.6.32.87.59.26.27.5.58.71.95.21.37.38.76.52,1.19h.03s-.02-1.68-.02-1.68l1.11.45.09,9.72c0,.78-.11,1.4-.34,1.88-.23.48-.57.79-1,.93-.44.14-.95.09-1.55-.15ZM103.11,324.65c.38.15.71.13.99-.06.28-.19.5-.53.65-1.02.16-.49.23-1.1.22-1.84h0c0-.75-.09-1.42-.26-2.03-.17-.61-.39-1.12-.68-1.54-.29-.42-.62-.7-.99-.85-.39-.16-.73-.14-1.02.04s-.5.51-.66,1c-.15.48-.22,1.1-.21,1.84h0c0,.77.09,1.45.25,2.06s.39,1.12.68,1.54c.29.41.63.7,1.03.86Z"/>
          <path d="M110.41,332.5c-.54-.22-1.02-.53-1.43-.92-.41-.4-.74-.85-.99-1.35-.25-.5-.42-1.01-.49-1.53v-.09s1.1.45,1.1.45l.03.1c.11.4.32.77.62,1.1.31.33.68.58,1.14.77.58.23,1.03.19,1.35-.13.32-.32.47-.87.46-1.65v-1.28s-.04,0-.04,0c-.13.32-.3.57-.5.76-.21.19-.44.3-.71.34-.27.04-.56,0-.88-.13-.56-.22-1.05-.63-1.48-1.23s-.76-1.33-1.01-2.19-.37-1.82-.38-2.86h0c0-1.05.1-1.9.34-2.57s.56-1.13.98-1.38.92-.26,1.48-.04c.32.13.6.32.87.59.26.27.5.58.71.95.21.37.38.76.52,1.19h.03s-.02-1.68-.02-1.68l1.11.45.09,9.72c0,.78-.11,1.4-.34,1.88-.23.48-.57.79-1,.93-.44.14-.95.09-1.56-.15ZM110.29,327.53c.38.15.71.13.99-.06.28-.19.5-.53.65-1.02.15-.49.23-1.1.22-1.84h0c0-.75-.09-1.42-.26-2.03-.17-.61-.39-1.12-.68-1.54-.29-.42-.62-.7-.99-.85-.39-.16-.73-.14-1.02.04-.29.18-.5.51-.66,1-.15.48-.22,1.1-.21,1.84h0c0,.77.09,1.45.25,2.06.16.61.39,1.12.68,1.54.29.41.63.7,1.03.86Z"/>
          <path d="M114.81,330.72l-.12-13.87,1.11.45.12,13.87-1.11-.45Z"/>
          <path d="M120.16,333.06c-.64-.25-1.18-.68-1.65-1.29-.46-.61-.82-1.34-1.07-2.22-.25-.87-.38-1.83-.39-2.87h0c0-1.04.11-1.9.35-2.59.24-.69.58-1.16,1.03-1.42.44-.26.97-.27,1.57-.03.6.24,1.13.66,1.57,1.26.44.6.78,1.32,1.02,2.17.24.85.37,1.78.37,2.77v.62s-5.35-2.15-5.35-2.15v-1.31s4.79,1.93,4.79,1.93l-.55.99v-.64c-.01-.78-.1-1.45-.26-2.02-.16-.57-.38-1.03-.65-1.39-.28-.36-.59-.61-.94-.75s-.67-.14-.95,0c-.28.15-.5.44-.66.89s-.23,1.04-.22,1.78v.64c.01.71.1,1.34.26,1.9.16.56.39,1.04.69,1.42.29.38.64.66,1.04.82.28.11.53.15.75.11.22-.04.4-.14.55-.31.15-.17.25-.38.31-.64l.02-.08,1.09.44v.09c-.06.39-.17.73-.32,1.03-.15.3-.35.53-.59.71s-.52.28-.83.3c-.31.03-.65-.03-1.01-.18Z"/>
          <path d="M126.8,335.53l-.09-10,1.11.45v1.46s.04,0,.04,0c.14-.43.38-.74.69-.91.32-.18.69-.18,1.11,0,.3.12.58.31.82.56.25.25.46.55.64.91.18.36.32.76.42,1.21h.03c.12-.34.28-.62.49-.82.2-.2.44-.33.71-.37.27-.05.56,0,.87.12.44.18.82.46,1.15.87.33.4.58.88.76,1.45.18.56.28,1.18.28,1.84l.06,6.9-1.11-.45-.06-6.52c0-.46-.06-.88-.17-1.25s-.27-.68-.48-.94c-.21-.25-.46-.44-.75-.56-.29-.12-.55-.12-.78,0s-.4.32-.52.62c-.12.3-.18.68-.18,1.14l.06,6.35-1.11-.45-.06-6.7c0-.4-.06-.78-.18-1.12-.12-.35-.27-.64-.48-.89-.21-.25-.45-.43-.72-.54-.29-.12-.55-.12-.78,0-.23.12-.4.34-.53.65-.13.31-.19.7-.19,1.17l.06,6.27-1.11-.45Z"/>
          <path d="M140.07,341.05c-.61-.25-1.15-.67-1.62-1.28-.47-.61-.83-1.35-1.09-2.24-.27-.88-.4-1.85-.41-2.91v-.02c0-1.06.11-1.93.36-2.6.25-.67.6-1.12,1.06-1.35.46-.23.99-.23,1.6.01.61.25,1.15.67,1.62,1.28.47.61.83,1.35,1.1,2.22.26.88.4,1.84.41,2.91v.02c0,1.06-.11,1.93-.36,2.6s-.6,1.13-1.06,1.37c-.46.24-.99.23-1.6-.01ZM140.06,339.57c.39.16.73.15,1.01-.03.28-.18.5-.51.66-1,.15-.49.23-1.12.22-1.91v-.02c0-.78-.09-1.48-.26-2.1s-.39-1.12-.69-1.53-.64-.69-1.03-.84c-.38-.15-.72-.14-1.01.03-.29.17-.51.5-.67.99-.16.48-.23,1.12-.23,1.9v.02c0,.78.09,1.48.26,2.1.17.62.4,1.13.69,1.54.29.41.64.69,1.03.85Z"/>
          <path d="M147.02,343.83c-.61-.25-1.15-.67-1.62-1.28-.47-.61-.83-1.35-1.1-2.24s-.4-1.85-.41-2.91v-.02c0-1.06.11-1.93.36-2.6.25-.67.6-1.12,1.06-1.36.46-.23.99-.23,1.6.02.61.25,1.15.67,1.62,1.28.47.6.83,1.34,1.1,2.22s.4,1.85.41,2.91v.02c0,1.06-.11,1.93-.36,2.6s-.6,1.13-1.06,1.37c-.46.24-.99.23-1.6-.01ZM147.01,342.35c.39.16.73.15,1.01-.03.28-.18.5-.51.66-1s.23-1.13.22-1.91v-.02c0-.78-.09-1.48-.26-2.1s-.39-1.12-.69-1.53c-.29-.41-.64-.69-1.03-.84-.38-.15-.72-.14-1.01.03-.29.17-.51.5-.67.99-.16.48-.23,1.12-.22,1.9v.02c0,.78.09,1.48.26,2.1.17.62.4,1.13.69,1.54s.64.69,1.03.85Z"/>
          <path d="M153.7,346.51c-.57-.23-1.06-.64-1.49-1.24-.43-.6-.76-1.33-1-2.2-.24-.87-.37-1.83-.38-2.88h0c0-1.06.1-1.93.33-2.61.23-.68.55-1.15.97-1.41.42-.26.9-.27,1.46-.05.32.13.61.32.88.58.27.26.51.57.73.93.21.36.39.77.53,1.21h.03s-.05-5.54-.05-5.54l1.11.45.12,13.87-1.11-.45v-1.69s-.04,0-.04,0c-.13.34-.3.6-.51.8s-.44.32-.71.36-.56,0-.88-.12ZM153.91,345.12c.38.15.71.13.99-.06.29-.19.51-.53.67-1.03.16-.49.23-1.11.23-1.85h0c0-.75-.09-1.44-.27-2.06-.17-.62-.4-1.14-.69-1.57s-.62-.71-1-.86c-.39-.16-.73-.14-1.01.04-.28.19-.5.53-.65,1.01-.15.49-.22,1.12-.21,1.88h0c0,.77.09,1.46.25,2.08.16.62.38,1.13.67,1.55.29.41.63.7,1.02.85Z"/>
          <path d="M161.19,349.33l-.12-13.87,1.11.45.12,13.87-1.11-.45Z"/>
          <path d="M164.32,338.94c-.19-.08-.36-.25-.49-.5-.14-.26-.21-.53-.21-.82,0-.29.06-.52.2-.66s.3-.18.49-.11c.2.08.36.25.5.5.14.26.21.53.21.83,0,.29-.06.51-.19.66-.13.15-.3.19-.49.11ZM163.87,350.4l-.09-10,1.11.45.09,10-1.11-.45Z"/>
          <path d="M169.34,356.14c-.54-.22-1.02-.53-1.43-.92-.41-.4-.74-.85-.99-1.35s-.42-1.01-.49-1.53v-.09s1.1.45,1.1.45l.03.1c.11.4.32.77.62,1.1s.68.59,1.14.77c.58.23,1.03.19,1.35-.13.32-.32.47-.87.46-1.65v-1.28s-.04,0-.04,0c-.13.32-.3.57-.5.76-.21.19-.44.3-.71.34-.27.04-.56,0-.88-.13-.56-.22-1.05-.63-1.48-1.23-.43-.6-.76-1.33-1.01-2.2-.24-.87-.37-1.82-.38-2.86h0c0-1.05.1-1.9.34-2.57.23-.67.56-1.13.98-1.38.42-.25.92-.26,1.48-.04.32.13.6.32.87.59.26.27.5.58.71.95.21.37.38.76.52,1.19h.03s-.02-1.68-.02-1.68l1.11.45.09,9.72c0,.78-.11,1.4-.34,1.88-.23.48-.57.79-1,.93-.44.14-.95.09-1.55-.15ZM169.22,351.17c.38.15.71.13.99-.06.28-.19.5-.53.65-1.02.16-.49.23-1.1.22-1.84h0c0-.75-.09-1.42-.26-2.03-.17-.61-.39-1.12-.68-1.54-.29-.42-.62-.7-.99-.85-.39-.16-.73-.15-1.02.04-.29.18-.5.51-.66,1-.15.48-.22,1.1-.21,1.84h0c0,.77.09,1.45.25,2.06s.39,1.12.68,1.54c.29.41.63.7,1.03.86Z"/>
          <path d="M173.74,354.36l-.12-13.87,1.11.45.05,5.47h.03c.17-.48.44-.81.79-.99s.77-.16,1.27.04c.47.19.89.53,1.25,1.01s.64,1.07.85,1.76c.2.69.31,1.44.32,2.25l.05,6.12-1.11-.45-.05-5.83c0-.9-.16-1.67-.45-2.29-.29-.62-.7-1.04-1.22-1.25-.34-.14-.64-.13-.89,0-.26.14-.45.4-.59.77-.14.37-.21.84-.2,1.41l.05,5.83-1.11-.45Z"/>
          <path d="M182.9,358.22c-.61-.24-1.07-.64-1.37-1.2-.31-.56-.46-1.31-.47-2.27l-.05-6.07-.97-.39v-1.38s.96.39.96.39l-.02-2.7,1.15.46.02,2.7,1.26.51v1.38s-1.25-.51-1.25-.51l.05,6.06c0,.53.08.92.24,1.17.15.25.38.43.68.55.07.03.13.05.19.06.06.02.12.03.16.04v1.35c-.06-.01-.14-.04-.25-.06-.11-.03-.22-.06-.33-.11Z"/>
          <path d="M185.2,347.31c-.19-.08-.36-.25-.49-.5-.14-.26-.21-.53-.21-.82,0-.29.06-.52.2-.66.13-.15.3-.18.49-.11.2.08.36.25.5.5.14.26.21.53.21.83,0,.29-.06.51-.19.66-.13.15-.3.19-.49.11ZM184.75,358.77l-.09-10,1.11.45.09,10-1.11-.45Z"/>
          <path d="M187.37,359.83l-.09-10,1.11.45v1.42s.04,0,.04,0c.17-.4.43-.68.77-.84.34-.17.76-.15,1.26.05.73.29,1.3.85,1.7,1.67.41.83.62,1.81.63,2.95l.06,6.49-1.11-.45-.06-6.19c0-.81-.14-1.49-.4-2.02-.26-.53-.64-.9-1.15-1.11-.35-.14-.65-.14-.91-.02-.26.13-.46.38-.59.74-.14.37-.21.83-.2,1.4l.05,5.88-1.11-.45Z"/>
          <path d="M197.11,367.28c-.54-.22-1.02-.53-1.43-.92-.41-.4-.74-.85-.99-1.35-.25-.5-.42-1.01-.49-1.54v-.09s1.1.45,1.1.45l.03.1c.11.4.32.77.62,1.1.31.33.68.59,1.14.77.58.23,1.03.19,1.35-.13.32-.32.47-.87.46-1.65v-1.28s-.04-.01-.04-.01c-.13.32-.3.57-.5.76s-.44.3-.71.34c-.27.04-.56,0-.88-.13-.56-.22-1.05-.63-1.48-1.23-.43-.6-.76-1.33-1.01-2.19s-.37-1.82-.38-2.86h0c0-1.05.1-1.9.34-2.57.23-.67.56-1.13.98-1.38.42-.25.92-.26,1.48-.04.32.13.6.32.87.59.26.27.5.58.71.95.21.37.38.76.52,1.19h.03s-.02-1.68-.02-1.68l1.11.45.09,9.72c0,.78-.11,1.4-.34,1.88-.23.48-.57.79-1,.93-.44.14-.95.09-1.55-.15ZM196.99,362.31c.38.15.71.13.99-.06.28-.19.5-.53.65-1.02.15-.49.23-1.1.22-1.84h0c0-.75-.09-1.42-.26-2.03-.17-.61-.39-1.12-.68-1.54-.29-.42-.62-.7-.99-.85-.39-.16-.73-.14-1.02.04-.29.18-.51.51-.66,1-.15.48-.22,1.1-.22,1.84h0c0,.77.09,1.45.25,2.06.16.61.39,1.12.68,1.54.29.41.63.7,1.03.86Z"/>
        </g>
        <g>
          <path class="st28" d="M231.64,382.03c-.67,0-1.38-.15-2.1-.46l-16.47-6.9c-3.97-1.68-7.19-7.33-7.19-12.61,0-4.02,1.89-6.73,4.71-6.73.67,0,1.38.15,2.1.46l16.47,6.9c3.97,1.68,7.2,7.33,7.2,12.61,0,4.02-1.89,6.73-4.71,6.73Z"/>
          <path d="M210.59,355.84h0c.6,0,1.24.14,1.9.42l16.47,6.9c3.8,1.61,6.89,7.05,6.89,12.15,0,3.73-1.69,6.23-4.21,6.23-.6,0-1.24-.14-1.9-.42l-16.47-6.9c-3.8-1.61-6.89-7.05-6.89-12.15,0-3.72,1.69-6.23,4.21-6.23M210.59,354.84c-3.02,0-5.21,2.81-5.21,7.23h0c0,5.47,3.36,11.32,7.5,13.07l16.47,6.9c.8.34,1.57.5,2.29.5,3.02,0,5.21-2.81,5.21-7.23h0c0-5.47-3.36-11.32-7.5-13.07l-16.47-6.9c-.8-.34-1.57-.5-2.29-.5h0Z"/>
        </g>
        <g>
          <path class="st24" d="M230.51,379.17c-.45,0-.93-.1-1.42-.3-2.79-1.15-5.06-5.09-5.06-8.79,0-2.8,1.31-4.67,3.26-4.67.45,0,.93.1,1.42.3,2.79,1.15,5.05,5.09,5.05,8.79,0,2.8-1.31,4.67-3.26,4.67Z"/>
          <path d="M227.3,365.91h0c.39,0,.8.09,1.23.27,2.57,1.06,4.75,4.87,4.75,8.33,0,2.5-1.11,4.17-2.76,4.17-.39,0-.8-.09-1.23-.27-2.57-1.06-4.75-4.87-4.75-8.33,0-2.5,1.11-4.17,2.76-4.17M227.29,364.91c-2.18,0-3.76,2.02-3.76,5.17,0,3.89,2.4,8.03,5.36,9.25.56.23,1.1.34,1.61.34,2.18,0,3.76-2.02,3.76-5.17,0-3.89-2.4-8.03-5.36-9.25-.56-.23-1.1-.34-1.61-.34h0Z"/>
        </g>
      </g>
    </g>
  </g>
</svg>