<?xml version="1.0" encoding="UTF-8"?>
<svg id="Layer_1" xmlns="http://www.w3.org/2000/svg" xmlns:xlink="http://www.w3.org/1999/xlink" version="1.1" viewBox="0 0 364.99 523.82">
  <!-- Generator: Adobe Illustrator 30.2.1, SVG Export Plug-In . SVG Version: 2.1.1 Build 1)  -->
  <defs>
    <style>
      .st0 {
        mask: url(#mask);
      }

      .st1 {
        fill: #32fff5;
      }

      .st1, .st2, .st3, .st4, .st5, .st6, .st7, .st8, .st9, .st10, .st11, .st12, .st13, .st14, .st15, .st16, .st17, .st18, .st19 {
        stroke-miterlimit: 10;
      }

      .st1, .st3, .st6, .st8, .st9, .st10, .st11, .st12, .st13, .st14, .st17, .st18, .st19 {
        stroke: #000;
      }

      .st2, .st3 {
        opacity: .19;
      }

      .st2, .st3, .st4, .st5 {
        fill: none;
      }

      .st2, .st4 {
        stroke: #fff;
      }

      .st5, .st7 {
        stroke-dasharray: 3.38;
        stroke-width: 1.69px;
      }

      .st5, .st7, .st20 {
        opacity: .5;
      }

      .st5, .st7, .st15 {
        stroke: #231f20;
      }

      .st6 {
        fill: #ffe063;
      }

      .st21 {
        font-family: MyriadPro-Regular, 'Myriad Pro';
        font-size: 20.59px;
      }

      .st7 {
        fill: #a8c4ff;
      }

      .st8 {
        fill: url(#linear-gradient4);
      }

      .st9 {
        fill: url(#linear-gradient6);
      }

      .st10 {
        fill: url(#linear-gradient3);
      }

      .st11 {
        fill: url(#linear-gradient5);
      }

      .st12 {
        fill: url(#linear-gradient1);
      }

      .st13 {
        fill: url(#linear-gradient);
      }

      .st14 {
        fill: #73d452;
      }

      .st22 {
        fill: #fff;
      }

      .st15 {
        fill: url(#linear-gradient2);
        stroke-width: .45px;
      }

      .st16 {
        fill: #e8e7e7;
        stroke: #7b7b7a;
      }

      .st17 {
        fill: #eaff63;
      }

      .st18 {
        fill: #3262ff;
      }

      .st19 {
        fill: #9932ff;
      }

      .st23 {
        fill: #f7f7e4;
      }
    </style>
    <linearGradient id="linear-gradient" x1="140.68" y1="279.29" x2="165.41" y2="279.29" gradientUnits="userSpaceOnUse">
      <stop offset="0" stop-color="#949494"/>
      <stop offset=".01" stop-color="#9c9c9c"/>
      <stop offset=".06" stop-color="#bfbfbf"/>
      <stop offset=".11" stop-color="#dbdbdb"/>
      <stop offset=".17" stop-color="#efefef"/>
      <stop offset=".22" stop-color="#fbfbfb"/>
      <stop offset=".27" stop-color="#fff"/>
      <stop offset=".37" stop-color="#f5f5f5"/>
      <stop offset=".54" stop-color="#dcdcdc"/>
      <stop offset=".75" stop-color="#b4b4b4"/>
      <stop offset="1" stop-color="#7d7d7d"/>
    </linearGradient>
    <linearGradient id="linear-gradient1" x1="110.54" y1="252.65" x2="164.99" y2="263.6" gradientTransform="translate(0 -4.81) rotate(1.67) skewX(1.67)" gradientUnits="userSpaceOnUse">
      <stop offset="0" stop-color="#949494"/>
      <stop offset=".02" stop-color="#9c9c9c"/>
      <stop offset=".08" stop-color="#bfbfbf"/>
      <stop offset=".15" stop-color="#dbdbdb"/>
      <stop offset=".23" stop-color="#efefef"/>
      <stop offset=".3" stop-color="#fbfbfb"/>
      <stop offset=".37" stop-color="#fff"/>
      <stop offset=".46" stop-color="#f5f5f5"/>
      <stop offset=".6" stop-color="#dcdcdc"/>
      <stop offset=".79" stop-color="#b4b4b4"/>
      <stop offset="1" stop-color="#7d7d7d"/>
    </linearGradient>
    <linearGradient id="linear-gradient2" x1="56.47" y1="280.37" x2="306.87" y2="280.37" gradientUnits="userSpaceOnUse">
      <stop offset="0" stop-color="#000"/>
      <stop offset=".13" stop-color="#fff"/>
      <stop offset=".84" stop-color="#fff"/>
      <stop offset=".85" stop-color="#f5f5f5"/>
      <stop offset=".88" stop-color="#dcdcdc"/>
      <stop offset=".9" stop-color="#b4b4b4"/>
      <stop offset=".94" stop-color="#7b7b7b"/>
      <stop offset=".97" stop-color="#343434"/>
      <stop offset="1" stop-color="#000"/>
    </linearGradient>
    <mask id="mask" x="22.37" y="109.24" width="310.06" height="342.26" maskUnits="userSpaceOnUse">
      <polygon class="st15" points="306.87 197.77 56.59 109.55 56.47 362.75 306.19 451.18 306.87 197.77"/>
    </mask>
    <linearGradient id="linear-gradient3" x1="273.32" y1="308.01" x2="298.18" y2="308.01" gradientTransform="translate(0 8.7) rotate(-1.74) skewX(-1.74)" gradientUnits="userSpaceOnUse">
      <stop offset="0" stop-color="#94724b"/>
      <stop offset=".37" stop-color="#ffe3c2"/>
      <stop offset=".48" stop-color="#f6dab8"/>
      <stop offset=".66" stop-color="#e0c29f"/>
      <stop offset=".89" stop-color="#bc9c77"/>
      <stop offset=".96" stop-color="#b0906a"/>
    </linearGradient>
    <linearGradient id="linear-gradient4" x1="261.16" y1="279.67" x2="306.41" y2="299.8" xlink:href="#linear-gradient3"/>
    <linearGradient id="linear-gradient5" x1="52.35" y1="223.11" x2="77.1" y2="223.11" gradientUnits="userSpaceOnUse">
      <stop offset=".07" stop-color="#9f7f6e"/>
      <stop offset=".09" stop-color="#ab8d78"/>
      <stop offset=".15" stop-color="#c9b093"/>
      <stop offset=".2" stop-color="#e0cca7"/>
      <stop offset=".26" stop-color="#f1e0b6"/>
      <stop offset=".31" stop-color="#fbecbf"/>
      <stop offset=".37" stop-color="#fff0c2"/>
      <stop offset=".45" stop-color="#f7e6ba"/>
      <stop offset=".59" stop-color="#e2cda7"/>
      <stop offset=".76" stop-color="#c0a587"/>
      <stop offset=".96" stop-color="#94705d"/>
    </linearGradient>
    <linearGradient id="linear-gradient6" x1="22.23" y1="199.98" x2="76.68" y2="210.94" gradientTransform="translate(0 -4.81) rotate(1.67) skewX(1.67)" xlink:href="#linear-gradient5"/>
  </defs>
  <path class="st16" d="M337.05,521.41L26.66,396.07c-14.51-5.86-26.22-23.47-26.16-39.35L1.56,20.53C1.62,4.66,13.43-3.46,27.94,2.4l310.39,125.34c14.51,5.86,26.22,23.47,26.16,39.35l-1.04,336.2c-.09,15.87-11.89,23.99-26.4,18.13Z"/>
  <g>
    <polygon class="st22" points="54.83 372.97 54.95 83.47 309.77 184.32 309.08 474.05 54.83 372.97"/>
    <path d="M55.45,84.21l253.82,100.45-.68,288.65-253.26-100.68.12-288.42M54.45,82.74l-.12,290.57,255.25,101.48.69-290.8L54.45,82.74h0Z"/>
  </g>
  <path class="st4" d="M297,118.46l37.52,15.15c12.73,5.15,23.01,20.6,22.95,34.53l-.15,47.36"/>
  <g>
    <g>
      <path class="st23" d="M210.58,382.14c-1.73,0-3.56-.38-5.43-1.14l-56.28-22.55c-8.77-3.54-15.88-14.23-15.84-23.83l.65-122.05c.03-7.1,4.12-11.87,10.17-11.87,1.73,0,3.56.38,5.43,1.14l56.28,22.55c8.77,3.54,15.87,14.23,15.84,23.83l-.64,122.05c-.04,7.21-4.04,11.87-10.18,11.87Z"/>
      <path d="M143.86,200.2v1c1.67,0,3.43.37,5.25,1.1l56.28,22.55c8.6,3.47,15.56,13.95,15.53,23.36l-.64,122.05c-.04,6.91-3.84,11.38-9.68,11.38-1.67,0-3.43-.37-5.25-1.1l-56.28-22.55c-8.6-3.47-15.56-13.95-15.53-23.36l.65-122.05c.03-6.91,3.82-11.37,9.67-11.37v-1M143.86,200.2c-6.2,0-10.64,4.73-10.67,12.37l-.65,122.05c-.04,9.81,7.19,20.68,16.15,24.3l56.28,22.55c1.98.8,3.87,1.18,5.62,1.18,6.2,0,10.64-4.73,10.68-12.37l.64-122.05c.04-9.81-7.19-20.68-16.15-24.3l-56.28-22.55c-1.98-.8-3.87-1.18-5.62-1.18h0Z"/>
    </g>
    <text class="st21" transform="translate(141.83 315.81) rotate(21.06) scale(.8 .93) skewX(24.11)"><tspan x="0" y="0">Lapsang</tspan><tspan x="0" y="20.33">souchong</tspan></text>
    <polygon class="st5" points="206.48 310.73 143.29 286.05 143.29 220.61 206.48 245.29 206.48 310.73"/>
    <polygon class="st1" points="182.3 320.74 119.11 296.06 119.11 230.61 182.3 255.29 182.3 320.74"/>
    <polygon class="st17" points="182.3 320.74 119.11 296.06 119.11 272.76 182.3 297.44 182.3 320.74"/>
    <path class="st13" d="M165.41,301.69s-.77,2.99-12.91-1.57-11.82-8.15-11.82-8.15v-36.03l24.73,10.6v35.16Z"/>
    <path class="st3" d="M141.72,269.54c1.98,2.92,10.84,9.38,20.42,9.22"/>
    <path class="st2" d="M143.29,273.15c1.98,2.74,10.84,8.36,20.42,7.3"/>
    <line class="st7" x1="119.11" y1="231.3" x2="144.05" y2="221.27"/>
    <path class="st12" d="M165.41,266.21c0,2.3-5.54,1.76-12.37-1.2-6.83-2.97-12.37-7.24-12.37-9.54s5.54-1.76,12.37,1.2c6.83,2.97,12.37,7.24,12.37,9.54Z"/>
  </g>
  <g class="st0">
    <g>
      <g>
        <g>
          <path class="st23" d="M321.11,425.82c-1.73,0-3.56-.38-5.43-1.14l-56.28-22.55c-8.77-3.54-15.87-14.23-15.84-23.83l.65-122.05c.03-7.1,4.12-11.87,10.17-11.87,1.73,0,3.56.38,5.43,1.14l56.28,22.55c8.77,3.54,15.88,14.23,15.84,23.83l-.64,122.05c-.04,7.21-4.04,11.87-10.18,11.87Z"/>
          <path d="M254.38,243.89v1c1.67,0,3.43.37,5.25,1.1l56.28,22.55c8.6,3.47,15.56,13.95,15.53,23.36l-.64,122.05c-.04,6.91-3.84,11.38-9.68,11.38-1.67,0-3.43-.37-5.25-1.1l-56.28-22.55c-8.6-3.47-15.56-13.95-15.53-23.36l.65-122.05c.03-6.91,3.82-11.37,9.67-11.37v-1M254.38,243.89c-6.2,0-10.64,4.73-10.67,12.37l-.65,122.05c-.04,9.81,7.19,20.68,16.15,24.3l56.28,22.55c1.98.8,3.87,1.18,5.62,1.18,6.2,0,10.64-4.73,10.68-12.37l.64-122.05c.04-9.81-7.19-20.68-16.15-24.3l-56.28-22.55c-1.98-.8-3.87-1.18-5.62-1.18h0Z"/>
        </g>
        <text class="st21" transform="translate(254.35 360.5) rotate(21.06) scale(.8 .93) skewX(24.11)"><tspan x="0" y="0">Jasmine</tspan><tspan x="0" y="20.33">Green</tspan></text>
        <path class="st18" d="M253.81,264.3v65.45l63.19,24.68v-65.45l-63.19-24.68ZM298.17,295.95v35.16s-.77,3.01-12.91-1.18c-12.14-4.19-11.82-7.79-11.82-7.79l-.12-36.31s-.55-4.89,12.94.82c12.62,5.35,11.91,9.3,11.91,9.3Z"/>
        <path class="st6" d="M317,354.42l-63.19-24.68v-23.3l19.64,7.67s0,6.12,0,8.03,5.88,6.14,10.8,7.43,13.67,3.63,13.81.75c.14-2.88.12-6.56.12-6.56l18.83,7.35v23.3Z"/>
        <path class="st10" d="M298.17,331.11s-.77,3.01-12.91-1.18-11.82-7.79-11.82-7.79l-.12-36.31s-.55-4.89,12.94.82c12.62,5.35,11.91,9.3,11.91,9.3v35.16Z"/>
        <path class="st3" d="M274.49,299.67c1.98,2.86,10.84,9.05,20.42,8.6"/>
        <path class="st2" d="M276.05,303.24c1.98,2.68,10.84,8.03,20.42,6.68"/>
        <path class="st8" d="M298.17,295.63c0,2.3-5.54,1.93-12.37-.83-6.83-2.76-12.37-6.86-12.37-9.17s4.14-2.58,12.84,1.02c6.81,2.81,11.91,6.67,11.91,8.98Z"/>
      </g>
      <g>
        <g>
          <path class="st23" d="M100.42,338.14c-1.73,0-3.56-.38-5.43-1.14l-56.28-22.55c-8.77-3.54-15.88-14.23-15.84-23.83l.65-122.05c.03-7.1,4.12-11.87,10.17-11.87,1.73,0,3.56.38,5.43,1.14l56.28,22.55c8.77,3.54,15.88,14.23,15.84,23.83l-.64,122.05c-.04,7.21-4.04,11.87-10.18,11.87Z"/>
          <path d="M33.7,156.2v1c1.67,0,3.43.37,5.25,1.1l56.28,22.55c8.6,3.47,15.56,13.95,15.53,23.36l-.64,122.05c-.04,6.91-3.84,11.37-9.68,11.37-1.67,0-3.43-.37-5.25-1.1l-56.28-22.55c-8.6-3.47-15.56-13.95-15.53-23.36l.65-122.05c.03-6.91,3.82-11.37,9.67-11.37v-1M33.7,156.2c-6.2,0-10.64,4.73-10.67,12.37l-.65,122.05c-.04,9.81,7.19,20.68,16.15,24.3l56.28,22.55c1.98.8,3.87,1.18,5.62,1.18,6.2,0,10.64-4.73,10.68-12.37l.64-122.05c.04-9.81-7.19-20.68-16.15-24.3l-56.28-22.55c-1.98-.8-3.87-1.18-5.62-1.18h0Z"/>
        </g>
        <text class="st21" transform="translate(58.7 279.29) rotate(21.06) scale(.8 .93) skewX(24.11)"><tspan x="0" y="0">Earl </tspan><tspan x="0" y="20.33">Gray</tspan></text>
        <path class="st11" d="M77.1,210.98c0-2.3-5.54-6.58-12.37-9.54-6.83-2.97-12.37-3.51-12.37-1.2,0,.16.03.32.08.5l-.06-.03v36.03s-.32,3.59,11.82,8.15c12.14,4.56,12.91,1.57,12.91,1.57v-35.16l-.05-.02c.02-.1.05-.19.05-.3Z"/>
        <path class="st19" d="M33.13,176.61v65.45l63.19,24.68v-65.45l-63.19-24.68ZM77.1,211.3v35.16s-.77,2.99-12.91-1.57c-12.14-4.56-11.82-8.15-11.82-8.15v-36.03l.06.03c-.05-.17-.08-.34-.08-.5,0-2.3,5.54-1.76,12.37,1.2,6.83,2.97,12.37,7.24,12.37,9.54,0,.11-.02.2-.05.3l.05.02Z"/>
        <path class="st14" d="M77.1,235.93v10.53s-.77,2.99-12.91-1.57c-12.14-4.56-11.82-8.15-11.82-8.15v-10.47l-19.24-7.52v23.3l63.19,24.68v-23.3l-19.22-7.51Z"/>
        <path class="st3" d="M53.41,214.31c1.98,2.92,10.84,9.38,20.42,9.22"/>
        <path class="st2" d="M54.98,217.92c1.98,2.74,10.84,8.36,20.42,7.3"/>
        <path class="st9" d="M77.1,210.98c0,2.3-5.54,1.76-12.37-1.2-6.83-2.97-12.37-7.24-12.37-9.54s5.54-1.76,12.37,1.2c6.83,2.97,12.37,7.24,12.37,9.54Z"/>
      </g>
    </g>
  </g>
  <g class="st20">
    <g>
      <line class="st5" x1="12.57" y1="386.75" x2="55.06" y2="373.42"/>
      <line class="st5" x1="310.27" y1="184.08" x2="269.08" y2="198.92"/>
      <polyline class="st5" points="12.92 98.98 269.08 198.92 268.61 489.35"/>
    </g>
    <polygon class="st7" points="310.24 184.08 54.45 82.85 13.3 99.13 12.92 98.98 12.57 386.75 268.61 489.35 309.44 474.8 310.27 184.08 310.24 184.08"/>
  </g>
</svg>