<?xml version="1.0" encoding="UTF-8"?>
<svg id="Layer_1" xmlns="http://www.w3.org/2000/svg" xmlns:xlink="http://www.w3.org/1999/xlink" version="1.1" viewBox="0 0 460.2 440.37">
  <!-- Generator: Adobe Illustrator 30.2.1, SVG Export Plug-In . SVG Version: 2.1.1 Build 1)  -->
  <defs>
    <style>
      .st0, .st1 {
        fill: #231f20;
      }

      .st2 {
        stroke-dasharray: 3.38;
        stroke-width: 1.69px;
      }

      .st2, .st3, .st4 {
        opacity: .5;
      }

      .st2, .st5 {
        fill: none;
        stroke: #231f20;
      }

      .st2, .st5, .st6, .st7 {
        stroke-miterlimit: 10;
      }

      .st3 {
        fill: url(#linear-gradient);
      }

      .st5 {
        stroke-width: 4px;
      }

      .st1 {
        font-family: SFMono-Medium, 'SF Mono';
        font-size: 29.47px;
        font-weight: 500;
      }

      .st6 {
        fill: #39f5b0;
        stroke: #a8ffc8;
      }

      .st8 {
        fill: #eaff63;
      }

      .st7 {
        fill: #30cc5c;
        stroke: #a8ffc1;
      }
    </style>
    <linearGradient id="linear-gradient" x1="242.51" y1="186.2" x2="296.75" y2="68.95" gradientUnits="userSpaceOnUse">
      <stop offset="0" stop-color="#85effe"/>
      <stop offset=".97" stop-color="#2f86ea"/>
    </linearGradient>
  </defs>
  <g class="st4">
    <text class="st1" transform="translate(110.18 428.28)"><tspan x="0" y="0">grass.png</tspan></text>
  </g>
  <g class="st4">
    <text class="st1" transform="translate(231.2 394.48)"><tspan x="0" y="0">hills.png</tspan></text>
  </g>
  <g class="st4">
    <text class="st1" transform="translate(332.68 355.03)"><tspan x="0" y="0">sky.png</tspan></text>
  </g>
  <polygon class="st3" points="399.57 102.33 144.44 1.37 144.32 143.79 398.88 245 399.57 102.33"/>
  <path class="st8" d="M373.63,131.38c0,16.64-10.97,25.68-24.51,20.19-13.53-5.49-24.51-23.44-24.51-40.08s10.97-25.68,24.51-20.19c13.53,5.49,24.51,23.44,24.51,40.08Z"/>
  <path class="st6" d="M73.43,119.59c31.3,5.64,67.84,57.44,118.82,70.89,50.98,13.45,82.56-22.5,115.04-16.14,8.11,1.59,15.17,4.03,21.21,6.8-.12,11.32-.51,91.28-.51,91.28,0,0-252.03-98.02-254.56-101.2s0-51.63,0-51.63Z"/>
  <g class="st4">
    <polygon class="st2" points="399.84 102.14 258.4 159.38 2.27 59.73 144.03 .91 399.84 102.14"/>
    <polygon class="st2" points="399.86 102.13 258.4 159.38 257.93 302.06 399.03 245.1 399.86 102.13"/>
    <polygon class="st2" points="2.24 59.44 258.4 159.38 257.93 302.06 1.89 203.46 2.24 59.44"/>
    <polygon class="st2" points="328.68 129.76 73.55 28.79 73.43 171.22 327.99 272.43 328.68 129.76"/>
  </g>
  <path class="st7" d="M2.27,159.38c11.74-10.43,42.97-19.29,86.75-2.66,41.84,15.89,64.51,55.15,92.04,74.61,23.56,16.65,60.53,26.57,77.18,12.87-.12,13.14-.51,57.81-.51,57.81L1.89,203.46l.38-44.08Z"/>
  <g class="st4">
    <g>
      <line class="st5" x1="165.03" y1="398.31" x2="165.03" y2="305.4"/>
      <path class="st0" d="M165.03,295.74c1.69,4.54,4.56,10.18,7.61,13.68l-7.61-2.75-7.61,2.75c3.05-3.49,5.92-9.13,7.61-13.68Z"/>
    </g>
  </g>
  <g class="st4">
    <g>
      <line class="st5" x1="291.32" y1="357.28" x2="291.32" y2="275.23"/>
      <path class="st0" d="M291.32,265.57c1.69,4.54,4.56,10.18,7.61,13.68l-7.61-2.75-7.61,2.75c3.05-3.49,5.92-9.13,7.61-13.68Z"/>
    </g>
  </g>
  <g class="st4">
    <g>
      <line class="st5" x1="368.62" y1="329.91" x2="368.62" y2="247.86"/>
      <path class="st0" d="M368.62,238.2c1.69,4.54,4.56,10.18,7.61,13.68l-7.61-2.75-7.61,2.75c3.05-3.49,5.92-9.13,7.61-13.68Z"/>
    </g>
  </g>
</svg>