<?xml version="1.0" encoding="UTF-8"?>
<svg id="Layer_1" xmlns="http://www.w3.org/2000/svg" xmlns:xlink="http://www.w3.org/1999/xlink" version="1.1" viewBox="0 0 592.66 562.58">
  <!-- Generator: Adobe Illustrator 30.2.1, SVG Export Plug-In . SVG Version: 2.1.1 Build 1)  -->
  <defs>
    <style>
      .st0 {
        mask: url(#mask);
      }

      .st1 {
        fill: url(#linear-gradient1);
      }

      .st1, .st2, .st3, .st4 {
        opacity: .5;
      }

      .st5 {
        stroke: #fff;
      }

      .st5, .st2 {
        fill: none;
      }

      .st5, .st2, .st6, .st7, .st8, .st9 {
        stroke-miterlimit: 10;
      }

      .st2, .st9 {
        stroke: #231f20;
        stroke-dasharray: 3.38;
        stroke-width: 1.69px;
      }

      .st10, .st7 {
        fill: #e8e7e7;
      }

      .st3 {
        fill: url(#linear-gradient);
      }

      .st11 {
        fill: #fff;
      }

      .st6 {
        fill: #39f5b0;
        stroke: #a8ffc8;
      }

      .st7 {
        stroke: #7b7b7a;
      }

      .st12 {
        fill: #eaff63;
      }

      .st8 {
        fill: #30cc5c;
        stroke: #a8ffc1;
      }

      .st9 {
        fill: #a8ffc1;
      }
    </style>
    <linearGradient id="linear-gradient" x1="330.61" y1="249.56" x2="384.84" y2="132.3" gradientUnits="userSpaceOnUse">
      <stop offset="0" stop-color="#85effe"/>
      <stop offset=".97" stop-color="#2f86ea"/>
    </linearGradient>
    <mask id="mask" x="0" y="0" width="592.66" height="417.68" maskUnits="userSpaceOnUse">
      <polygon class="st9" points="348.3 223.74 92.47 122.49 92.36 265.31 347.61 366.79 348.3 223.74"/>
    </mask>
    <linearGradient id="linear-gradient1" x1="332.88" y1="252.44" x2="387.54" y2="134.25" xlink:href="#linear-gradient"/>
  </defs>
  <g>
    <polygon class="st3" points="487.66 165.69 232.54 64.72 232.42 207.15 486.98 308.35 487.66 165.69"/>
    <path class="st12" d="M461.72,194.74c0,16.64-10.97,25.68-24.51,20.19-13.53-5.49-24.51-23.44-24.51-40.08s10.97-25.68,24.51-20.19c13.53,5.49,24.51,23.44,24.51,40.08Z"/>
    <polygon class="st2" points="416.77 193.12 161.64 92.15 161.52 234.58 416.09 335.78 416.77 193.12"/>
    <path class="st6" d="M161.52,182.94c31.3,5.64,67.84,57.44,118.82,70.89,50.98,13.45,82.56-22.5,115.04-16.14,8.11,1.59,15.17,4.03,21.21,6.8-.12,11.32-.51,91.28-.51,91.28,0,0-252.03-98.02-254.56-101.2s0-51.63,0-51.63Z"/>
    <g class="st4">
      <polygon class="st2" points="487.93 165.5 346.49 222.73 90.36 123.08 232.13 64.27 487.93 165.5"/>
      <polygon class="st2" points="487.95 165.49 346.49 222.73 346.03 365.41 487.12 308.46 487.95 165.49"/>
      <polygon class="st2" points="90.34 122.8 346.49 222.73 346.03 365.41 89.98 266.81 90.34 122.8"/>
    </g>
    <path class="st8" d="M90.36,222.73c11.74-10.43,42.97-19.29,86.75-2.66,41.84,15.89,64.51,55.15,92.04,74.61,23.56,16.65,60.53,26.57,77.18,12.87-.12,13.14-.51,57.81-.51,57.81,0,0-252.03-98.02-254.56-101.2s-.9-41.42-.9-41.42Z"/>
  </g>
  <path class="st7" d="M374.08,560.17L63.69,434.83c-14.51-5.86-26.22-23.47-26.16-39.35l1.05-336.2c.06-15.87,11.88-23.99,26.39-18.13l310.39,125.34c14.51,5.86,26.22,23.47,26.16,39.35l-1.04,336.2c-.09,15.87-11.89,23.99-26.4,18.13Z"/>
  <path class="st5" d="M334.73,156.66l37.52,15.15c12.73,5.15,23.01,20.6,22.95,34.53l-.15,47.36"/>
  <g class="st0">
    <g>
      <rect class="st7" x=".5" y=".5" width="591.66" height="416.68"/>
      <g>
        <rect class="st11" x="20.75" y="73.27" width="349.06" height="299.2"/>
        <path d="M369.31,73.77v298.2H21.25V73.77h348.06M370.31,72.77H20.25v300.2h350.06V72.77h0Z"/>
      </g>
      <polygon class="st1" points="490.31 167.5 234.93 66.39 235.04 210.21 489.6 311.41 490.31 167.5"/>
      <path class="st12" d="M464.34,197.8c0,16.64-10.97,25.68-24.51,20.19-13.53-5.49-24.51-23.44-24.51-40.08s10.97-25.68,24.51-20.19c13.53,5.49,24.51,23.44,24.51,40.08Z"/>
      <polygon class="st2" points="419.39 196.18 164.26 95.21 164.15 237.64 418.71 338.84 419.39 196.18"/>
      <path class="st6" d="M164.15,186.01c31.3,5.64,67.84,57.44,118.82,70.89,50.98,13.45,82.56-22.5,115.04-16.14,8.11,1.59,15.17,4.03,21.21,6.8-.12,11.32-.51,91.28-.51,91.28,0,0-252.03-98.02-254.56-101.2s0-51.63,0-51.63Z"/>
      <g class="st4">
        <polygon class="st2" points="490.22 167.56 348.99 224.94 92.85 124.36 234.8 66.52 490.22 167.56"/>
        <polygon class="st2" points="490.22 167.57 348.99 224.94 348.65 368.48 489.74 311.52 490.22 167.57"/>
        <polygon class="st2" points="92.85 124.45 348.99 224.94 348.65 368.48 92.6 269.88 92.85 124.45"/>
      </g>
      <path class="st8" d="M92.98,225.8c11.74-10.43,42.97-19.29,86.75-2.66,41.84,15.89,64.51,55.15,92.04,74.61,23.56,16.65,60.53,26.57,77.18,12.87-.12,13.14-.51,57.81-.51,57.81,0,0-252.03-98.02-254.56-101.2s-.9-41.42-.9-41.42Z"/>
    </g>
  </g>
  <g>
    <polygon class="st11" points="91.97 347.95 92.03 282.01 211.07 329.12 210.75 395.18 91.97 347.95"/>
    <path d="M92.52,282.75l118.04,46.72-.31,64.98-117.78-46.83.05-64.87M91.53,281.28l-.06,67.02,119.78,47.62.32-67.13-120.04-47.51h0Z"/>
  </g>
  <polyline points="190.05 409.1 190.32 398.18 92.4 359.43 92.36 370.26"/>
  <polyline points="289.53 494.7 289.99 491.37 118.62 423.55 118.54 426.72"/>
  <polyline class="st4" points="182.12 420.03 182.38 413.37 94.77 379.13 94.73 385.7"/>
  <polyline points="323.22 457.86 323.49 446.95 225.57 408.2 225.52 419.02"/>
  <polyline class="st4" points="324.41 473.19 324.67 466.74 226.76 427.99 226.71 434.35"/>
  <g>
    <polygon class="st11" points="225.24 400.92 225.3 334.98 344.34 382.09 344.02 448.15 225.24 400.92"/>
    <path d="M225.8,335.72l118.04,46.72-.31,64.98-117.78-46.83.05-64.87M224.8,334.25l-.06,67.02,119.78,47.62.32-67.13-120.04-47.51h0Z"/>
  </g>
  <rect class="st10" x="110.72" y="363.04" width="4.94" height="18.41"/>
  <rect class="st10" x="134.44" y="371.15" width="4.94" height="18.41"/>
  <rect class="st10" x="176.36" y="390.69" width="4.94" height="18.41"/>
  <rect class="st10" x="186.84" y="395.91" width="4.94" height="18.41"/>
  <polygon class="st10" points="325.6 464.68 298.56 453.61 298.56 435.2 325.6 446.27 325.6 464.68"/>
  <rect class="st10" x="108.15" y="380.13" width="4.94" height="18.41"/>
  <rect class="st10" x="147.89" y="394.96" width="4.94" height="18.41"/>
  <rect class="st10" x="237.46" y="409.1" width="4.94" height="18.41"/>
  <rect class="st10" x="303.9" y="459.13" width="4.94" height="18.41"/>
  <rect class="st10" x="263.24" y="438.32" width="4.94" height="18.41"/>
  <rect class="st10" x="259.81" y="420.46" width="4.94" height="18.41"/>
  <g class="st4">
    <polygon class="st3" points="487.66 165.69 232.54 64.72 232.42 207.15 486.98 308.35 487.66 165.69"/>
    <path class="st12" d="M461.72,194.74c0,16.64-10.97,25.68-24.51,20.19-13.53-5.49-24.51-23.44-24.51-40.08s10.97-25.68,24.51-20.19c13.53,5.49,24.51,23.44,24.51,40.08Z"/>
    <polygon class="st2" points="416.77 193.12 161.64 92.15 161.52 234.58 416.09 335.78 416.77 193.12"/>
    <path class="st6" d="M161.52,182.94c31.3,5.64,67.84,57.44,118.82,70.89,50.98,13.45,82.56-22.5,115.04-16.14,8.11,1.59,15.17,4.03,21.21,6.8-.12,11.32-.51,91.28-.51,91.28,0,0-252.03-98.02-254.56-101.2s0-51.63,0-51.63Z"/>
    <g class="st4">
      <polygon class="st2" points="487.93 165.5 346.49 222.73 90.36 123.08 232.13 64.27 487.93 165.5"/>
      <polygon class="st2" points="487.95 165.49 346.49 222.73 346.03 365.41 487.12 308.46 487.95 165.49"/>
      <polygon class="st2" points="90.34 122.8 346.49 222.73 346.03 365.41 89.98 266.81 90.34 122.8"/>
    </g>
    <path class="st8" d="M90.36,222.73c11.74-10.43,42.97-19.29,86.75-2.66,41.84,15.89,64.51,55.15,92.04,74.61,23.56,16.65,60.53,26.57,77.18,12.87-.12,13.14-.51,57.81-.51,57.81,0,0-252.03-98.02-254.56-101.2s-.9-41.42-.9-41.42Z"/>
  </g>
</svg>