<?xml version="1.0" encoding="UTF-8"?>
<svg id="Layer_1" xmlns="http://www.w3.org/2000/svg" xmlns:xlink="http://www.w3.org/1999/xlink" version="1.1" viewBox="0 0 454.55 523.82">
  <!-- Generator: Adobe Illustrator 30.2.1, SVG Export Plug-In . SVG Version: 2.1.1 Build 1)  -->
  <defs>
    <style>
      .st0, .st1 {
        fill: none;
      }

      .st2 {
        mask: url(#mask);
      }

      .st3, .st1, .st4, .st5, .st6 {
        stroke-miterlimit: 10;
      }

      .st3, .st4 {
        stroke-dasharray: 3.38;
      }

      .st3, .st4, .st7, .st8, .st5 {
        opacity: .5;
      }

      .st3, .st4, .st5 {
        stroke: #231f20;
        stroke-width: 1.69px;
      }

      .st3, .st5 {
        fill: #a8ffc1;
      }

      .st9 {
        fill: url(#linear-gradient1);
      }

      .st1 {
        stroke: #fff;
      }

      .st10 {
        fill: url(#linear-gradient);
      }

      .st4 {
        fill: #a8ffff;
      }

      .st11, .st12, .st7 {
        font-family: MyriadPro-Regular, 'Myriad Pro';
      }

      .st11, .st7 {
        font-size: 157.87px;
      }

      .st12 {
        font-size: 189.71px;
      }

      .st13 {
        mask: url(#mask-1);
      }

      .st14 {
        fill: #fff;
      }

      .st6 {
        fill: #e8e7e7;
        stroke: #7b7b7a;
      }

      .st15 {
        fill: #f7f7e4;
      }

      .st16 {
        clip-path: url(#clippath);
      }
    </style>
    <clipPath id="clippath">
      <polygon class="st0" points="310.27 184.98 54.45 83.74 54.33 374.3 309.58 475.78 310.27 184.98"/>
    </clipPath>
    <linearGradient id="linear-gradient" x1="330.15" y1="-264.38" x2="367.31" y2="-264.38" gradientTransform="translate(-543.79 624.02) scale(1.8 1)" gradientUnits="userSpaceOnUse">
      <stop offset="0" stop-color="#fff"/>
      <stop offset="1" stop-color="#000"/>
    </linearGradient>
    <mask id="mask" x="50.9" y="343.22" width="64.55" height="32.84" maskUnits="userSpaceOnUse">
      <rect class="st10" x="49.77" y="355.85" width="66.82" height="7.58" transform="translate(-132.65 60.18) rotate(-22.76)"/>
    </mask>
    <linearGradient id="linear-gradient1" x1="388.12" y1="-157.9" x2="461.5" y2="-157.9" gradientTransform="translate(-513.24 562.82) scale(1.8 1)" xlink:href="#linear-gradient"/>
    <mask id="mask-1" x="186.77" y="372.5" width="127.45" height="64.84" maskUnits="userSpaceOnUse">
      <rect class="st9" x="184.53" y="397.44" width="131.93" height="14.97" transform="translate(-137.14 128.43) rotate(-22.76)"/>
    </mask>
  </defs>
  <g class="st8">
    <line class="st4" x1="54.33" y1="377.18" x2="164.54" y2="334.04"/>
    <polygon class="st3" points="452.28 128.12 310.84 185.35 54.71 85.7 196.47 26.88 452.28 128.12"/>
    <polygon class="st3" points="452.29 128.11 310.84 185.35 310.37 475.78 451.46 418.83 452.29 128.11"/>
    <polygon class="st4" points="54.68 85.41 310.84 185.35 310.37 475.78 54.33 377.18 54.68 85.41"/>
  </g>
  <path class="st6" d="M337.05,521.41L26.66,396.07c-14.51-5.86-26.22-23.47-26.16-39.35L1.56,20.53C1.62,4.66,13.43-3.46,27.94,2.4l310.39,125.34c14.51,5.86,26.22,23.47,26.16,39.35l-1.04,336.2c-.09,15.87-11.89,23.99-26.4,18.13Z"/>
  <path class="st1" d="M297.7,117.9l37.52,15.15c12.73,5.15,23.01,20.6,22.95,34.53l-.15,47.36"/>
  <g class="st8">
    <g>
      <g class="st8">
        <path class="st15" d="M238.1,314.21l-14.71-77.51c-2.32-12.34,2.67-23.36,11.15-24.6l105.65-15.27c8.47-1.25,17.23,7.76,19.54,20.1l14.71,77.51c2.32,12.34-2.67,23.36-11.15,24.6l-105.65,15.29c-8.48,1.22-17.23-7.77-19.55-20.11Z"/>
        <path d="M341.77,196.71c-.53,0-1.05.04-1.58.12h0s0,0-.02,0h0s0,0,0,0h0s0,0,0,0h0s0,0,0,0h0s0,0,0,0h0s0,0-.01,0h0s0,0,0,0h0s0,0,0,0h0s0,0,0,0l-1.73.25.14.99,1.78-.26c.47-.07.95-.1,1.43-.1v-1h0ZM335.06,197.56l-3.35.48.14.99,3.35-.48-.14-.99h0ZM328.36,198.53l-3.35.48.14.99,3.35-.48-.14-.99h0ZM321.66,199.5l-3.35.48.14.99,3.35-.48-.14-.99h0ZM314.96,200.47l-3.35.48.14.99,3.35-.48-.14-.99h0ZM308.27,201.44l-3.35.48.14.99,3.35-.48-.14-.99h0ZM301.57,202.41l-3.35.48.14.99,3.35-.48-.14-.99h0ZM294.87,203.38l-3.35.48.14.99,3.35-.48-.14-.99h0ZM288.17,204.34l-3.35.48.14.99,3.35-.48-.14-.99h0ZM281.47,205.31l-3.35.48.14.99,3.35-.48-.14-.99h0ZM274.77,206.28l-3.35.48.14.99,3.35-.48-.14-.99h0ZM268.07,207.25l-3.35.48.14.99,3.35-.48-.14-.99h0ZM261.37,208.22l-3.35.48.14.99,3.35-.48-.14-.99h0ZM254.67,209.19l-.27.04s0,0,0,0l-.41.06s0,0,0,0l-.17.03s0,0,0,0h-.1s0,.02,0,.02h-.07s0,.01,0,.01h-.1s0,.01,0,.01h0s0,0,0,0h0s0,0,0,0h0s0,0,0,0h0s0,0,0,0h0s0,0,0,0h0s0,0,0,0h-.01s0,0,0,0h0s0,0,0,0h0s0,0-.01,0h0s-.01,0-.02,0h0s0,0,0,0h0s0,0,0,0h0s0,0,0,0h-.02s0,0,0,0h-.07s0,.01-.01.01h-.02s0,0,0,0h0s0,0-.01,0h-.02s0,0,0,0h0s0,0,0,0h0s0,0,0,0h0s0,0,0,0h-.02s0,0,0,0h-.04s0,0,0,0h0s0,0-.01,0h-.09s0,.01,0,.01h-.08s0,.01,0,.01h-.02s0,0,0,0h-.01s0,0,0,0h-.07s0,.01,0,.01h0s0,0,0,0h-.01s0,0-.01,0h0s0,0,0,0h-.02s0,0,0,0h0s0,0,0,0h0s0,0,0,0h0s0,0-.01,0h0s0,0,0,0h0s0,0,0,0h-.01s0,0-.01,0h0s-.01,0-.02,0h0s-.02,0-.04,0h0s-.02,0-.04,0h0s-.02,0-.04,0h0s-.05,0-.07.01h0s-.04,0-.06,0h-.02s0,0,0,0h0s0,0-.01,0h0s-.07.01-.11.02h0s-.09.01-.14.02h0c-.09.01-.17.03-.25.04h0c-.16.02-.29.04-.38.05h0c-.09.01-.14.02-.14.02l.14.99,3.35-.48-.14-.99h0ZM247.97,210.16l-3.35.48.14.99,3.35-.48-.14-.99h0ZM241.28,211.12l-3.35.48.14.99,3.35-.48-.14-.99h0ZM234.58,212.09c-1.05.15-2.03.45-2.94.86,0,0,0,0,0,0,0,0,0,0,0,0,0,0,0,0,0,0,0,0,0,0,0,0-.09.04-.17.08-.26.12l.44.9c.91-.45,1.88-.75,2.88-.9h.04s-.14-1-.14-1h0ZM228.58,215.01c-.5.46-.97.96-1.41,1.51,0,0,0,0,0,0,0,0,0,0,0,0,0,0,0,0,0,0h0s0,0,0,.01c0,0,0,0,0,0,0,0,0,0,0,0,0,0,0,0,0,0,0,0,0,0,0,0,0,0,0,0,0,0,0,0,0,0,0,0,0,0,0,0,0,0,0,0,0,0,0,0,0,0,0,0,0,0,0,0,0,0,0,0,0,0,0,0,0,0,0,0,0,0,0,0,0,0,0,0,0,0,0,0,0,0,0,0,0,0,0,0,0,0,0,0,0,0,0,0,0,0,0,0,0,0,0,0,0,0,0,0,0,0,0,0,0,0,0,0,0,0,0,0,0,0,0,0,0,0,0,0,0,0,0,0,0,0,0,0,0,0,0,0,0,0,0,0,0,0,0,0,0,0,0,0,0,0,0,0,0,0,0,0,0,0,0,0,0,0,0,0,0,0,0,0,0,0,0,0,0,0,0,0,0,0,0,0,0,0,0,0,0,0,0,0,0,0,0,0,0,0,0,0,0,0,0,0,0,0,0,0,0,0,0,0,0,0,0,0,0,0,0,0,0,0,0,0,0,0,0,0,0,0,0,0,0,0,0,0,0,0,0,0,0,0,0,0,0,0,0,0,0,0,0,0,0,0,0,0,0,0,0,0,0,0,0,0,0,0,0,0,0,0,0,0,0,0,0,0,0,0,0,0,0,0,0,0,0,0,0,0,0,0,0,0,0,0,0,0,0,0,0,.01,0,0,0,0,0,0,0,0,0,0,0,.01,0,0,0,0,0,0,0,0,0,0,0,.01,0,0,0,0,0,0-.19.24-.37.49-.54.75l.83.56c.61-.91,1.3-1.71,2.04-2.39l-.68-.74h0ZM224.78,220.55c-.15.35-.3.72-.44,1.09,0,0,0,0,0,0,0,.02-.02.05-.03.07,0,0,0,0,0,0,0,0,0,0,0,.01,0,0,0,0,0,0,0,0,0,0,0,.01,0,0,0,0,0,0,0,0,0,0,0,0,0,0,0,0,0,0,0,0,0,0,0,.01,0,0,0,0,0,0,0,0,0,0,0,.01,0,0,0,0,0,0,0,0,0,.02,0,.03,0,0,0,0,0,0,0,0,0,0,0,0,0,0,0,0,0,0,0,0,0,0,0,0,0,0,0,0,0,0,0,0,0,0,0,0,0,0,0,0,0,0,0,0,0,0,0,0,0,0,0,0,0,0,0,0,0,0,0,0,0,0,0,0,0,0,0,0,0,0,0,0,0,0,0,0,0,0,0,0,0,0,0,.01,0,0,0,0,0,0,0,0,0,0,0,0,0,0,0,0,0,0,0,0,0,0,0,0,0,0,0,0,0,0,0,0,0,0,0,0,0,0,0,0,0,0,0,0,0,0,0,0,0,0,0,0,0,0,0,0,0,0,0,0,0,0,0,0,0,.01,0,0,0,0,0,0,0,.02-.01.04-.02.06,0,0,0,0,0,0,0,0,0,0,0,.01,0,0,0,0,0,0,0,0,0,0,0,.01h0s0,0,0,.01c0,0,0,0,0,0-.01.03-.02.07-.03.1h0c-.17.51-.33,1.03-.47,1.57l.97.25c.28-1.07.63-2.1,1.05-3.05l-.92-.4h0ZM223.04,227.07c-.06.51-.12,1.03-.15,1.56h0s0,0,0,.01c0,0,0,0,0,0,0,.02,0,.03,0,.05,0,0,0,0,0,0,0,0,0,0,0,.01,0,0,0,0,0,0,0,0,0,0,0,.01,0,0,0,0,0,0,0,0,0,.01,0,.02,0,0,0,0,0,0,0,0,0,0,0,0,0,0,0,0,0,0,0,0,0,0,0,0,0,0,0,0,0,0,0,0,0,0,0,0,0,0,0,0,0,.01,0,0,0,0,0,0,0,0,0,0,0,0,0,0,0,0,0,0,0,0,0,0,0,0,0,0,0,0,0,0,0,0,0,0,0,.01,0,0,0,0,0,0,0,0,0,.01,0,.02,0,0,0,0,0,0h0s0,.02,0,.02c0,0,0,0,0,.01,0,0,0,0,0,0,0,0,0,0,0,.01,0,0,0,0,0,0,0,.01,0,.02,0,.03,0,0,0,0,0,0-.03.49-.05.99-.05,1.49h1c0-1.09.08-2.19.22-3.25l-.99-.13h0ZM223.97,233.72l-1,.1c.04.36.08.71.12,1.07,0,0,0,0,0,0,0,0,0,.01,0,.02h0s0,.04,0,.07c0,0,0,0,0,0,0,0,0,.01,0,.02,0,0,0,0,0,0,0,.01,0,.03,0,.04,0,0,0,0,0,0,0,0,0,.01,0,.02,0,0,0,0,0,0,0,0,0,.01,0,.02,0,0,0,0,0,0v.04s0,0,0,0c0,0,0,.01,0,.02,0,0,0,0,0,0,0,0,0,.01,0,.02,0,0,0,0,0,0,0,0,0,.01,0,.02,0,0,0,0,0,0,0,0,0,.01,0,.02h0s0,.02,0,.02c0,0,0,0,0,0,0,0,0,.01,0,.02h0s0,.02,0,.03c0,0,0,0,0,0,0,0,0,.01,0,.02,0,0,0,0,0,0,0,0,0,0,0,.01,0,0,0,0,0,0,0,0,0,.01,0,.02,0,0,0,0,0,0,0,0,0,.01,0,.02,0,0,0,0,0,0,0,0,0,.01,0,.02,0,0,0,0,0,0,0,0,0,0,0,.01,0,0,0,0,0,0,0,0,0,.01,0,.02,0,0,0,0,0,0,0,0,0,.01,0,.02,0,0,0,0,0,0,0,0,0,0,0,.01,0,0,0,0,0,0,0,0,0,0,0,.01,0,0,0,0,0,0,0,0,0,.01,0,.02,0,0,0,0,0,0,0,0,0,.01,0,.02,0,0,0,0,0,0,0,0,0,0,0,.01,0,0,0,0,0,0,0,0,0,0,0,.01,0,0,0,0,0,0,0,0,0,0,0,.01,0,0,0,0,0,0,0,0,0,.01,0,.02,0,0,0,0,0,0,0,0,0,0,0,.01,0,0,0,0,0,0,0,0,0,0,0,.01,0,0,0,0,0,0,0,0,0,0,0,.01,0,0,0,0,0,0,0,0,0,.01,0,.02,0,0,0,0,0,0,0,0,0,0,0,.01,0,0,0,0,0,0,0,0,0,0,0,.01,0,0,0,0,0,0,0,0,0,.01,0,.02,0,0,0,0,0,0,0,0,0,.01,0,.02,0,0,0,0,0,0,0,0,0,0,0,.01,0,0,0,0,0,0,0,0,0,0,0,.01,0,0,0,0,0,0,0,0,0,.01,0,.02,0,0,0,0,0,0,0,0,0,.01,0,.02,0,0,0,0,0,0,0,0,0,0,0,.01,0,0,0,0,0,0,0,0,0,0,0,.01,0,0,0,0,0,0,0,0,0,.01,0,.02,0,0,0,0,0,0,0,0,0,0,0,.01,0,0,0,0,0,0,0,0,0,0,0,.01,0,0,0,0,0,0,0,0,0,0,0,.01,0,0,0,0,0,0,0,0,0,.01,0,.02,0,0,0,0,0,0,0,0,0,.01,0,.02,0,0,0,0,0,0,0,0,0,0,0,.01,0,0,0,0,0,0,0,0,0,0,0,.01,0,0,0,0,0,0,0,0,0,.01,0,.02,0,0,0,0,0,0,0,0,0,0,0,.01,0,0,0,0,0,0,0,0,0,0,0,.01,0,0,0,0,0,0,0,0,0,0,0,.01,0,0,0,0,0,0,0,0,0,.01,0,.02,0,0,0,0,0,0,0,0,0,0,0,.01,0,0,0,0,0,0,0,0,0,0,0,.01,0,0,0,0,0,0,0,0,0,0,0,.01,0,0,0,0,0,0,0,0,0,.01,0,.02,0,0,0,0,0,0,0,0,0,0,0,.01,0,0,0,0,0,0,0,0,0,0,0,.01,0,0,0,0,0,0,0,0,0,.01,0,.02,0,0,0,0,0,0,0,0,0,.01,0,.02,0,0,0,0,0,0,0,0,0,0,0,.01,0,0,0,0,0,0,0,0,0,0,0,.01,0,0,0,0,0,0,0,0,0,.01,0,.02,0,0,0,0,0,0,0,0,0,.01,0,.02,0,0,0,0,0,0,0,0,0,0,0,.01,0,0,0,0,0,0,0,0,0,0,0,.01,0,0,0,0,0,0,0,0,0,.01,0,.02,0,0,0,0,0,0,0,0,0,.01,0,.02,0,0,0,0,0,0,0,0,0,0,0,.01,0,0,0,0,0,0,0,0,0,0,0,.01,0,0,0,0,0,0,0,0,0,.01,0,.02l.09.47.98-.19-.09-.46c-.17-.93-.31-1.87-.4-2.79h0ZM225.09,240.3l-.98.19.63,3.32.98-.19-.63-3.32h0ZM226.35,246.95l-.98.19.36,1.92s0,0,0,0v.08s.01,0,.02,0h0s0,.02,0,.02h0s0,0,0,.01h0s0,.01,0,.01h0s0,.02,0,.02h0s0,.03,0,.05v.02s0,0,0,0h0s0,.02,0,.02h0s0,.02,0,.03h0s0,0,0,0h0s0,0,0,.01h0s0,.02,0,.03h0s0,.01,0,.02h0s0,.01,0,.02v.02s0,0,0,0h0s0,0,0,.01h0s0,0,0,0h0c.02.09.03.17.05.25h0c.08.45.15.77.15.77l.98-.19-.63-3.32h0ZM227.61,253.6l-.98.19.63,3.32.98-.19-.63-3.32h0ZM228.87,260.25l-.98.19.63,3.32.98-.19-.63-3.32h0ZM230.14,266.9l-.98.19.02.1s0,0,0,0h0s0,0,0,0h0s0,0,0,0h0s0,.02,0,.02h0s0,0,0,0v.02s0,0,0,0h0s0,0,0,0h0s0,.01,0,.01h0s0,0,0,0h0s0,.01,0,.02h0s0,0,0,0h0s0,0,0,0h0c.14.74.59,3.11.59,3.11l.98-.19-.63-3.32h0ZM231.4,273.55l-.98.19s.15.77.3,1.57l.33,1.75.98-.19-.63-3.32h0ZM232.66,280.2l-.98.19.63,3.32.98-.19-.63-3.32h0ZM233.92,286.85l-.98.19.63,3.32.98-.19-.63-3.32h0ZM235.18,293.5l-.98.19s.21,1.09.38,2.03l.25,1.3.98-.19-.63-3.32h0ZM236.45,300.15l-.98.19.63,3.32.98-.19-.63-3.32h0ZM237.71,306.8l-.98.19.63,3.32.98-.19-.63-3.32h0ZM238.97,313.45l-.98.19.1.55s0,0,0,0h0s0,0,0,0h0s0,0,0,0h0s0,0,0,0h0s0,0,0,0h0s0,0,0,0c0,0,0,.01,0,.02,0,0,0,0,0,0,0,0,0,.01,0,.02,0,0,0,0,0,0,0,.02,0,.04.01.06,0,0,0,0,0,0,.13.69.28,1.37.45,2.04,0,0,0,0,0,0,0,.02.01.04.02.06,0,0,0,0,0,0,0,0,0,.01,0,.02,0,0,0,0,0,0,0,.01,0,.03.01.04,0,0,0,0,0,0,0,0,0,.01,0,.02,0,0,0,0,0,0,0,0,0,.01,0,.02,0,0,0,0,0,0,0,0,0,.01,0,.02,0,0,0,0,0,0,0,0,0,0,0,.01,0,0,0,0,0,0,0,0,0,0,0,.01,0,0,0,0,0,0,0,0,0,0,0,.01,0,0,0,0,0,.01,0,0,0,0,0,.01,0,0,0,0,0,.01,0,0,0,0,0,0,0,0,0,0,0,.01,0,0,0,0,0,0,0,.01,0,.03.01.04,0,0,0,0,0,0,0,0,0,0,0,.01,0,0,0,0,0,0,0,0,0,0,0,.01,0,0,0,0,0,0,0,.02,0,.03.01.05,0,0,0,0,0,0,.01.05.03.1.04.16l.96-.27c-.24-.87-.45-1.76-.61-2.65l-.11-.57h0ZM240.72,319.79l-.93.36c.11.27.22.54.33.81,0,0,0,0,0,0,0,.01.01.03.02.04,0,0,0,0,0,0,0,0,0,.02.01.02,0,0,0,0,0,0,0,0,0,.01,0,.02,0,0,0,0,0,0,0,0,0,0,0,.01,0,0,0,0,0,.01,0,0,0,0,0,.02,0,0,0,0,0,.01,0,0,0,0,0,0,0,0,0,.01,0,.02,0,0,0,0,0,0,0,0,0,.01,0,.02,0,0,0,0,0,0,0,0,0,.01,0,.02,0,0,0,0,0,0,0,0,0,.01,0,.02h0s0,.02,0,.03c0,0,0,0,0,0,0,0,0,.01,0,.02,0,0,0,0,0,0,0,0,0,.01,0,.02,0,0,0,0,0,0,0,.01.01.03.02.04,0,0,0,0,0,0,0,0,0,.02.01.02,0,0,0,0,0,0,0,.02.01.03.02.05h0c.2.45.41.9.63,1.33h0s.02.03.02.05h0s0,.02.01.02c0,0,0,0,0,0,0,0,0,.01.01.02h0s0,.01.01.02h0s0,.02.01.02c0,0,0,0,0,0,0,0,0,.01.01.02t0,0v.02s.01,0,.01,0c0,0,0,.01,0,.02,0,0,0,0,0,0,0,0,0,.01,0,.02,0,0,0,0,0,0,0,0,0,0,0,.01,0,0,0,0,0,0,0,0,0,.01,0,.02,0,0,0,0,0,0,0,0,0,0,0,.01,0,0,0,0,0,.01,0,0,0,0,0,.01,0,0,0,0,0,.01,0,0,0,0,0,.01,0,0,0,0,0,.01,0,0,0,0,0,0,0,0,0,.01,0,.02,0,0,0,0,0,0,0,.01.01.03.02.04,0,0,0,0,0,0,0,0,0,.02.01.02,0,0,0,0,0,0,0,.01.01.02.02.03l.89-.46c-.5-.95-.95-1.95-1.35-2.98h0ZM243.76,325.57l-.82.57c.66.96,1.36,1.84,2.09,2.65l.74-.67c-.71-.78-1.38-1.64-2.01-2.55h0ZM248.11,330.32l-.62.78c.68.54,1.37,1.02,2.08,1.43,0,0,0,0,0,0,0,0,0,0,0,0,0,0,0,0,0,0,0,0,0,0,0,0,0,0,0,0,0,0,0,0,0,0,0,0,0,0,0,0,0,0,0,0,0,0,0,0,0,0,0,0,0,0,0,0,0,0,0,0,0,0,0,0,0,0,0,0,0,0,0,0,0,0,0,0,0,0,0,0,0,0,0,0,0,0,0,0,0,0,0,0,0,0,0,0,0,0,0,0,0,0,0,0,0,0,0,0,0,0,0,0,0,0,0,0,0,0,0,0,0,0,0,0,0,0,0,0,0,0,0,0s0,0,0,0h0s0,0,0,0c0,0,0,0,0,0,0,0,0,0,0,0,0,0,0,0,0,0,0,0,0,0,0,0,0,0,0,0,0,0,0,0,0,0,0,0,0,0,0,0,0,0,0,0,0,0,0,0,0,0,0,0,0,0,0,0,0,0,0,0,0,0,0,0,0,0,0,0,0,0,0,0,0,0,0,0,0,0,0,0,0,0,0,0,0,0,0,0,0,0,.18.1.35.19.53.29l.46-.89c-.91-.47-1.8-1.05-2.66-1.74h0ZM253.71,333.15l-.23.97c.69.16,1.38.26,2.07.29h0s0,0,.01,0c0,0,0,0,0,0,.02,0,.04,0,.06,0,0,0,0,0,0,0,0,0,0,0,.01,0,0,0,0,0,0,0,0,0,0,0,0,0,0,0,0,0,0,0,0,0,0,0,.01,0,0,0,0,0,0,0,.01,0,.02,0,.03,0,0,0,0,0,0,0,0,0,0,0,0,0,0,0,0,0,0,0,0,0,0,0,0,0,0,0,0,0,0,0,0,0,0,0,0,0,0,0,0,0,0,0h0s0,0,0,0c0,0,0,0,.01,0,0,0,0,0,0,0,0,0,.02,0,.02,0,0,0,0,0,0,0,0,0,0,0,0,0,0,0,0,0,0,0,0,0,0,0,0,0,0,0,0,0,0,0,0,0,0,0,0,0,0,0,0,0,0,0,0,0,0,0,0,0,0,0,0,0,0,0,0,0,0,0,0,0,0,0,0,0,0,0,0,0,.01,0,.02,0,0,0,0,0,0,0,0,0,0,0,0,0,0,0,0,0,0,0,0,0,0,0,0,0h0s0,0,0,0c0,0,0,0,0,0,0,0,0,0,0,0,0,0,0,0,0,0,0,0,0,0,0,0,0,0,0,0,0,0,0,0,.01,0,.02,0,0,0,0,0,0,0,0,0,0,0,0,0,0,0,0,0,0,0,0,0,0,0,0,0,0,0,0,0,0,0,0,0,0,0,0,0,0,0,0,0,0,0,0,0,0,0,0,0,0,0,0,0,0,0,0,0,0,0,0,0,0,0,0,0,0,0,0,0,.01,0,.02,0h0s0,0,0,0h0s0,0,0,0h0s0,0,0,0h0s0,0,0,0h0s0,0,0,0h.03s0,0,0,0h0s0,0,0,0h0s0,0,0,0c0,0,0,0,0,0,0,0,0,0,0,0,0,0,0,0,0,0,0,0,0,0,0,0h0s0,0,0,0h0s0,0,0,0c0,0,0,0,0,0,0,0,0,0,0,0,0,0,0,0,0,0,0,0,0,0,0,0h0s0,0,0,0c0,0,0,0,0,0,0,0,0,0,.01,0,0,0,0,0,0,0,0,0,0,0,.01,0h0s0,0,.01,0h0c.18,0,.36,0,.53-.02,0,0,0,0,0,0,0,0,0,0,0,0,0,0,0,0,0,0,0,0,0,0,0,0,0,0,0,0,0,0,0,0,0,0,0,0,0,0,.01,0,.02,0l-.07-1c-.23.02-.46.02-.69.02-.78,0-1.59-.09-2.38-.28h0ZM263.4,332.47l-3.35.48.14.99,3.35-.48-.14-.99h0ZM270.1,331.51l-3.35.48.14.99,3.35-.48-.14-.99h0ZM276.8,330.54l-3.35.48.14.99,3.35-.48-.14-.99h0ZM283.5,329.57l-3.35.48.14.99,3.35-.48-.14-.99h0ZM290.2,328.6l-3.35.48.14.99,3.35-.48-.14-.99h0ZM296.9,327.63l-3.35.48.14.99,3.35-.48-.14-.99h0ZM303.6,326.66l-3.35.48.14.99,3.35-.48-.14-.99h0ZM310.29,325.69l-3.35.48.14.99,3.35-.48-.14-.99h0ZM316.99,324.72l-3.35.48.14.99,3.35-.48-.14-.99h0ZM323.69,323.75l-3.35.48.14.99,1.49-.22s0,0,0,0h0s.01,0,.02,0h0c.89-.13,1.83-.27,1.83-.27l-.14-.99h0ZM330.39,322.78l-3.35.48.14.99,3.35-.48-.14-.99h0ZM337.09,321.81l-3.35.48.14.99,3.35-.48-.14-.99h0ZM343.79,320.84l-3.35.48.14.99,3.35-.48-.14-.99h0ZM350.49,319.87l-3.35.48.14.99s1.88-.27,2.82-.41h0s.04,0,.05,0h0s0,0,.01,0h0s0,0,.01,0h0s0,0,.01,0h0s0,0,0,0h.02s0,0,0,0h0s0,0,.01,0h0s0,0,.01,0h0s0,0,.01,0h.01s0,0,0,0h0s0,0,0,0h0s0,0,0,0h.02s0,0,0,0h0s0,0,0,0h0s0,0,0,0h.03s0,0,0,0h0s0,0,0,0h0s0,0,0,0h0s0,0,0,0l.23-.03-.14-.99h0ZM357.19,318.9l-3.35.48.14.99,3.35-.48-.14-.99h0ZM363.81,317.92c-.22.05-.44.09-.66.12l-2.61.38.14.99,2.42-.35s0,0,0,0h.01s0,0,0,0h.02s0,0,0,0h0s0,0,0,0h0s0,0,0,0h0s0,0,0,0h0s0,0,0,0h0s0,0,0,0h0s0,0,0,0h.01s0,0,0,0h0s0,0,0,0h0s.05,0,.07,0h0s.03,0,.03,0h0s0,0,.01,0c0,0,0,0,0,0,0,0,0,0,0,0,0,0,0,0,0,0,0,0,0,0,0,0,0,0,0,0,0,0,0,0,0,0,0,0,0,0,0,0,0,0,0,0,0,0,0,0h0s0,0,0,0c0,0,0,0,0,0,0,0,0,0,0,0,0,0,0,0,0,0,0,0,0,0,0,0,0,0,0,0,0,0,0,0,0,0,0,0,0,0,0,0,0,0,0,0,0,0,0,0h0s0,0,0,0h0s0,0,0,0h0s0,0,0,0c0,0,0,0,0,0,0,0,0,0,0,0,0,0,0,0,0,0,0,0,0,0,.01,0h0s0,0,0,0c0,0,0,0,0,0,0,0,0,0,0,0,0,0,0,0,0,0,0,0,0,0,0,0,0,0,0,0,0,0,0,0,0,0,0,0,0,0,0,0,0,0,0,0,0,0,0,0,0,0,0,0,0,0,0,0,0,0,0,0h0s0,0,0,0c0,0,0,0,0,0,0,0,0,0,0,0,0,0,0,0,0,0,0,0,0,0,0,0,0,0,0,0,0,0,0,0,0,0,0,0,0,0,0,0,0,0,0,0,0,0,0,0,0,0,0,0,0,0,0,0,0,0,.01,0,0,0,0,0,0,0,.01,0,.02,0,.04,0,0,0,0,0,0,0,0,0,0,0,.01,0,0,0,0,0,0,0,0,0,0,0,0,0,0,0,0,0,0,0,0,0,0,0,0,0,0,0,0,0,0,0,0,0,0,0,0,0,0,0,0,0,0,0,0,0,0,0,0,0,0,0,0,0,0,0,0,0,0,0,0,0,0,0,0,0,0,0,0,0,0,0,0,0,0,0,0,0,0,0,0,0,0,0,0,0,0,0,0,0,0,0,0,0,0,0,.01,0,0,0,0,0,0,0,0,0,0,0,.01,0,0,0,0,0,0,0,.02,0,.05,0,.07-.01,0,0,0,0,0,0,0,0,0,0,.01,0,0,0,0,0,0,0,0,0,0,0,.01,0,0,0,0,0,0,0,0,0,0,0,0,0,0,0,0,0,0,0,0,0,0,0,0,0,0,0,0,0,0,0,0,0,0,0,0,0,0,0,0,0,0,0,0,0,0,0,0,0,0,0,0,0,0,0,0,0,0,0,0,0,0,0,0,0,0,0,0,0,0,0,.01,0,0,0,0,0,0,0,0,0,0,0,.01,0,0,0,0,0,0,0,.02,0,.03,0,.05-.01,0,0,0,0,0,0,0,0,0,0,0,0l-.21-.98h0ZM369.09,314.88c-.75.77-1.56,1.42-2.43,1.93l.5.86h0s0,0,.01,0h0c.8-.47,1.55-1.04,2.25-1.71,0,0,0,0,0,0,0,0,0,0,0,0,0,0,0,0,0,0,0,0,0,0,0,0,0,0,0,0,0,0,0,0,0,0,0,0,0,0,0,0,0,0,0,0,0,0,0,0,0,0,0,0,0,0,0,0,0,0,0,0,0,0,0,0,0,0,0,0,0,0,0,0,0,0,0,0,0,0,0,0,0,0,0,0,0,0,0,0,0,0,0,0,0,0,0,0,0,0,0,0,0,0,0,0,0,0,0,0,0,0,0,0,0,0,0,0,0,0,0,0,0,0,0,0,0,0,0,0,0,0,0,0,0,0,0,0,0,0,0,0,0,0,0,0,.09-.09.18-.18.27-.27l-.72-.69h0ZM372.42,309.5c-.4,1.03-.88,2-1.41,2.88l.85.52c.4-.66.77-1.36,1.1-2.11,0,0,0,0,0,0,.02-.03.03-.07.05-.1,0,0,0,0,0,0,0,0,0,0,0-.01,0,0,0,0,0,0,0,0,0,0,0-.01,0,0,0,0,0,0,0,0,0,0,0-.01,0,0,0,0,0,0,0,0,0,0,0-.01,0,0,0,0,0,0,0,0,0,0,0,0,0,0,0,0,0,0,0,0,0,0,0,0,0,0,0,0,0,0,0,0,0,0,0,0h0s0,0,0-.01c0,0,0,0,0,0,0,0,0,0,0,0,0,0,0,0,0,0,0,0,0,0,0,0,0,0,0,0,0,0,0,0,0,0,0,0,0,0,0-.02.01-.03,0,0,0,0,0,0,0,0,0,0,0,0,0,0,0,0,0,0,0,0,0,0,0,0,0,0,0,0,0,0,0,0,0,0,0,0,0,0,0,0,0,0,0,0,0,0,0,0,0,0,0,0,0,0,0,0,0,0,0,0,0,0,0,0,0,0,0,0,0,0,0-.01,0,0,0,0,0,0,0,0,0,0,0-.01,0,0,0,0,0,0,0,0,0,0,0-.01h0c.08-.18.15-.37.22-.55l-.93-.36h0ZM373.88,303.19c-.11,1.1-.28,2.18-.52,3.21l.97.22c.04-.19.09-.38.13-.58,0,0,0,0,0,0,0,0,0,0,0,0,0,0,0,0,0,0,0,0,0,0,0,0,0,0,0,0,0,0,0,0,0,0,0,0,0,0,0,0,0-.01,0,0,0,0,0,0,0,0,0,0,0-.01,0,0,0,0,0,0h0s0-.01,0-.01c0,0,0,0,0-.01,0,0,0,0,0,0,.17-.85.3-1.72.39-2.62,0,0,0,0,0,0,0,0,0,0,0-.01,0,0,0,0,0,0,0,0,0,0,0-.01h0s0,0,0,0l-1-.1h0ZM374.77,296.53l-.99.12c.13,1.09.21,2.19.23,3.27l1-.02c0-.19,0-.38-.02-.58,0,0,0,0,0,0,0-.01,0-.02,0-.03,0,0,0,0,0,0,0,0,0-.01,0-.02,0,0,0,0,0,0,0,0,0,0,0-.01,0,0,0,0,0,0,0,0,0,0,0-.02,0,0,0,0,0,0,0,0,0,0,0-.01,0,0,0,0,0,0,0,0,0,0,0-.01,0,0,0,0,0,0,0,0,0-.01,0-.02,0,0,0,0,0,0,0,0,0,0,0-.01,0,0,0,0,0,0,0,0,0,0,0-.01,0,0,0,0,0,0,0,0,0-.01,0-.01,0,0,0,0,0,0,0,0,0,0,0,0,0,0,0,0,0,0,0,0,0,0,0,0,0,0,0,0,0,0,0,0,0,0,0-.01,0,0,0,0,0,0,0,0,0,0,0,0,0,0,0,0,0,0,0,0,0,0,0,0,0-.01,0-.02,0-.03,0,0,0,0,0,0,0,0,0,0,0-.01,0,0,0,0,0,0,0-.01,0-.02,0-.04,0,0,0,0,0,0,0,0,0,0,0-.01,0,0,0,0,0,0,0-.02,0-.03,0-.05,0,0,0,0,0,0,0-.02,0-.03,0-.05,0,0,0,0,0,0-.02-.31-.04-.63-.06-.95,0,0,0,0,0,0,0-.02,0-.03,0-.05,0,0,0,0,0,0,0,0,0,0,0-.01,0,0,0,0,0,0,0,0,0-.01,0-.02,0,0,0,0,0,0,0,0,0,0,0-.01,0,0,0,0,0,0,0,0,0,0,0-.01,0,0,0,0,0,0,0,0,0,0,0-.01,0,0,0,0,0,0,0,0,0,0,0,0,0,0,0,0,0,0,0,0,0,0,0,0,0,0,0,0,0,0,0,0,0,0,0-.01,0,0,0,0,0,0,0,0,0,0,0,0,0,0,0,0,0,0,0,0,0,0,0,0,0,0,0,0,0-.01,0,0,0,0,0,0,0,0,0-.01,0-.02,0,0,0,0,0,0,0,0,0,0,0-.01,0,0,0,0,0,0,0,0,0,0,0-.01,0,0,0,0,0,0,0,0,0-.01,0-.02,0,0,0,0,0,0,0,0,0-.01,0-.01,0,0,0,0,0,0,0,0,0-.01,0-.02h0s0-.02,0-.03c0,0,0,0,0,0-.03-.33-.07-.66-.11-.99h0ZM373.58,289.87l-.98.19.63,3.32.98-.19s-.16-.86-.32-1.7h0s0-.01,0-.01l-.31-1.61h0ZM372.31,283.22l-.98.19.63,3.32.98-.19-.63-3.32h0ZM371.05,276.57l-.98.19.63,3.32.98-.19-.03-.15h0s0-.02,0-.02c0,0,0,0,0,0h0s0,0,0,0h0s0-.01,0-.02h0s0,0,0,0v-.02s-.01-.06-.02-.09h0c-.16-.83-.57-3.02-.57-3.02h0ZM369.79,269.92l-.98.19.63,3.32.98-.19-.63-3.32h0ZM368.53,263.27l-.98.19.63,3.32.98-.19-.63-3.32h0ZM367.27,256.62l-.98.19.63,3.32.98-.19-.63-3.32h0ZM366,249.97l-.98.19.63,3.32.98-.19-.63-3.32h0ZM364.74,243.32l-.98.19.63,3.32.98-.19s-.16-.83-.31-1.66l-.32-1.67h0ZM363.48,236.67l-.98.19.63,3.32.98-.19-.63-3.32h0ZM362.22,230.02l-.98.19.63,3.32.98-.19-.63-3.32h0ZM360.96,223.37l-.98.19.63,3.32.98-.19-.63-3.32h0ZM359.69,216.72l-.98.19.04.2.59,3.12.98-.19-.57-3.03s0,0,0,0h0s0,0,0,0h0s0,0,0,0h0s0,0,0,0h0s0,0,0,0h0s0-.03,0-.04h0s0-.04,0-.04h0v-.02s0,0,0,0c-.01-.06-.02-.12-.03-.18h0ZM357.74,210.25l-.92.39c.42,1,.79,2.03,1.11,3.09l.96-.29c-.33-1.1-.71-2.16-1.14-3.18h0ZM354.44,204.36l-.81.59c.63.86,1.22,1.78,1.76,2.75l.87-.49c-.56-1.01-1.17-1.96-1.82-2.85h0ZM349.72,199.55l-.59.81c.83.61,1.65,1.32,2.42,2.11l.72-.7c-.81-.83-1.66-1.58-2.55-2.22h0ZM343.58,196.85l-.16.99c.99.16,1.99.47,2.98.91l.41-.91c-1.06-.47-2.14-.81-3.23-.98h0Z"/>
      </g>
      <text class="st7" transform="translate(243.98 247.02) rotate(78.7) scale(.64 1) skewX(-4.03)"><tspan x="0" y="0">C</tspan></text>
    </g>
    <g class="st8">
      <path class="st15" d="M190.42,326.59l-36.09-63.51c-5.73-10.13-5.01-24.07,1.61-31.14l82.56-87.82c6.61-7.06,16.63-4.57,22.35,5.56l36.09,63.51c5.73,10.13,5.01,24.07-1.61,31.14l-82.56,87.83c-6.63,7.05-16.63,4.57-22.36-5.57Z"/>
      <path d="M247.21,140.1h-.01s0,0-.01,0h0s0,0-.01,0h0s0,0-.01,0h0s0,0-.01,0c0,0,0,0,0,0,0,0,0,0-.01,0h0s0,0-.01,0c0,0,0,0,0,0,0,0,0,0-.01,0,0,0,0,0,0,0,0,0-.02,0-.02,0,0,0,0,0,0,0,0,0-.02,0-.02,0,0,0,0,0,0,0,0,0,0,0-.01,0,0,0,0,0,0,0,0,0,0,0-.01,0,0,0,0,0,0,0,0,0,0,0-.01,0h0s0,0-.01,0h0s0,0-.01,0c0,0,0,0,0,0,0,0-.02,0-.02,0,0,0,0,0,0,0-.02,0-.04,0-.07,0h0s-.02,0-.03,0h0s-.02,0-.03,0h0s-.02,0-.03,0h0s-.02,0-.03,0c0,0,0,0,0,0-.53.02-1.06.08-1.58.18,0,0,0,0,0,0-.02,0-.04,0-.06.01,0,0,0,0,0,0,0,0-.02,0-.03,0,0,0,0,0,0,0,0,0-.02,0-.02,0,0,0,0,0,0,0,0,0-.02,0-.02,0,0,0,0,0,0,0,0,0-.02,0-.02,0,0,0,0,0,0,0,0,0,0,0-.01,0,0,0,0,0,0,0,0,0,0,0-.01,0,0,0,0,0,0,0,0,0,0,0-.01,0,0,0,0,0,0,0,0,0,0,0-.01,0,0,0,0,0,0,0,0,0,0,0-.01,0,0,0,0,0,0,0,0,0-.02,0-.02,0,0,0,0,0,0,0,0,0,0,0-.01,0,0,0,0,0,0,0,0,0,0,0-.01,0,0,0,0,0,0,0,0,0,0,0,0,0,0,0,0,0,0,0,0,0,0,0-.01,0,0,0,0,0,0,0,0,0,0,0-.01,0,0,0,0,0,0,0,0,0,0,0-.01,0,0,0,0,0,0,0,0,0,0,0-.01,0,0,0,0,0,0,0,0,0-.02,0-.02,0,0,0,0,0,0,0,0,0,0,0,0,0,0,0,0,0,0,0,0,0,0,0-.01,0,0,0,0,0,0,0,0,0,0,0,0,0,0,0,0,0,0,0,0,0,0,0-.01,0,0,0,0,0,0,0,0,0,0,0,0,0,0,0,0,0,0,0h-.01s0,0,0,0c0,0,0,0,0,0,0,0,0,0,0,0,0,0,0,0,0,0,0,0,0,0,0,0,0,0,0,0,0,0,0,0,0,0,0,0,0,0,0,0,0,0,0,0,0,0,0,0,0,0,0,0,0,0,0,0,0,0,0,0,0,0,0,0,0,0,0,0,0,0,0,0,0,0,0,0,0,0,0,0,0,0,0,0,0,0,0,0,0,0,0,0,0,0,0,0,0,0,0,0,0,0,0,0,0,0,0,0,0,0,0,0,0,0,0,0,0,0,0,0,0,0,0,0,0,0,0,0,0,0,0,0,0,0,0,0,0,0,0,0,0,0,0,0,0,0,0,0,0,0,0,0,0,0-.01,0,0,0,0,0,0,0,0,0,0,0,0,0,0,0,0,0,0,0,0,0,0,0-.01,0,0,0,0,0,0,0,0,0,0,0,0,0,0,0,0,0,0,0,0,0-.02,0-.02,0,0,0,0,0,0,0,0,0,0,0,0,0,0,0,0,0,0,0,0,0-.01,0-.02,0,0,0,0,0,0,0h0s0,0,0,0c0,0-.01,0-.02,0,0,0,0,0,0,0,0,0,0,0,0,0h0s-.02,0-.03,0c0,0,0,0,0,0,0,0-.02,0-.03,0,0,0,0,0,0,0-.17.05-.35.1-.52.15l.3.95c.98-.31,2-.47,3.03-.47v-1h0ZM240.85,142.1c-.13.09-.26.18-.39.27,0,0,0,0,0,0,0,0,0,0,0,0,0,0,0,0,0,0,0,0,0,0,0,0,0,0,0,0,0,0,0,0,0,0,0,0,0,0,0,0,0,0,0,0,0,0,0,0h0s0,0,0,0c0,0,0,0,0,0,0,0,0,0,0,0,0,0,0,0,0,0,0,0,0,0,0,0,0,0,0,0,0,0,0,0,0,0,0,0,0,0,0,0,0,0,0,0,0,0,0,0,0,0,0,0,0,0,0,0,0,0,0,0,0,0,0,0-.01.01,0,0,0,0,0,0,0,0,0,0,0,0,0,0,0,0,0,0,0,0,0,0,0,0,0,0,0,0,0,0,0,0,0,0,0,0,0,0,0,0,0,0-.56.42-1.11.9-1.63,1.44h0s0,0,0,0c0,0,0,0,0,0,0,0,0,0,0,0,0,0,0,0,0,0-.01.01-.02.02-.04.04,0,0,0,0,0,0,0,0,0,0,0,0,0,0,0,0,0,0,0,0,0,0,0,0,0,0,0,0,0,0,0,0,0,0,0,0,0,0,0,0,0,0,0,0,0,0,0,0h0s0,.01-.01.02h0s0,0,0,0c0,0,0,0,0,0,0,0,0,0,0,0h0s0,0,0,0c0,0,0,0,0,0,0,0,0,0,0,0,0,0,0,0,0,0,0,0,0,0,0,0,0,0,0,0,0,0,0,0,0,0,0,0,0,0,0,0,0,0,0,0,0,0,0,0,0,0,0,0,0,0,0,0,0,0,0,0,0,0,0,0,0,0,0,0,0,0,0,0,0,0,0,0,0,0,0,0,0,0,0,0,0,0,0,0,0,0,0,0,0,0,0,0,0,0,0,0,0,0h0s0,0,0,0c0,0,0,0,0,0h0s0,0,0,0l-.2.21.73.68.2-.21c.68-.72,1.41-1.35,2.17-1.87l-.56-.83h0ZM235.99,146.79s-.75.8-1.4,1.49h0s0,0,0,0l-.91.97.73.68,2.32-2.47-.73-.68h0ZM231.35,151.72l-2.32,2.47.73.68,2.32-2.47-.73-.68h0ZM226.72,156.65l-1.39,1.48s0,0-.01.01h0c-.49.52-.91.98-.91.98l.73.68,2.32-2.47-.73-.68h0ZM222.08,161.59l-.6.64s0,0,0,0h-.01s0,.01,0,.01l-.03.03s0,0,0,0h0s0,.01-.01.01h0s-.02.02-.02.03h0c-.68.73-1.63,1.74-1.63,1.74l.73.68,2.32-2.47-.73-.68h0ZM217.45,166.52l-2.32,2.47.73.68,2.32-2.47-.73-.68h0ZM212.81,171.45l-2.32,2.47.73.68,2.32-2.47-.73-.68h0ZM208.17,176.38l-2.08,2.21s0,0,0,0l-.04.04s0,0,0,0h0s0,0,0,0h0s0,0-.01.01h0c-.11.12-.18.19-.18.19l.73.68,2.32-2.47-.73-.68h0ZM203.54,181.31l-1.39,1.48s0,0,0,.01h0c-.49.52-.91.98-.91.98l.73.68,2.32-2.47-.73-.68h0ZM198.9,186.24l-.64.68s0,0,0,0h0s0,.01,0,.01h0s-.02.02-.02.03h0c-.68.73-1.63,1.74-1.63,1.74l.73.68,2.32-2.47-.73-.68h0ZM194.26,191.17l-2.32,2.47.73.68,2.32-2.47-.73-.68h0ZM189.63,196.11l-2.32,2.47.73.68,2.32-2.47-.73-.68h0ZM184.99,201.04s-1.74,1.85-2.21,2.35h0s0,0,0,0h0s0,0,0,0h0s0,0,0,0h0s0,0,0,0h0s0,0,0,0h0s0,0,0,0h0s0,0,0,0h0s0,0,0,0h0s0,0,0,0h0s0,0,0,0h0s0,0,0,0h0s0,0,0,0c0,0,0,0,0,0h0s0,0,0,0h0s0,0,0,0h0s0,0,0,0h0s0,0,0,0l-.04.04.73.68,2.32-2.47-.73-.68h0ZM180.36,205.97l-2.32,2.47.73.68,2.32-2.47-.73-.68h0ZM175.72,210.9l-2.32,2.47.73.68,2.32-2.47-.73-.68h0ZM171.08,215.83h0s0,0-.03.03h0s-.02.02-.03.03h0s-.01.01-.02.02h0s0,0,0,0h0s0,0,0,0h0s0,0,0,0h0s0,0,0,0l-.02.02s0,0,0,0l-.02.02s0,0,0,0l-.03.03s0,0,0,0l-2.15,2.29.73.68,2.32-2.47-.73-.68h0ZM166.45,220.76s-.56.6-1.13,1.2h0s0,0,0,0h0s0,0,0,0l-1.18,1.25.73.68,2.32-2.47-.73-.68h0ZM161.81,225.7s-1.74,1.85-2.21,2.35h0s0,0,0,0h-.01s0,.01,0,.01h0s0,0,0,0h0s0,0,0,0h0s0,0,0,0h0s0,0,0,0h0s0,0,0,0h0s0,0,0,0h-.01s0,.01,0,.01h0s0,0,0,0h0s0,0,0,0h0s0,0,0,0h0s0,0,0,0l-.04.04.73.68,2.32-2.47-.73-.68h0ZM157.18,230.63l-1.23,1.31h0s0,0,0,0c0,0,0,0,0,0,0,0,0,0,0,0,0,0,0,0,0,0,0,0,0,0,0,0,0,0,0,0,0,0,0,0,0,0,0,0,0,0,0,0,0,0-.26.28-.52.58-.76.88,0,0,0,0,0,0,0,0,0,0,0,0,0,0,0,0,0,0,0,0,0,0,0,0,0,0,0,0,0,0,0,0,0,0,0,0,0,0,0,0,0,0,0,0,0,0,0,0-.06.08-.13.16-.19.24l.79.61c.3-.4.63-.78.96-1.13l1.23-1.31-.73-.68h0ZM153.12,236.01c-.45.88-.84,1.8-1.18,2.77h0s-.02.05-.03.08c0,0,0,0,0,0,0,0,0,.02,0,.02,0,0,0,0,0,0,0,.02-.01.03-.02.05,0,0,0,0,0,0,0,0,0,.01,0,.02,0,0,0,0,0,0,0,0,0,.01,0,.02,0,0,0,0,0,0,0,0,0,.01,0,.02,0,0,0,0,0,0,0,0,0,.01,0,.02,0,0,0,0,0,0,0,0,0,.01,0,.02,0,0,0,0,0,0,0,0,0,.01,0,.02,0,0,0,0,0,0,0,0,0,0,0,.01,0,0,0,0,0,.01,0,0,0,0,0,.01,0,0,0,0,0,0l.95.31c.35-1.05.76-2.05,1.24-2.98l-.89-.46h0ZM150.98,242.4c-.06.29-.11.58-.15.88,0,0,0,0,0,0,0,0,0,.02,0,.02h0s0,.02,0,.03c0,0,0,0,0,0,0,0,0,.02,0,.02,0,0,0,0,0,0,0,0,0,.02,0,.02,0,0,0,0,0,0,0,0,0,.01,0,.02,0,0,0,0,0,0,0,0,0,.01,0,.02,0,0,0,0,0,0,0,0,0,.01,0,.02,0,0,0,0,0,0,0,0,0,.01,0,.02,0,0,0,0,0,0,0,0,0,.01,0,.02,0,0,0,0,0,0,0,0,0,0,0,.01,0,0,0,0,0,0,0,0,0,.01,0,.02,0,0,0,0,0,0,0,0,0,.01,0,.02,0,0,0,0,0,.01,0,0,0,0,0,.01,0,0,0,0,0,.01,0,0,0,.01,0,.02,0,0,0,0,0,.01,0,0,0,0,0,0,0,0,0,.01,0,.02,0,0,0,0,0,0,0,0,0,0,0,.01,0,0,0,0,0,0,0,0,0,.01,0,.02,0,0,0,0,0,0,0,0,0,.02,0,.02,0,0,0,0,0,0,0,0,0,0,0,.01h0s0,.02,0,.03c0,0,0,0,0,0,0,.02,0,.03,0,.05,0,0,0,0,0,0,0,.01,0,.02,0,.03,0,0,0,0,0,0,0,.02,0,.03,0,.05,0,0,0,0,0,0-.01.1-.03.19-.04.29,0,0,0,0,0,0,0,.04-.01.08-.02.13,0,0,0,0,0,0,0,.01,0,.02,0,.03h0s0,.03,0,.05c0,0,0,0,0,0,0,.02,0,.03,0,.05,0,0,0,0,0,0,0,0,0,.02,0,.03h0s0,.03,0,.05h0s0,.02,0,.03c0,0,0,0,0,0,0,0,0,0,0,.01,0,0,0,0,0,0,0,0,0,.01,0,.02,0,0,0,0,0,0,0,0,0,.01,0,.02,0,0,0,0,0,.01,0,0,0,0,0,.01,0,0,0,0,0,.01,0,0,0,.01,0,.02h0s0,.02,0,.02c0,0,0,.01,0,.02,0,0,0,0,0,0,0,0,0,.01,0,.02,0,0,0,0,0,0,0,0,0,.01,0,.02,0,0,0,0,0,0,0,0,0,.01,0,.02,0,0,0,0,0,0,0,0,0,.01,0,.02,0,0,0,0,0,0,0,0,0,.02,0,.02,0,0,0,0,0,0,0,.02,0,.03,0,.05,0,0,0,0,0,0,0,0,0,.02,0,.03h0c-.03.26-.05.51-.07.77l1,.07c.08-1.1.22-2.19.42-3.24l-.98-.19h0ZM151.48,249.1l-1,.04c0,.1,0,.2.01.3,0,0,0,0,0,0,0,.02,0,.03,0,.05,0,0,0,0,0,0,0,0,0,.02,0,.02,0,0,0,0,0,0,0,0,0,0,0,.01,0,0,0,0,0,0,0,0,0,.01,0,.02,0,0,0,0,0,.01,0,0,0,0,0,.01,0,0,0,.01,0,.02,0,0,0,0,0,0,0,0,0,0,0,.01,0,0,0,0,0,0,0,0,0,.01,0,.02,0,0,0,0,0,0,0,0,0,.01,0,.02,0,0,0,0,0,0,0,0,0,.01,0,.02,0,0,0,0,0,0,0,0,0,.02,0,.02h0s0,.02,0,.02c0,0,0,0,0,0,0,0,0,.02,0,.02,0,0,0,0,0,0,0,0,0,.02,0,.02,0,0,0,0,0,0,0,0,0,.02,0,.02,0,0,0,0,0,0,0,0,0,.02,0,.02h0s0,.02,0,.03c0,0,0,0,0,0,0,.02,0,.03,0,.05,0,0,0,0,0,0,.02.26.04.53.06.79h0s0,.03,0,.05h0s0,.02,0,.03h0s0,.02,0,.03h0s0,.02,0,.03c0,0,0,0,0,0,0,.02,0,.03,0,.05,0,0,0,0,0,0,0,.02,0,.03,0,.05,0,0,0,0,0,0,0,0,0,.02,0,.02,0,0,0,0,0,0,0,0,0,.01,0,.02,0,0,0,0,0,0,0,0,0,.02,0,.02,0,0,0,0,0,0,0,0,0,.01,0,.02,0,0,0,0,0,0,0,0,0,.01,0,.02,0,0,0,0,0,0,0,0,0,.01,0,.02,0,0,0,0,0,0,0,0,0,.01,0,.02,0,0,0,0,0,0,0,0,0,.01,0,.02,0,0,0,0,0,0,0,0,0,0,0,.01,0,0,0,0,0,0,0,0,0,.01,0,.02,0,0,0,0,0,.01,0,0,0,0,0,.01,0,0,0,0,0,0,0,0,0,.01,0,.02,0,0,0,0,0,.01,0,0,0,0,0,.01,0,0,0,.01,0,.02,0,0,0,0,0,0,0,0,0,0,0,.01,0,0,0,0,0,0,0,0,0,.01,0,.02,0,0,0,0,0,0,0,0,0,0,0,.01,0,0,0,0,0,0,0,0,0,.02,0,.03,0,0,0,0,0,0,0,.02,0,.03,0,.05,0,0,0,0,0,0,0,.01,0,.02,0,.03,0,0,0,0,0,0,0,0,0,.01,0,.02,0,0,0,0,0,0,0,.01,0,.02,0,.03,0,0,0,0,0,0,.04.31.08.62.12.93l.99-.14c-.16-1.08-.25-2.18-.29-3.26h0ZM152.42,255.58l-.97.25c.03.12.06.24.09.36h0s0,.02,0,.03c0,0,0,0,0,0v.02s0,0,0,0c0,0,0,.02,0,.02,0,0,0,0,0,0,0,0,0,.01,0,.02,0,0,0,0,0,0,0,0,0,.01,0,.02,0,0,0,0,0,0,0,0,0,.01,0,.02,0,0,0,0,0,0,0,0,0,.01,0,.02,0,0,0,0,0,0,0,0,0,.01,0,.02,0,0,0,0,0,0,0,0,0,0,0,.01,0,0,0,0,0,0,0,0,0,.01,0,.02,0,0,0,0,0,.01,0,0,0,0,0,.01,0,0,0,0,0,.01,0,0,0,.01,0,.02,0,0,0,0,0,.01,0,0,0,0,0,0,0,0,0,.01,0,.02,0,0,0,0,0,0,0,0,0,0,0,.01,0,0,0,0,0,0,0,0,0,.02,0,.02,0,0,0,0,0,0,0,0,0,0,0,.01,0,0,0,0,0,0,0,.01,0,.02,0,.03,0,0,0,0,0,0,0,.02,0,.03.01.05,0,0,0,0,0,0,0,.03.02.06.03.1,0,0,0,0,0,0,.08.26.15.52.24.78,0,0,0,0,0,0,.01.04.03.08.04.13,0,0,0,0,0,0,0,0,0,.01,0,.02,0,0,0,0,0,0,0,.01,0,.02,0,.03,0,0,0,0,0,0,0,.01,0,.03.01.04,0,0,0,0,0,0,0,.01,0,.03.01.04,0,0,0,0,0,0,0,0,0,.02,0,.02,0,0,0,0,0,0,0,0,0,0,0,.01,0,0,0,0,0,0,0,0,0,.01,0,.02,0,0,0,0,0,0,0,0,0,0,0,.01,0,0,0,0,0,0,0,0,0,.01,0,.02,0,0,0,0,0,.01,0,0,0,0,0,.01,0,0,0,0,0,.01,0,0,0,0,0,.01,0,0,0,0,0,.01,0,0,0,0,0,0,0,0,0,.01,0,.02,0,0,0,0,0,0,0,0,0,0,0,.01,0,0,0,0,0,0v.02s0,0,0,0c0,0,0,.01,0,.02,0,0,0,0,0,0,0,0,0,.01,0,.02,0,0,0,0,0,0,0,0,0,.01,0,.02,0,0,0,0,0,0,0,0,0,.01,0,.02,0,0,0,0,0,0,0,0,0,.01,0,.02,0,0,0,0,0,0,0,0,0,.01,0,.02,0,0,0,0,0,0,0,0,0,.01,0,.02,0,0,0,0,0,0,0,0,0,.01,0,.02,0,0,0,0,0,0,0,0,0,.02,0,.02h0s0,.02,0,.02h0s0,.02,0,.03c0,0,0,0,0,0,0,.02.01.03.02.05h0c.07.21.15.42.23.62l.94-.35c-.38-1.01-.71-2.06-.98-3.12h0ZM154.72,261.69l-.89.46c.16.31.33.62.5.93l1.15,2.03.87-.49-1.15-2.02c-.17-.29-.33-.59-.48-.89h0ZM158.02,267.55l-.87.49.48.85s0,0,0,0v.02s.02,0,.02,0h0s0,.02,0,.02h0s0,.01,0,.02h0s0,0,0,0h0c.49.88,1.14,2.02,1.14,2.02l.87-.49-1.67-2.94h0ZM161.36,273.44l-.87.49.33.58c.49.86,1.35,2.37,1.35,2.37l.87-.49-1.67-2.94h0ZM164.71,279.32l-.87.49.12.21s0,0,0,.01h0s0,.01,0,.01h0s0,0,0,0h0s0,.01,0,.01c0,0,0,0,0,0h0s0,0,0,0h0s0,.01,0,.01h0c.42.73,1.51,2.67,1.51,2.67l.87-.49-1.67-2.94h0ZM168.05,285.21l-.87.49h0s1.67,2.94,1.67,2.94l.87-.49-1.67-2.94h0ZM171.4,291.09l-.87.49,1.56,2.74s0,0,0,0v.02s.01,0,.01,0h0s0,0,0,0h0s0,0,0,0h0s0,0,0,0h0s0,.02,0,.02h0s0,0,0,0h0s0,0,0,0h0s0,0,0,0h0c.05.08.07.13.07.13l.87-.49-1.67-2.94h0ZM174.74,296.98l-.87.49,1.4,2.47s0,0,0,0v.02c.17.27.27.45.27.45l.87-.49-1.67-2.94h0ZM178.08,302.86l-.87.49,1.19,2.1s0,0,0,0v.02s.01,0,.01,0h0s0,0,0,0v.02s.01,0,.02,0h0c.25.45.45.79.45.79l.87-.49-1.67-2.94h0ZM181.43,308.75l-.87.49,1.03,1.82s0,0,0,.01h0c.34.6.63,1.11.63,1.11l.87-.49-1.67-2.94h0ZM184.77,314.63l-.87.49.86,1.52s0,0,0,0h0s0,.01,0,.02h0s0,0,0,.01h0s0,0,0,.01h0c.4.71.79,1.39.79,1.39l.87-.49-1.67-2.94h0ZM188.11,320.52l-.87.49.69,1.21s0,0,0,0h0s0,.01,0,.02h0c.46.81.97,1.71.97,1.71l.87-.49-1.67-2.94h0ZM191.45,326.39l-.86.5c.59,1.01,1.22,1.95,1.89,2.8l.79-.62c-.65-.82-1.26-1.73-1.82-2.69h0ZM195.45,331.45l-.68.74c.64.59,1.31,1.12,1.98,1.58,0,0,0,0,0,0,0,0,0,0,0,0h0s.02.01.03.02c0,0,0,0,0,0,0,0,0,0,0,0,0,0,0,0,0,0,0,0,0,0,0,0,0,0,0,0,0,0,0,0,0,0,.01,0,0,0,0,0,0,0,0,0,0,0,0,0h0s0,0,0,0c0,0,0,0,0,0,0,0,0,0,0,0,0,0,0,0,.01,0h0s0,0,0,0c0,0,0,0,0,0,0,0,0,0,0,0,0,0,0,0,0,0,0,0,.02.01.03.02,0,0,0,0,0,0,0,0,0,0,.01,0,0,0,0,0,0,0,.01,0,.03.02.04.03,0,0,0,0,0,0,.16.1.31.2.47.3l.52-.86c-.88-.53-1.73-1.17-2.54-1.92h0ZM200.84,334.66l-.3.95c1.1.34,2.22.53,3.33.55l.02-1c-1.01-.02-2.04-.19-3.05-.5h0ZM209.72,333.44c-.89.58-1.83,1.02-2.79,1.31l.29.96c.06-.02.11-.03.17-.05,0,0,0,0,0,0,0,0,.02,0,.02,0,0,0,0,0,0,0,0,0,0,0,0,0,0,0,0,0,0,0,0,0,0,0,.01,0,0,0,0,0,0,0,0,0,0,0,0,0,0,0,0,0,0,0,0,0,0,0,0,0,0,0,0,0,0,0,0,0,0,0,0,0,0,0,0,0,0,0,0,0,0,0,0,0,0,0,0,0,0,0,0,0,0,0,0,0,0,0,0,0,0,0,0,0,0,0,0,0,0,0,0,0,0,0,0,0,0,0,0,0,0,0,.01,0,.02,0,0,0,0,0,0,0h0s0,0,0,0c0,0,0,0,.01,0h0s0,0,.01,0c0,0,0,0,0,0,0,0,.02,0,.02,0,0,0,0,0,0,0,.7-.24,1.38-.54,2.05-.92h0s.02-.01.03-.02c0,0,0,0,0,0,0,0,.01,0,.02-.01,0,0,0,0,0,0,0,0,0,0,0,0,0,0,0,0,0,0,0,0,0,0,.01,0,0,0,0,0,0,0,0,0,0,0,0,0,0,0,0,0,0,0,0,0,0,0,0,0,0,0,0,0,0,0,0,0,0,0,0,0,0,0,0,0,0,0,0,0,0,0,0,0,0,0,0,0,0,0,0,0,0,0,0,0,0,0,0,0,0,0,0,0,0,0,0,0,0,0,0,0,0,0,0,0,0,0,0,0,0,0,.01,0,.02-.01,0,0,0,0,0,0,0,0,0,0,0,0h0s.02,0,.02-.01c0,0,0,0,0,0,.14-.08.27-.17.41-.26l-.55-.84h0ZM214.43,328.94l-2.32,2.47.73.68,2.32-2.47-.73-.68h0ZM219.06,324.01l-2.32,2.47.73.68s.8-.85,1.46-1.55h0s0,0,0,0h0s0-.01,0-.02h0s0,0,0,0h0s0,0,0,0h0s0-.01,0-.01h0s0,0,0,0h.01s0-.02,0-.02l.06-.06s0,0,0,0l.73-.77-.73-.68h0ZM223.7,319.08l-2.32,2.47.73.68,2.32-2.47-.73-.68h0ZM228.33,314.14l-2.32,2.47.73.68,2.32-2.47-.73-.68h0ZM232.97,309.21l-2.32,2.47.73.68,2.32-2.47-.73-.68h0ZM237.61,304.28l-2.32,2.47.73.68,2.06-2.19s0,0,0,0h0s0,0,0,0h0s0,0,0,0h0s0,0,0-.01h0s0,0,0,0h0s0-.01.01-.02h0c.13-.14.21-.23.21-.23l-.73-.68h0ZM242.24,299.35l-2.32,2.47.73.68,2.32-2.47-.73-.68h0ZM246.88,294.42l-2.32,2.47.73.68.66-.7s.02-.02.02-.02h0c.68-.73,1.63-1.74,1.63-1.74l-.73-.68h0ZM251.51,289.48l-2.32,2.47.73.68,2.32-2.47-.73-.68h0ZM256.15,284.55l-2.32,2.47.73.68,2.32-2.47-.73-.68h0ZM260.78,279.62l-2.32,2.47.73.68s.14-.15.36-.38h0s.01-.02.02-.02h0s.01-.01.02-.02h0s.03-.03.04-.04h0s.01-.02.02-.03h0s.01-.02.02-.02h0s.01-.02.02-.02h0s.01-.01.02-.02v-.02s.02,0,.03-.01h0s0,0,0-.01h0s0-.01,0-.01h0s.01-.02.02-.03h0s.01-.01.02-.02h.01s0-.02,0-.02h0s0,0,0,0h.01s0-.02,0-.02h0s0,0,0-.01h0s0,0,0,0h0s0,0,0,0h0s0,0,0,0l.04-.05s0,0,0,0h0s0,0,0,0l.05-.05s0,0,0,0l.02-.02s0,0,0,0l1.5-1.59-.73-.68h0ZM265.42,274.69l-2.32,2.47.73.68,2.32-2.47-.73-.68h0ZM270.06,269.76l-2.32,2.47.73.68,2.32-2.47-.73-.68h0ZM274.69,264.82l-2.32,2.47.73.68,2.32-2.47-.73-.68h0ZM279.33,259.89l-2.32,2.47.73.68,2.32-2.47-.73-.68h0ZM283.96,254.96l-2.32,2.47.73.68,2.32-2.47-.73-.68h0ZM288.6,250.03l-2.32,2.47.73.68,2.32-2.47-.73-.68h0ZM293.23,245.1l-2.32,2.47.73.68,2.32-2.47-.73-.68h0ZM297.18,239.97c-.51.97-1.09,1.88-1.73,2.69l.79.62s.01-.01.02-.02c0,0,0,0,0,0,0,0,0,0,0,0,0,0,0,0,0,0,0,0,0,0,0,0,0,0,0,0,0,0,0,0,0,0,0,0,0,0,0,0,0,0,0,0,0,0,0,0,0,0,0,0,0,0,0,0,0,0,0,0,0,0,0,0,0,0,0,0,0,0,0,0,0,0,0,0,0,0,.01-.02.03-.04.04-.06h0s0,0,0-.01c0,0,0,0,0,0,0,0,0,0,0-.01,0,0,0,0,0,0,0,0,0,0,0-.01h0c.38-.5.74-1.02,1.07-1.57,0,0,0,0,0,0,0,0,0,0,0-.01,0,0,0,0,0,0,0,0,0,0,0-.01,0,0,0,0,0,0,0,0,0,0,0-.01,0,0,0,0,0,0,0,0,0,0,0,0,0,0,0,0,0,0,0-.02.02-.03.03-.05,0,0,0,0,0,0,0,0,0,0,0,0,0,0,0,0,0,0,0,0,0,0,0,0,0,0,0,0,0,0,0,0,0,0,0,0,0,0,0,0,0,0,0,0,0,0,0,0,0,0,0,0,0,0,0,0,0,0,0,0,0,0,0,0,0,0,0,0,0,0,0,0,0,0,0,0,0,0,0,0,0,0,0,0,0,0,0,0,0,0,0,0,0,0,0,0,0,0,0,0,0-.01,0,0,0,0,0,0,0,0,0,0,0,0,0,0,0,0,0,0,0,0,0,0,0,0,0,0,0,0,0,0,0,0,0,0,0,0,0,0,0,0,0,0,0,0,0,0,0,0,0,0,0,0,0,0,0,0,0,0,0,0,0,0,0,0,0,0,0,0,0,0,0,0,0,0,0,0,0,0,0,0,0,0,0,0,0,0,0,0,0,0,0,0,0,0,0,0,0,0,0,0,0,0,0,0,0,0,0,0,0,0,0,0,0,0,0,0,0-.01.01-.02,0,0,0,0,0,0,0,0,0,0,0-.01h0s0,0,0-.01c0,0,0,0,0,0,0,0,0,0,0,0,0,0,0,0,0,0,0,0,0,0,0,0,0,0,0,0,0,0,0,0,0,0,0,0,0,0,0,0,0,0,0,0,0,0,0-.01h0c.13-.22.25-.45.37-.68l-.89-.46h0ZM299.28,233.86c-.22,1.09-.5,2.14-.84,3.14l.95.32s0,0,0,0c0,0,0-.01,0-.02,0,0,0,0,0,0v-.02s0,0,0,0c0,0,0-.01,0-.02,0,0,0,0,0,0,0,0,0-.01,0-.02,0,0,0,0,0,0,0,0,0-.01,0-.02,0,0,0,0,0,0,0,0,0,0,0-.01,0,0,0-.01,0-.02,0,0,0,0,0-.01,0,0,0,0,0-.01,0,0,0-.01,0-.02,0,0,0,0,0-.01,0,0,0,0,0,0,0,0,0-.01,0-.02,0,0,0,0,0,0,0,0,0-.02,0-.02,0,0,0,0,0,0,0,0,0,0,0-.01,0,0,0,0,0,0,0,0,0-.02,0-.02,0,0,0,0,0,0,0-.01,0-.03.01-.04,0,0,0,0,0,0,0,0,0-.02,0-.03,0,0,0,0,0,0,0-.02.02-.05.02-.07,0,0,0,0,0,0,0-.02.02-.05.02-.07,0,0,0,0,0,0,.03-.1.06-.2.09-.3,0,0,0,0,0,0,0,0,0-.02,0-.03,0,0,0,0,0,0,0-.01,0-.03.01-.04,0,0,0,0,0,0,0,0,0-.02,0-.03,0,0,0,0,0,0,0-.01,0-.03.01-.04,0,0,0,0,0,0,0,0,0-.02,0-.03,0,0,0,0,0,0,0,0,0-.02,0-.02,0,0,0,0,0,0,0,0,0,0,0-.01,0,0,0,0,0,0,0,0,0-.01,0-.02,0,0,0,0,0,0,0,0,0-.01,0-.02,0,0,0,0,0,0,0,0,0,0,0-.01,0,0,0,0,0-.01,0,0,0-.01,0-.02,0,0,0,0,0,0,0,0,0-.01,0-.02,0,0,0,0,0-.01,0,0,0,0,0-.01,0,0,0-.01,0-.02,0,0,0,0,0,0,0,0,0,0,0-.01,0,0,0,0,0-.01,0,0,0-.01,0-.02,0,0,0,0,0,0,0,0,0-.01,0-.02,0,0,0,0,0,0,0,0,0-.01,0-.02,0,0,0,0,0,0,0,0,0-.01,0-.02,0,0,0,0,0,0,0,0,0-.01,0-.02,0,0,0,0,0,0,0,0,0-.01,0-.02,0,0,0,0,0,0,0,0,0-.01,0-.02,0,0,0,0,0,0,0,0,0-.01,0-.02,0,0,0,0,0,0,0,0,0-.02,0-.02h0s0-.02,0-.02c0,0,0,0,0,0,0,0,0-.02,0-.02,0,0,0,0,0,0,0-.03.01-.05.02-.08,0,0,0,0,0,0,.15-.55.27-1.1.38-1.66l-.98-.19h0ZM300.79,227.32l-1,.03c.03,1.1,0,2.2-.08,3.27l1,.08c0-.09.01-.17.02-.26h0s0-.03,0-.05c0,0,0,0,0,0,0-.02,0-.03,0-.05h0s0-.02,0-.03c0,0,0,0,0,0,0-.02,0-.03,0-.05,0,0,0,0,0,0,0,0,0-.02,0-.02h0s0-.02,0-.02c0,0,0,0,0,0,0,0,0-.02,0-.02,0,0,0,0,0,0,0,0,0-.02,0-.02h0s0-.02,0-.02c0,0,0,0,0,0,0,0,0-.02,0-.02h0s0-.02,0-.02c0,0,0,0,0,0,0,0,0-.02,0-.02,0,0,0,0,0,0,0,0,0-.01,0-.02,0,0,0,0,0,0,0,0,0-.02,0-.02,0,0,0,0,0,0,0,0,0-.02,0-.02,0,0,0,0,0,0,0,0,0-.01,0-.02,0,0,0,0,0,0,0,0,0-.01,0-.02,0,0,0,0,0,0,0,0,0-.01,0-.02,0,0,0,0,0,0,0,0,0-.01,0-.02,0,0,0,0,0,0,0,0,0-.01,0-.02,0,0,0,0,0,0,0,0,0-.01,0-.02,0,0,0,0,0,0,0,0,0-.01,0-.02,0,0,0,0,0,0,0,0,0-.01,0-.02,0,0,0,0,0,0,0,0,0-.01,0-.02,0,0,0,0,0,0,0,0,0-.01,0-.02,0,0,0,0,0,0,0,0,0-.01,0-.02,0,0,0,0,0,0,0,0,0-.01,0-.02,0,0,0,0,0,0v-.02s0,0,0,0c0,0,0-.01,0-.02,0,0,0,0,0,0,0,0,0-.01,0-.02,0,0,0,0,0,0,0,0,0-.01,0-.02,0,0,0,0,0,0,0,0,0-.01,0-.02,0,0,0,0,0,0,0,0,0-.01,0-.02,0,0,0,0,0,0,0,0,0-.01,0-.02,0,0,0,0,0,0,0,0,0-.01,0-.02,0,0,0,0,0,0,0,0,0-.01,0-.02,0,0,0,0,0,0,0,0,0-.01,0-.02,0,0,0,0,0,0,0,0,0-.01,0-.02,0,0,0,0,0,0v-.02s0,0,0,0c0,0,0-.01,0-.02,0,0,0,0,0,0,0,0,0-.01,0-.02,0,0,0,0,0,0,0,0,0-.01,0-.02,0,0,0,0,0,0,0,0,0-.01,0-.02,0,0,0,0,0,0,0,0,0-.01,0-.02,0,0,0,0,0,0,0,0,0-.01,0-.02,0,0,0,0,0,0,0,0,0-.01,0-.02,0,0,0,0,0,0,0,0,0-.01,0-.02,0,0,0,0,0,0,0,0,0-.01,0-.02,0,0,0,0,0,0v-.02s0,0,0,0c0,0,0-.01,0-.02,0,0,0,0,0,0,0,0,0-.01,0-.02,0,0,0,0,0,0,0,0,0-.01,0-.02,0,0,0,0,0,0,0,0,0-.01,0-.02,0,0,0,0,0,0v-.02s0,0,0,0c0,0,0-.01,0-.02,0,0,0,0,0,0,0,0,0-.01,0-.02,0,0,0,0,0,0,0,0,0-.01,0-.02,0,0,0,0,0,0,0,0,0-.02,0-.02,0,0,0,0,0,0,0,0,0-.02,0-.02,0,0,0,0,0,0,0,0,0-.01,0-.02,0,0,0,0,0,0,0,0,0-.02,0-.02,0,0,0,0,0,0,0,0,0-.01,0-.02,0,0,0,0,0,0,0,0,0-.02,0-.02,0,0,0,0,0,0,0,0,0-.02,0-.02h0s0-.02,0-.02c0,0,0,0,0,0,0,0,0-.02,0-.02,0,0,0,0,0,0,0,0,0-.01,0-.02,0,0,0,0,0,0,0,0,0-.02,0-.02,0,0,0,0,0,0,0-.02,0-.03,0-.05,0,0,0,0,0,0,0,0,0-.02,0-.02,0,0,0,0,0,0,0,0,0-.02,0-.02h0s0-.02,0-.03h0s0-.04,0-.05c0,0,0,0,0,0v-.05s0,0,0,0c0-.03,0-.05,0-.08h0s0-.05,0-.08h0s0-.04,0-.05h0c0-.27,0-.53-.01-.8h0ZM299.87,220.63l-.97.24c.26,1.05.47,2.14.62,3.22l.99-.14c-.1-.75-.23-1.5-.39-2.25,0,0,0,0,0,0,0-.02,0-.03-.01-.05,0,0,0,0,0,0,0-.01,0-.02,0-.03,0,0,0,0,0,0,0,0,0,0,0-.02,0,0,0,0,0,0,0,0,0-.02,0-.03,0,0,0,0,0,0,0,0,0,0,0-.01,0,0,0,0,0,0,0,0,0-.02,0-.02,0,0,0,0,0,0,0,0,0,0,0-.01,0,0,0,0,0,0,0,0,0-.02,0-.02,0,0,0,0,0,0,0,0,0-.01,0-.02,0,0,0,0,0-.01,0,0,0,0,0-.01,0,0,0,0,0-.01,0,0,0,0,0-.01,0,0,0-.01,0-.02,0,0,0,0,0,0,0,0,0-.01,0-.02,0,0,0,0,0-.01,0,0,0-.01,0-.02,0,0,0,0,0,0,0,0,0-.01,0-.02,0,0,0,0,0,0,0,0,0-.01,0-.02,0,0,0,0,0,0,0,0,0-.01,0-.02,0,0,0,0,0,0,0,0,0-.01,0-.02,0,0,0,0,0,0,0,0,0-.01,0-.02,0,0,0,0,0,0,0,0,0-.01,0-.02,0,0,0,0,0,0,0,0,0-.01,0-.02,0,0,0,0,0,0,0,0,0-.02,0-.02h0s0-.02,0-.02c0,0,0,0,0,0,0-.02,0-.03-.01-.05,0,0,0,0,0,0,0,0,0-.02,0-.02,0,0,0,0,0,0,0,0,0-.02,0-.02,0,0,0,0,0,0,0,0,0-.02,0-.02,0,0,0,0,0,0,0-.02,0-.03-.01-.05h0c-.02-.1-.05-.19-.07-.28h0ZM297.54,214.29l-.89.45c.48.96.92,1.96,1.3,3l.94-.35c-.16-.43-.32-.85-.5-1.26,0,0,0,0,0,0-.01-.03-.02-.05-.03-.08,0,0,0,0,0,0,0-.02-.01-.03-.02-.05,0,0,0,0,0,0-.25-.58-.51-1.15-.8-1.71h0ZM294.22,208.39l-.87.49,1.67,2.94.87-.49-.96-1.68s0,0,0,0h0s0-.01,0-.02h0c-.37-.65-.7-1.23-.7-1.23h0ZM290.88,202.51l-.87.49,1.67,2.94.87-.49-.53-.94s0,0,0,0h0c-.49-.87-1.13-2-1.13-2h0ZM287.53,196.62l-.87.49,1.67,2.94.87-.49-1.67-2.94h0ZM284.19,190.74l-.87.49,1.67,2.94.87-.49s-.2-.35-.46-.8h0s-.01-.02-.02-.03h0s0-.01,0-.02h0s0,0,0,0l-1.19-2.09h0ZM280.84,184.85l-.87.49,1.67,2.94.87-.49s-.58-1.02-1.06-1.86h0s0,0,0-.01h0s0,0,0,0h0s0,0,0,0h0s0,0,0,0l-.59-1.04h0ZM277.5,178.97l-.87.49,1.67,2.94.87-.49s-1.28-2.25-1.6-2.82h0s-.02-.04-.03-.05h0s0-.02-.01-.02h0s0,0,0,0h0s0,0,0,0h0s0,0,0,0h0s0-.01,0-.01h0s0,0,0,0h0s0,0,0,0h0s0,0,0,0h0s0,0,0,0h0s0,0,0,0h0s0,0,0,0h0ZM274.16,173.08l-.87.49,1.67,2.94.87-.49-1.67-2.94h0ZM270.81,167.2l-.87.49,1.67,2.94.87-.49-1.67-2.94h0ZM267.47,161.31l-.87.49,1.67,2.94.87-.49-1.67-2.94h0ZM264.13,155.43l-.87.49,1.67,2.94.87-.49-1.59-2.79s0,0,0,0h0s0,0,0,0h0s0,0,0,0v-.02s-.01,0-.01,0h0s0,0,0,0h0s0-.01,0-.02h0c-.04-.06-.06-.1-.06-.1h0ZM260.78,149.54l-.87.5.07.13,1.6,2.81.87-.49-1.54-2.7h0s0-.01,0-.01h0s0-.02-.01-.02h0s-.02-.03-.02-.04h0s-.02-.03-.02-.03h0s-.03-.06-.05-.09c0,0,0,0,0,0,0,0,0,0,0,0,0,0,0,0,0-.01h0s0-.01,0-.02h0ZM256.64,144.21l-.68.73c.76.71,1.48,1.51,2.16,2.39l.79-.61c-.72-.93-1.48-1.77-2.27-2.51h0ZM250.92,140.71l-.31.95c.96.32,1.92.77,2.84,1.34l.53-.85c-.99-.62-2.02-1.1-3.05-1.44h0ZM247.21,140.1h0v1c.12,0,.24,0,.36,0l.04-1c-.13,0-.26,0-.39,0h0Z"/>
    </g>
    <text class="st12" transform="translate(162.28 260.3) rotate(59.75) scale(.64 .96) skewX(24.43)"><tspan x="0" y="0">B</tspan></text>
    <g>
      <path class="st14" d="M202.43,402.29c-1.8,0-3.69-.52-5.64-1.55l-58.77-30.9c-9.19-4.87-16.64-19.61-16.6-32.86l.68-167.27c.03-9.84,4.31-16.45,10.65-16.45,1.8,0,3.69.52,5.64,1.55l58.77,30.9c9.19,4.87,16.64,19.61,16.6,32.86l-.67,167.27c-.04,9.84-4.33,16.45-10.66,16.45Z"/>
      <path d="M132.75,152.75v1c1.71,0,3.53.5,5.4,1.5l58.77,30.9c9.05,4.79,16.38,19.34,16.34,32.41l-.67,167.27c-.04,9.54-4.12,15.96-10.16,15.96-1.71,0-3.53-.5-5.4-1.5l-58.77-30.9c-9.05-4.79-16.38-19.34-16.34-32.41l.68-167.27c.03-9.54,4.11-15.95,10.15-15.96v-1M132.75,152.75c-6.48,0-11.11,6.48-11.15,16.95l-.68,167.27c-.04,13.44,7.51,28.34,16.87,33.3l58.77,30.9c2.06,1.09,4.04,1.61,5.87,1.61,6.47,0,11.11-6.48,11.16-16.95l.67-167.27c.04-13.44-7.51-28.34-16.87-33.3l-58.77-30.9c-2.06-1.09-4.04-1.61-5.87-1.61h0Z"/>
    </g>
    <text class="st12" transform="translate(130.64 304.32) rotate(26.81) scale(.64 .89) skewX(35.18)"><tspan x="0" y="0">A</tspan></text>
  </g>
  <polygon class="st3" points="310.27 184.98 54.45 83.74 54.33 374.3 309.58 475.78 310.27 184.98"/>
  <g class="st16">
    <g>
      <g>
        <g>
          <path class="st15" d="M256.09,333.93c-7.86,0-15.38-8.52-17.5-19.81l-14.71-77.51c-1.36-7.26-.18-14.4,3.15-19.08,1.99-2.8,4.61-4.5,7.58-4.94l105.65-15.27c.5-.07,1-.11,1.51-.11,7.84,0,15.35,8.51,17.47,19.81l14.71,77.51c1.36,7.26.18,14.4-3.15,19.08-1.99,2.79-4.62,4.5-7.58,4.94l-105.64,15.29c-.49.07-.99.11-1.48.11Z"/>
          <path d="M341.77,197.71h0c7.48,0,14.94,8.52,16.98,19.4l14.71,77.51c1.34,7.13.19,14.12-3.07,18.69-1.91,2.68-4.42,4.32-7.24,4.73l-105.65,15.29c-.46.07-.94.1-1.41.1-7.5,0-14.97-8.52-17.01-19.41l-14.71-77.51c-1.34-7.13-.19-14.12,3.07-18.69,1.91-2.68,4.42-4.32,7.24-4.73l105.65-15.27c.47-.07.95-.1,1.43-.1M341.77,196.71c-.53,0-1.05.04-1.58.12l-105.65,15.27c-8.48,1.25-13.47,12.26-11.15,24.6l14.71,77.51c2.18,11.59,10.02,20.22,17.99,20.22.52,0,1.04-.04,1.55-.11l105.65-15.29c8.48-1.25,13.47-12.26,11.15-24.6l-14.71-77.51c-2.17-11.58-10.01-20.21-17.96-20.21h0Z"/>
        </g>
        <text class="st11" transform="translate(243.98 247.02) rotate(78.7) scale(.64 1) skewX(-4.03)"><tspan x="0" y="0">C</tspan></text>
      </g>
      <g>
        <path class="st15" d="M204.07,335.67c-4.98,0-9.92-3.48-13.22-9.32l-36.09-63.52c-5.62-9.94-4.92-23.64,1.54-30.55l82.56-87.82c2.37-2.53,5.25-3.86,8.33-3.86,4.98,0,9.92,3.49,13.22,9.32l36.09,63.52c5.62,9.94,4.92,23.64-1.54,30.55l-82.55,87.83c-2.37,2.52-5.26,3.85-8.34,3.85Z"/>
        <path d="M247.21,141.1h0c4.79,0,9.57,3.39,12.78,9.07l36.09,63.51c5.52,9.76,4.86,23.2-1.47,29.96l-82.56,87.83c-2.27,2.42-5.03,3.69-7.98,3.69-4.8,0-9.57-3.39-12.78-9.07l-36.09-63.51c-5.52-9.76-4.86-23.2,1.47-29.96l82.57-87.83c2.27-2.42,5.02-3.7,7.97-3.7M247.21,140.1c-3.11,0-6.16,1.3-8.7,4.02l-82.56,87.82c-6.62,7.07-7.34,21-1.61,31.14l36.09,63.51c3.53,6.24,8.67,9.58,13.65,9.58,3.11,0,6.16-1.3,8.71-4.01l82.56-87.83c6.62-7.07,7.34-21,1.61-31.14l-36.09-63.51c-3.52-6.24-8.67-9.58-13.65-9.58h0Z"/>
      </g>
      <text class="st12" transform="translate(162.28 260.3) rotate(59.75) scale(.64 .96) skewX(24.43)"><tspan x="0" y="0">B</tspan></text>
      <g>
        <path class="st15" d="M202.43,402.29c-1.8,0-3.69-.52-5.64-1.55l-58.77-30.9c-9.19-4.87-16.64-19.61-16.6-32.86l.68-167.27c.03-9.84,4.31-16.45,10.65-16.45,1.8,0,3.69.52,5.64,1.55l58.77,30.9c9.19,4.87,16.64,19.61,16.6,32.86l-.67,167.27c-.04,9.84-4.33,16.45-10.66,16.45Z"/>
        <path d="M132.75,152.75v1c1.71,0,3.53.5,5.4,1.5l58.77,30.9c9.05,4.79,16.38,19.34,16.34,32.41l-.67,167.27c-.04,9.54-4.12,15.96-10.16,15.96-1.71,0-3.53-.5-5.4-1.5l-58.77-30.9c-9.05-4.79-16.38-19.34-16.34-32.41l.68-167.27c.03-9.54,4.11-15.95,10.15-15.96v-1M132.75,152.75c-6.48,0-11.11,6.48-11.15,16.95l-.68,167.27c-.04,13.44,7.51,28.34,16.87,33.3l58.77,30.9c2.06,1.09,4.04,1.61,5.87,1.61,6.47,0,11.11-6.48,11.16-16.95l.67-167.27c.04-13.44-7.51-28.34-16.87-33.3l-58.77-30.9c-2.06-1.09-4.04-1.61-5.87-1.61h0Z"/>
      </g>
      <text class="st12" transform="translate(130.64 304.32) rotate(26.81) scale(.64 .89) skewX(35.18)"><tspan x="0" y="0">A</tspan></text>
    </g>
  </g>
  <g class="st2">
    <line class="st3" x1="112.9" y1="348.45" x2="54.33" y2="372.22"/>
  </g>
  <g class="st13">
    <line class="st3" x1="309.18" y1="382.82" x2="193.54" y2="429.76"/>
  </g>
  <g>
    <line class="st5" x1="201.45" y1="406.17" x2="227.48" y2="416.52"/>
    <g class="st8">
      <line class="st5" x1="233.73" y1="392.44" x2="259.75" y2="402.79"/>
      <line class="st5" x1="268.87" y1="377.65" x2="294.9" y2="387.99"/>
    </g>
  </g>
</svg>