<?xml version="1.0" encoding="UTF-8"?>
<svg id="Layer_1" xmlns="http://www.w3.org/2000/svg" xmlns:xlink="http://www.w3.org/1999/xlink" version="1.1" viewBox="0 0 454.55 523.82">
  <!-- Generator: Adobe Illustrator 30.2.1, SVG Export Plug-In . SVG Version: 2.1.1 Build 1)  -->
  <defs>
    <style>
      .st0, .st1, .st2 {
        fill: none;
      }

      .st3 {
        mask: url(#mask);
      }

      .st4 {
        fill: #a8ffc1;
      }

      .st4, .st1, .st5, .st2, .st6 {
        stroke-miterlimit: 10;
      }

      .st4, .st5, .st2 {
        stroke: #231f20;
        stroke-dasharray: 3.38;
        stroke-width: 1.69px;
      }

      .st4, .st5, .st7 {
        opacity: .5;
      }

      .st1 {
        stroke: #fff;
      }

      .st8 {
        fill: url(#linear-gradient);
      }

      .st9 {
        font-size: 21.11px;
      }

      .st9, .st10 {
        font-family: MyriadPro-Regular, 'Myriad Pro';
      }

      .st10 {
        font-size: 18.33px;
      }

      .st5 {
        fill: #a8ffff;
      }

      .st6 {
        fill: #e8e7e7;
        stroke: #7b7b7a;
      }

      .st11 {
        fill: #f7f7e4;
      }

      .st12 {
        clip-path: url(#clippath);
      }
    </style>
    <linearGradient id="linear-gradient" x1="353.5" y1="-364.09" x2="388.05" y2="-364.09" gradientTransform="translate(-585.44 616.45) scale(1.8 1)" gradientUnits="userSpaceOnUse">
      <stop offset="0" stop-color="#fff"/>
      <stop offset="1" stop-color="#000"/>
    </linearGradient>
    <mask id="mask" x="51.14" y="237.1" width="60.01" height="30.53" maskUnits="userSpaceOnUse">
      <rect class="st8" x="50.09" y="248.84" width="62.12" height="7.05" transform="translate(-91.31 51.04) rotate(-22.76)"/>
    </mask>
    <clipPath id="clippath">
      <polygon class="st0" points="310.27 184.98 54.45 83.74 54.33 264.78 309.58 365.78 310.27 184.98"/>
    </clipPath>
  </defs>
  <g class="st7">
    <polygon class="st4" points="452.28 128.12 310.84 185.35 54.71 85.7 196.47 26.88 452.28 128.12"/>
    <polygon class="st4" points="452.29 128.11 310.84 185.35 310.37 365.78 451.46 308.83 452.29 128.11"/>
    <polygon class="st5" points="54.68 85.41 310.84 185.35 310.37 365.78 54.33 264.2 54.68 85.41"/>
  </g>
  <path class="st6" d="M337.05,521.41L26.66,396.07c-14.51-5.86-26.22-23.47-26.16-39.35L1.56,20.53C1.62,4.66,13.43-3.46,27.94,2.4l310.39,125.34c14.51,5.86,26.22,23.47,26.16,39.35l-1.04,336.2c-.09,15.87-11.89,23.99-26.4,18.13Z"/>
  <path class="st1" d="M297.7,117.9l37.52,15.15c12.73,5.15,23.01,20.6,22.95,34.53l-.15,47.36"/>
  <g class="st3">
    <line class="st4" x1="108.77" y1="241.96" x2="54.33" y2="265.2"/>
  </g>
  <g class="st7">
    <g>
      <path class="st11" d="M123.15,223.14c-.88,0-1.81-.2-2.76-.58l-29.54-11.83c-4.52-1.83-8.18-7.34-8.16-12.29l.34-42.45c.01-3.64,2.02-6,5.1-6,.88,0,1.81.2,2.76.58l29.54,11.83c4.52,1.83,8.18,7.34,8.16,12.29l-.34,42.45c-.02,3.64-2.03,6-5.11,6Z"/>
      <path d="M88.12,150.5h0c.81,0,1.68.18,2.58.55l29.54,11.83c4.35,1.76,7.87,7.06,7.85,11.82l-.34,42.45c-.02,3.34-1.83,5.5-4.61,5.5-.81,0-1.68-.18-2.58-.55l-29.54-11.83c-4.35-1.76-7.87-7.06-7.85-11.82l.34-42.46c.01-3.34,1.82-5.5,4.6-5.5M88.12,149.5c-3.25,0-5.59,2.48-5.6,6.49l-.34,42.45c-.02,5.15,3.78,10.85,8.48,12.75l29.54,11.83c1.04.42,2.03.62,2.95.62,3.25,0,5.58-2.48,5.61-6.49l.34-42.45c.02-5.15-3.78-10.85-8.48-12.75l-29.54-11.83c-1.04-.42-2.03-.62-2.95-.62h0Z"/>
    </g>
    <text class="st9" transform="translate(87.06 185.94) rotate(21.06) scale(.8 .93) skewX(24.11)"><tspan x="0" y="0">Pasta</tspan></text>
    <path class="st2" d="M171.73,244.11l-29.54-11.83c-4.7-1.9-8.5-7.61-8.48-12.75l.34-42.45c.02-5.14,3.85-7.77,8.55-5.88l29.54,11.83c4.7,1.9,8.5,7.61,8.48,12.75l-.34,42.45c-.03,5.14-3.85,7.77-8.56,5.88Z"/>
    <g>
      <path class="st11" d="M226.22,265.17c-.88,0-1.81-.19-2.76-.58l-29.54-11.83c-4.52-1.83-8.18-7.34-8.16-12.29l.34-42.45c.01-3.64,2.02-6,5.1-6,.88,0,1.81.2,2.76.58l29.54,11.83c4.52,1.83,8.18,7.34,8.16,12.29l-.34,42.45c-.02,3.64-2.03,6-5.11,6Z"/>
      <path d="M191.2,192.52h0c.81,0,1.68.18,2.58.55l29.54,11.83c4.35,1.76,7.87,7.06,7.85,11.82l-.34,42.45c-.02,3.34-1.83,5.5-4.61,5.5-.81,0-1.68-.18-2.58-.55l-29.54-11.83c-4.35-1.76-7.87-7.06-7.85-11.82l.34-42.46c.01-3.34,1.82-5.5,4.6-5.5M191.2,191.52c-3.25,0-5.59,2.48-5.6,6.49l-.34,42.45c-.02,5.15,3.78,10.85,8.48,12.75l29.54,11.83c1.04.42,2.03.62,2.95.62,3.25,0,5.58-2.48,5.61-6.49l.34-42.45c.02-5.15-3.78-10.85-8.48-12.75l-29.54-11.83c-1.04-.42-2.03-.62-2.95-.62h0Z"/>
    </g>
    <text class="st9" transform="translate(190.14 227.96) rotate(21.06) scale(.8 .93) skewX(24.11)"><tspan x="0" y="0">Salad</tspan></text>
    <g>
      <path class="st11" d="M326.35,306.19l-29.54-11.83c-4.7-1.9-8.5-7.61-8.48-12.75l.34-42.45c.02-5.14,3.85-7.77,8.55-5.88l29.54,11.83c4.7,1.9,8.5,7.61,8.48,12.75l-.34,42.45c-.03,5.14-3.85,7.77-8.56,5.88Z"/>
      <path d="M294.27,232.66h-.01s0,0,0,0h0s0,0,0,0h0s0,0,0,0h0s0,0,0,0c0,0,0,0,0,0,0,0,0,0,0,0,0,0,0,0,0,0,0,0,0,0,0,0,0,0,0,0,0,0,0,0,0,0,0,0,0,0,0,0,0,0,0,0,0,0,0,0,0,0,0,0,0,0,0,0,0,0,0,0,0,0,0,0,0,0,0,0,0,0,0,0,0,0,0,0,0,0,0,0,0,0,0,0,0,0,0,0,0,0,0,0,0,0,0,0,0,0,0,0,0,0h0s0,0,0,0c0,0,0,0,0,0,0,0,0,0-.01,0,0,0,0,0,0,0,0,0,0,0,0,0h0s0,0,0,0c0,0,0,0,0,0,0,0,0,0-.01,0,0,0,0,0,0,0,0,0,0,0-.01,0,0,0,0,0,0,0-1.08.03-2.05.33-2.86.88,0,0,0,0,0,0,0,0,0,0,0,0,0,0,0,0,0,0,0,0,0,0,0,0,0,0,0,0,0,0,0,0,0,0,0,0,0,0,0,0,0,0,0,0,0,0,0,0,0,0,0,0,0,0,0,0,0,0,0,0,0,0,0,0,0,0,0,0,0,0,0,0,0,0,0,0,0,0,0,0,0,0,0,0,0,0,0,0,0,0,0,0,0,0,0,0,0,0,0,0,0,0,0,0,0,0,0,0,0,0,0,0,0,0,0,0,0,0,0,0,0,0,0,0,0,0,0,0,0,0,0,0,0,0,0,0,0,0,0,0,0,0,0,0,0,0,0,0,0,0,0,0,0,0,0,0,0,0,0,0,0,0,0,0,0,0,0,0,0,0,0,0,0,0,0,0,0,0,0,0,0,0,0,0,0,0,0,0,0,0,0,0,0,0,0,0,0,0,0,0,0,0,0,0,0,0,0,0,0,0,0,0,0,0,0,0,0,0,0,0,0,0,0,0,0,0,0,0,0,0,0,0,0,0h0s0,0,0,0c0,0,0,0,0,0,0,0,0,0,0,0h0s0,0,0,0c0,0,0,0,0,0,0,0,0,0-.01,0,0,0,0,0,0,0,0,0,0,0-.01,0h0s0,0-.01,0l.59.81c.73-.53,1.6-.79,2.59-.79v-1h0ZM289.13,236.34c-.16.45-.28.94-.36,1.45h0s0,.06-.01.08h0s0,0,0,0c0,0,0,0,0,0,0,0,0,0,0,0,0,0,0,0,0,0,0,0,0,0,0,0,0,0,0,0,0,0,0,0,0,0,0,0,0,0,0,0,0,0,0,0,0,0,0,0,0,0,0,0,0,0,0,0,0,0,0,0,0,0,0,0,0,0h0s0,0,0,0c0,0,0,0,0,0,0,0,0,0,0,0,0,0,0,0,0,0,0,0,0,0,0,0h0s0,0,0,0c0,0,0,0,0,0,0,0,0,0,0,0,0,0,0,0,0,0,0,0,0,0,0,0,0,0,0,0,0,0,0,0,0,0,0,0,0,0,0,0,0,0,0,0,0,0,0,0,0,0,0,0,0,0,0,0,0,0,0,0,0,0,0,0,0,0,0,0,0,0,0,0,0,0,0,0,0,0,0,0,0,0,0,0,0,0,0,0,0,0h0s0,0,0,0c0,0,0,0,0,0,0,0,0,0,0,0,0,0,0,0,0,0,0,0,0,0,0,0,0,0,0,0,0,0,0,0,0,0,0,0,0,0,0,0,0,0,0,0,0,0,0,0,0,0,0,0,0,0,0,0,0,0,0,0,0,0,0,0,0,0,0,0,0,0,0,0,0,0,0,0,0,0,0,0,0,0,0,0,0,0,0,0,0,0,0,0,0,0,0,0,0,0,0,0,0,0,0,0,0,0,0,0,0,0,0,0,0,0,0,0,0,0,0,0,0,0,0,0,0,0,0,0,0,0,0,0,0,0,0,0,0,0,0,0,0,0,0,0,0,0,0,0,0,0,0,0,0,0,0,0,0,0,0,0,0,0,0,0,0,0,0,0,0,0,0,0,0,0,0,0,0,0,0,0,0,0,0,0,0,0,0,0,0,0,0,0,0,0,0,0,0,0,0,0,0,0,0,0,0,.02,0,.04,0,.05h0s0,0,0,0c0,0,0,0,0,0,0,0,0,0,0,0,0,0,0,0,0,0,0,0,0,0,0,0,0,0,0,0,0,0,0,0,0,0,0,0,0,0,0,0,0,0,0,0,0,0,0,0,0,0,0,0,0,0,0,0,0,0,0,0,0,0,0,0,0,0,0,0,0,0,0,0,0,0,0,0,0,0,0,0,0,0,0,0,0,0,0,0,0,0-.03.28-.05.58-.05.88h0s0,0,0,0h0s0,0,0,0c0,0,0,0,0,0,0,0,0,0,0,0h0s0,0,0,0h0s0,0,0,0c0,0,0,0,0,0,0,0,0,0,0,0h0s0,0,0,0h0s0,0,0,0h0s0,0,0,0c0,0,0,0,0,0,0,0,0,0,0,0h0s0,0,0,0c0,0,0,0,0,0,0,0,0,0,0,0h0s0,0,0,0h0s0,0,0,0h0s0,0,0,0c0,0,0,0,0,0h0s0,0,0,0h0v.52s1,0,1,0v-.52c0-.91.14-1.74.41-2.48l-.94-.34h0ZM288.64,243.05s0,.27,0,.65h0s0,.04,0,.06h0s0,0,0,0h0s0,.03,0,.04h0s0,.01,0,.02h0s0,0,0,0l-.02,2.61h1s.03-3.38.03-3.38h-1ZM288.59,249.82l-.03,3.38h1s.03-3.38.03-3.38h-1ZM288.53,256.59l-.03,3.38h1s.03-3.38.03-3.38h-1ZM288.48,263.36l-.03,3.38h1s.03-3.38.03-3.38h-1ZM288.42,270.13v1.04s0,0,0,0v.02s0,0,0,0h0s0,.01,0,.01c0,0,0,0,0,0h0s0,.01,0,.01h0c0,.99-.02,2.3-.02,2.3h1s.03-3.38.03-3.38h-1ZM288.37,276.9s-.01,1.39-.02,2.39h0s0,.03,0,.04h0s0,.01,0,.02h0s0,0,0,0h0s0,0,0,0h0s0,0,0,0h0s0,0,0,0h0s0,0,0,0h0s0,.01,0,.02h0s0,0,0,0h0s0,0,0,0h0s0,0,0,0h0s0,.01,0,.01h0s0,0,0,0c0,0,0,0,0,0h0s0,0,0,0v.83s.99,0,.99,0l.03-3.38h-1ZM289.5,283.48l-.98.18c.18,1.03.5,2.05.93,3.04h0s.03.08.05.12h0s.02.04.03.06l.91-.41c-.44-.99-.76-2-.93-2.99h0ZM292.03,289.21l-.81.59c.26.36.54.71.84,1.04h0s0,0,0,.01c0,0,0,0,0,0,0,0,.01.01.02.02h0s.02.02.03.03c0,0,0,0,0,0,0,0,.02.02.03.03,0,0,0,0,0,0,0,0,.01.01.02.02h0s0,0,.01.01c0,0,0,0,0,0,0,0,.01.01.02.02,0,0,0,0,0,0,0,0,0,0,.01.01,0,0,0,0,0,0,0,0,.01.01.02.02,0,0,0,0,0,0,0,0,0,0,0,.01,0,0,0,0,0,0,0,0,.01.01.02.02,0,0,0,0,0,0,0,0,0,0,0,0,0,0,0,0,0,0,0,0,0,0,0,0,0,0,0,0,0,0,0,0,0,0,0,.01,0,0,0,0,0,0,0,0,0,0,0,0,0,0,0,0,0,0,0,0,0,0,0,0,0,0,0,0,0,0,0,0,0,0,0,.01,0,0,0,0,0,0,0,0,0,0,0,.01,0,0,0,0,0,0,0,0,0,0,0,0,0,0,0,0,0,0,0,0,0,0,0,0,0,0,0,0,0,0,0,0,0,0,0,0,0,0,0,0,0,0,0,0,0,0,0,0,0,0,0,0,0,0,0,0,0,0,0,0,0,0,0,0,0,0,0,0,0,0,0,0,0,0,0,0,0,0,0,0,0,0,0,0,0,0,0,0,0,0,0,0,0,0,0,0,0,0,0,0,0,0,0,0,0,0,0,0,0,0,0,0,0,0,0,0,0,0,0,0,0,0,0,0,0,0,0,0,0,0,0,0,0,0,0,0,0,0,0,0,0,0,0,0,0,0,0,0,0,0,0,0,0,0,0,0,0,0,0,0,0,0,0,0,0,0,0,0,0,0,0,0,0,0,0,0,0,0,0,0,0,0,0,0,0,0,0,0,0,0,0,0,0,0,0,0,0,0,0,0,0,0,0,0,0,0,0,0,0,0s0,0,0,0c0,0,0,0,0,0,0,0,0,0,0,0,0,0,0,0,0,0s0,0,0,0c0,0,0,0,0,0,0,0,0,0,0,0,0,0,0,0,0,0,0,0,0,0,0,0,0,0,0,0,0,0,0,0,0,0,0,0,0,0,0,0,0,0,0,0,0,0,0,0,0,0,0,0,0,0,0,0,0,0,0,0,0,0,0,0,0,0,0,0,0,0,0,0,0,0,0,0,0,0,0,0,0,0,0,0,0,0,0,0,0,0,0,0,0,0,0,0,0,0,0,0,0,0,0,0,0,0,0,0,0,0,0,0,0,0h0s0,0,0,0c0,0,0,0,0,0,0,0,0,0,0,0,0,0,0,0,0,0,0,0,0,0,0,0,0,0,0,0,0,0,0,0,0,0,0,0,0,0,0,0,0,0,0,0,0,0,0,0,0,0,0,0,0,0,0,0,0,0,0,0,0,0,0,0,0,0,0,0,0,0,0,0,0,0,0,0,0,0,0,0,0,0,0,0,0,0,0,0,0,0,0,0,0,0,0,0,0,0,0,0,0,0,0,0,0,0,0,0,0,0,0,0,0,0,0,0,0,0,0,0,0,0,0,0,0,0,0,0,0,0,0,0h0s0,0,0,0c0,0,0,0,0,0,0,0,0,0,0,0h0s0,0,0,0h0s0,0,0,0h0s0,0,0,0c0,0,0,0,0,0,0,0,0,0,0,0t0,0s0,0,0,0c0,0,0,0,0,0,0,0,0,0,0,0h0s0,0,0,0h0s0,0,0,0c0,0,0,0,0,0,0,0,0,0,0,0,0,0,0,0,0,0,0,0,0,0,0,0,0,0,0,0,0,0,0,0,0,0,0,0,0,0,0,0,0,0,0,0,0,0,0,0,0,0,0,0,0,0,0,0,0,0,0,0h0s0,0,0,0c0,0,0,0,0,0,0,0,0,0,0,0h0s0,0,0,0c0,0,0,0,0,0,0,0,0,0,0,0h0s.01.01.02.02c0,0,0,0,0,0,0,0,0,0,0,0,0,0,0,0,0,0,0,0,.01.01.02.02,0,0,0,0,0,0,0,0,0,0,0,0,0,0,0,0,0,0,0,0,.01.01.02.02,0,0,0,0,0,0,0,0,.02.02.03.03,0,0,0,0,0,0,0,0,0,0,0,0h0s.01.01.02.02h0s.02.02.03.03c0,0,0,0,0,0,0,0,.02.02.03.03h0c.15.14.31.28.46.42l.66-.76c-.78-.67-1.49-1.46-2.13-2.33h0ZM296.74,293.23l-.42.91c.15.07.31.14.46.2h0s0,0,0,0c0,0,0,0,0,0,0,0,0,0,0,0h0s0,0,0,0c0,0,0,0,0,0l2.65,1.06.37-.93-2.64-1.06c-.15-.06-.3-.12-.44-.19h0ZM302.97,295.74l-.37.93.23.09s0,0,0,0h0s0,0,0,0h0s0,0,0,0h0s0,0,0,0h0s0,0,0,0h0s0,0,0,0h0s0,0,0,0h0s0,0,0,0h.01s0,0,0,0h0c.79.32,2.84,1.14,2.84,1.14l.37-.93-3.14-1.26h0ZM309.25,298.26l-.37.93,3.14,1.26.37-.93-3.14-1.26h0ZM315.53,300.78l-.37.93s.48.19,1.06.43h0s.02,0,.03.01l2.05.82.37-.93-3.14-1.26h0ZM321.82,303.3l-.37.93s2.21.88,2.92,1.17h0s0,0,0,0h0s0,0,0,0h.02s0,0,0,0l.19.08.37-.93-3.14-1.26h0ZM330.79,305.57c-.46.15-.97.23-1.49.23-.42,0-.87-.05-1.32-.15l-.22.98c.41.09.82.15,1.21.16h0s0,0,0,0c0,0,0,0,0,0,0,0,0,0,0,0,0,0,0,0,0,0,0,0,0,0,0,0,0,0,0,0,0,0,0,0,0,0,0,0,0,0,0,0,0,0,0,0,0,0,0,0,0,0,0,0,0,0,0,0,0,0,0,0,0,0,0,0,0,0,0,0,0,0,0,0,0,0,0,0,0,0,.01,0,.03,0,.04,0,0,0,0,0,0,0,0,0,0,0,0,0,0,0,0,0,0,0,0,0,0,0,0,0,0,0,0,0,0,0,0,0,0,0,0,0,0,0,0,0,0,0,0,0,0,0,0,0,0,0,0,0,0,0,0,0,0,0,0,0,0,0,0,0,0,0,0,0,0,0,0,0,0,0,0,0,0,0,0,0,0,0,0,0,0,0,0,0,0,0,0,0,0,0,0,0,0,0,0,0,0,0,0,0,0,0,0,0,0,0,0,0,0,0,0,0,0,0,0,0h0s0,0,0,0h0s.01,0,.02,0c0,0,0,0,0,0,0,0,0,0,0,0,0,0,0,0,0,0,0,0,0,0,0,0,0,0,0,0,0,0,0,0,0,0,0,0,0,0,0,0,0,0,0,0,0,0,0,0,0,0,0,0,0,0,0,0,0,0,0,0,0,0,0,0,0,0,0,0,0,0,0,0,0,0,0,0,0,0,0,0,0,0,0,0,0,0,0,0,0,0,0,0,0,0,0,0,0,0,0,0,0,0,0,0,0,0,0,0,0,0,0,0,0,0,0,0,0,0,0,0,0,0,0,0,0,0,0,0,0,0,0,0,0,0,0,0,0,0,0,0,0,0,0,0,0,0,0,0,0,0,0,0,0,0,0,0,0,0,0,0,0,0,0,0,0,0,0,0,0,0,0,0,0,0,0,0,0,0,0,0,0,0,0,0,0,0,0,0,0,0,0,0,0,0,0,0,0,0,0,0,0,0,0,0,0,0,0,0,0,0,0,0,0,0,0,0,0,0,0,0,0,0,0,0,0,0,0,0,0,0,0,0,0,0h0s0,0,0,0c0,0,0,0,0,0h0s0,0,0,0c0,0,0,0,0,0h0s0,0,0,0h0s0,0,0,0h0s0,0,0,0h.02s0,0,0,0h0s0,0,0,0c0,0,0,0,0,0,0,0,0,0,0,0h0s0,0,0,0c0,0,0,0,0,0,0,0,0,0,0,0h0s0,0,0,0c0,0,0,0,0,0,0,0,0,0,0,0h0s0,0,0,0c0,0,0,0,0,0,0,0,0,0,0,0,0,0,0,0,0,0,0,0,0,0,0,0h0s0,0,0,0c0,0,0,0,0,0,0,0,0,0,0,0,0,0,0,0,0,0,0,0,0,0,0,0,0,0,0,0,0,0,0,0,0,0,0,0,0,0,0,0,0,0,0,0,0,0,0,0h0s0,0,0,0c0,0,0,0,0,0,0,0,0,0,0,0,0,0,0,0,0,0,0,0,0,0,0,0,0,0,0,0,0,0,0,0,0,0,0,0,0,0,0,0,0,0,0,0,0,0,0,0,0,0,0,0,0,0,0,0,0,0,0,0,0,0,0,0,0,0,0,0,0,0,0,0,0,0,0,0,0,0,0,0,0,0,0,0,0,0,0,0,0,0,0,0,0,0,0,0,0,0,0,0,0,0,0,0,0,0,0,0,0,0,0,0,0,0,0,0,0,0,0,0,0,0,0,0,0,0,0,0,0,0,0,0,0,0,0,0,0,0,0,0,0,0,0,0,0,0,0,0,0,0,0,0,0,0,0,0,0,0,0,0,0,0,0,0,0,0,0,0,0,0,0,0,0,0,0,0,0,0,0,0,0,0,0,0,0,0,0,0,0,0,0,0,0,0,0,0,0,0,0,0,0,0,0,0,0,0,0,0,0,0,0,0,0,0,0,0,0,0,0,0,0,0,0,0,0,0,0,0,0,0,0,0,0,0h0s0,0,0,0c0,0,0,0,0,0,0,0,0,0,0,0,0,0,0,0,0,0,0,0,0,0,0,0,0,0,0,0,0,0,0,0,0,0,0,0,0,0,0,0,0,0,0,0,0,0,0,0,0,0,0,0,0,0,0,0,0,0,0,0,0,0,0,0,0,0h0s0,0,0,0c0,0,0,0,0,0,0,0,0,0,0,0,0,0,0,0,0,0,0,0,0,0,0,0,0,0,0,0,0,0,0,0,0,0,0,0,0,0,0,0,0,0,0,0,0,0,0,0,0,0,0,0,0,0,0,0,0,0,0,0,0,0,0,0,0,0,0,0,0,0,0,0,0,0,0,0,0,0,0,0,0,0,0,0,0,0,0,0,0,0,0,0,0,0,0,0,0,0,0,0,0,0,0,0,0,0,0,0,0,0,0,0,0,0,0,0,0,0,0,0,0,0,0,0,0,0h0s0,0,0,0c0,0,0,0,0,0,0,0,0,0,0,0,0,0,0,0,0,0,0,0,0,0,0,0,0,0,0,0,0,0,0,0,0,0,0,0,0,0,0,0,0,0,0,0,0,0,0,0,0,0,0,0,0,0,0,0,0,0,0,0,0,0,0,0,0,0,0,0,0,0,0,0,0,0,0,0,0,0,0,0,0,0,0,0,0,0,0,0,0,0,0,0,0,0,0,0,0,0,0,0,0,0,0,0,0,0,0,0,0,0,0,0,0,0,0,0,0,0,0,0,0,0,0,0,0,0,0,0,0,0,0,0,0,0,0,0,0,0,0,0,0,0,0,0,0,0,0,0,0,0,0,0,0,0,0,0,0,0,0,0,0,0,0,0,0,0,0,0,0,0,0,0,0,0,0,0,0,0,0,0,0,0,0,0,0,0,0,0,0,0,0,0,0,0,0,0,0,0,0,0,0,0,0,0h0s0,0,0,0c0,0,0,0,0,0s0,0,0,0c0,0,0,0,0,0,0,0,0,0,0,0,0,0,0,0,0,0,0,0,0,0,0,0,0,0,0,0,0,0,0,0,0,0,0,0,0,0,0,0,0,0,0,0,0,0,0,0,0,0,0,0,0,0,0,0,0,0,0,0,0,0,0,0,0,0,0,0,0,0,0,0,0,0,0,0,0,0,0,0,0,0,0,0,0,0,0,0,0,0,0,0,0,0,0,0,0,0,0,0,0,0,0,0,0,0,0,0,0,0,0,0,0,0,0,0,0,0,0,0,0,0,0,0,0,0,0,0,0,0,0,0,0,0,0,0,0,0,0,0,0,0,0,0,0,0,0,0,0,0,0,0,0,0,0,0,0,0,0,0,0,0,0,0,0,0,.01,0,0,0,0,0,0,0,0,0,0,0,0,0,0,0,0,0,0,0,0,0,0,0,0,0,0,0,0,0,0,0,0,0,0,0,0,0h0s0,0,.01,0c0,0,0,0,0,0,0,0,0,0,.01,0,0,0,0,0,0,0,0,0,0,0,0,0,0,0,0,0,0,0,0,0,0,0,0,0,0,0,0,0,0,0,0,0,0,0,0,0,0,0,0,0,0,0,0,0,0,0,.01,0,0,0,0,0,0,0,0,0,0,0,0,0,0,0,0,0,0,0,0,0,0,0,0,0,0,0,0,0,0,0,0,0,0,0,0,0,0,0,0,0,0,0,0,0,0,0,.01,0,0,0,0,0,0,0,0,0,0,0,.01,0,0,0,0,0,0,0,0,0,0,0,0,0h0s0,0,0,0h0s0,0,0,0c0,0,0,0,0,0,0,0,0,0,.01,0h0s0,0,.01,0h0s0,0,0,0h0s0,0,.01,0h0s0,0,.01,0c0,0,0,0,0,0,.32-.05.63-.12.92-.22l-.32-.95h0ZM333.85,301.22c-.12,1.06-.43,1.98-.93,2.72l.83.56c.2-.29.37-.61.52-.95h0s0-.01,0-.02h0s.01-.02.02-.04h0s0-.01,0-.02h0s0-.01,0-.02h0s0-.01,0-.02h0s0-.01,0-.02h0s0-.01,0-.02c0,0,0,0,0,0,0,0,0-.01,0-.02,0,0,0,0,0,0,0,0,0,0,0-.01h0s0,0,0,0c0,0,0,0,0,0,0,0,0,0,0-.01h0s0,0,0,0c0,0,0,0,0,0,0,0,0,0,0-.01h0s0,0,0,0c0,0,0,0,0,0,0,0,0,0,0,0h0s0,0,0,0c0,0,0,0,0,0,0,0,0,0,0,0,0,0,0,0,0,0,0,0,0,0,0-.01,0,0,0,0,0,0,0,0,0,0,0,0,0,0,0,0,0,0h0s0-.01,0-.01c0,0,0,0,0,0,0,0,0,0,0,0,0,0,0,0,0-.01,0,0,0,0,0,0,0,0,0,0,0,0,0,0,0,0,0,0,0,0,0,0,0,0,0,0,0,0,0,0,0,0,0,0,0,0,0,0,0,0,0,0,0,0,0,0,0,0,0,0,0,0,0,0,0,0,0,0,0-.01,0,0,0,0,0,0,0,0,0,0,0,0,0,0,0,0,0,0,0,0,0,0,0,0,0,0,0,0,0,0,0,0,0,0,0,0,0,0,0,0,0,0,0,0,0,0,0,0,0,0,0,0,0,0,0,0,0,0,0,0,0,0,0,0,0,0,0,0,0,0,0,0,0,0,0,0,0,0,0,0,0,0,0,0,0,0,0,0,0,0,0,0,0,0,0,0,0,0,0,0,0,0,0,0,0,0,0,0,0,0,0,0,0,0,0,0,0,0,0,0,0,0,0,0,0,0,0,0,0,0,0,0h0s0,0,0,0c0,0,0,0,0,0,0,0,0,0,0,0,0,0,0,0,0,0,0,0,0,0,0,0t0,0s0,0,0,0c0,0,0,0,0,0,0,0,0,0,0,0,0,0,0,0,0,0,0,0,0,0,0,0,0,0,0,0,0,0,0,0,0,0,0,0,0,0,0,0,0,0,0,0,0,0,0,0,0,0,0,0,0,0,0,0,0,0,0,0,0,0,0,0,0,0,0,0,0,0,0,0,0,0,0,0,0,0,0,0,0,0,0,0,0,0,0,0,0,0,0,0,0,0,0-.01,0,0,0,0,0,0,0,0,0,0,0,0,0,0,0,0,0,0,0,0,0,0,0,0,0,0,0,0,0,0,0,0,0,0,0,0,0,0,0,0,0,0,0,0,0,0,0,0,0,0,0,0,0,0,0,0,0,0,0,0,0,0,0,0,0,0,0,0,0,0,0,0,0,0,0,0,0,0,0,0,0,0,0,0,0,0,0,0,0,0,0,0,0,0,0,0,0,0,0,0,0,0,0,0,0,0,0,0,0,0,0,0,0,0,0,0,0,0,0,0,0,0,0,0,0,0,0,0,0,0,0,0,0,0,0,0,0,0,0,0,0,0,0,0,0,0,0,0,0,0h0s0,0,0,0c0,0,0,0,0,0,0,0,0,0,0,0,0,0,0,0,0,0,0,0,0,0,0,0,0,0,0,0,0,0,0,0,0,0,0,0,0,0,0,0,0,0,0,0,0,0,0,0h0s0,0,0,0c0,0,0,0,0,0,0,0,0,0,0,0,0,0,0,0,0,0,0,0,0,0,0,0h0s0,0,0,0c0,0,0,0,0,0,0,0,0,0,0,0h0s0,0,0,0c0,0,0,0,0,0,0,0,0,0,0,0,0,0,0,0,0,0,0,0,0,0,0,0,0,0,0,0,0,0,0,0,0,0,0,0,0,0,0,0,0,0,0,0,0,0,0,0,0,0,0,0,0,0,0,0,0,0,0,0,0,0,0,0,0,0,0,0,0,0,0,0,0,0,0,0,0,0,0,0,0,0,0,0,0,0,0,0,0,0,0,0,0,0,0,0,0,0,0,0,0,0,0,0,0,0,0,0,0,0,0,0,0,0,0,0,0,0,0,0,0,0,0,0,0,0,0,0,0,0,0,0,0,0,0,0,0,0,0,0,0,0,0,0,0,0,0,0,0,0,0,0,0,0,0,0,0,0,0,0,0,0,0,0,0,0,0,0,0,0,0,0,0,0,0,0,0,0,0,0,0,0,0,0,0,0,0,0,0,0,0,0,0,0,0,0,0,0,0,0,0,0,0,0,0,0,0,0,0,0,0,0,0,0,0,0,0,0,0,0,0,0,0,0,0,0,0,0,0,0,0,0,0,0,0,0,0,0,0,0,0,0,0,0,0,0h0s0,0,0,0c0,0,0,0,0,0,0,0,0,0,0,0,0,0,0,0,0,0,0,0,0,0,0,0,0,0,0,0,0,0,0,0,0,0,0,0,0,0,0,0,0,0,0,0,0,0,0,0,0,0,0,0,0,0,0,0,0,0,0,0,0,0,0,0,0,0,0,0,0,0,0,0,0,0,0,0,0,0,0,0,0,0,0,0,0,0,0,0,0,0h0s0,0,0,0c0,0,0,0,0,0,0,0,0,0,0,0,0,0,0,0,0,0,0,0,0,0,0,0,0,0,0,0,0,0,0,0,0,0,0,0,0,0,0,0,0,0,0,0,0,0,0,0,0,0,0,0,0,0,0,0,0,0,0,0h0s0,0,0,0c0,0,0,0,0,0,0,0,0,0,0,0,0,0,0,0,0,0,0,0,0,0,0,0,0,0,0,0,0,0,0,0,0,0,0,0,0,0,0,0,0,0,0,0,0,0,0,0,0,0,0,0,0,0,0,0,0,0,0,0,0,0,0,0,0,0,0,0,0,0,0,0,0,0,0,0,0,0,0,0,0,0,0,0,0,0,0,0,0,0,0,0,0,0,0,0,0,0,0,0,0,0,0,0,0,0,0,0,0,0,0,0,0,0,0,0,0,0,0,0h0s0,0,0,0c0,0,0,0,0,0,0,0,0,0,0,0,0,0,0,0,0,0,0,0,0,0,0,0,0,0,0,0,0,0,0,0,0,0,0,0,0,0,0,0,0,0,0,0,0,0,0,0,0,0,0,0,0,0,0,0,0,0,0,0,0,0,0,0,0,0,0,0,0,0,0,0,0,0,0,0,0,0,0,0,0,0,0,0,0,0,0,0,0,0,0,0,0,0,0,0,0,0,0,0,0,0,0,0,0,0,0,0,0,0,0,0,0,0,0,0,0,0,0,0,0,0,0,0,0,0,0,0,0,0,0,0,0,0,0,0,0,0,0,0,0,0,0,0,0,0,0,0,0,0,0,0,0,0,0,0,0,0,0,0,0,0,0,0,0,0,0,0,0,0,0,0,0,0,0,0,0,0,0,0,0,0,0,0,0,0,0,0,0,0,0,0,0,0,0,0,0,0,0,0,0,0,0,0h0s0,0,0,0c0,0,0,0,0,0,0,0,0,0,0,0,0,0,0,0,0,0,0,0,0,0,0,0,0,0,0,0,0,0,0,0,0,0,0,0,0,0,0,0,0,0,0,0,0,0,0,0,0,0,0,0,0,0,0,0,0,0,0,0,0,0,0,0,0,0,0,0,0,0,0,0,0,0,0,0,0,0,0,0,0,0,0,0,0,0,0,0,0,0,0,0,0,0,0,0,0,0,0,0,0,0,0,0,0,0,0,0,0,0,0,0,0,0,0,0,0,0,0,0,0,0,0,0,0,0,0,0,0,0,0,0,0,0,0,0,0,0,0,0,0,0,0,0,0,0,0,0,0,0,0,0,0,0,0,0,0,0,0,0,0,0,0,0,0,0,0,0,0,0,0,0,0,0,0,0,0,0,0,0,0,0,0,0,0,0h0s0,0,0,0c0,0,0,0,0,0,0,0,0,0,0,0,0,0,0,0,0,0,0,0,0,0,0,0,0,0,0,0,0,0,0,0,0,0,0,0,0,0,0,0,0,0,0,0,0,0,0,0,0,0,0,0,0,0,0,0,0,0,0,0,0,0,0,0,0,0,0,0,0,0,0,0,0,0,0,0,0,0,0,0,0,0,0,0,0,0,0,0,0,0,0,0,0,0,0,0,0,0,0,0,0,0,0,0,0,0,0,0,0,0,0,0,0,0,0,0,0,0,0,0,0,0,0,0,0,0,0,0,0,0,0,0,0,0,0,0,0,0,0,0,0,0,0,0,0,0,0,0,0,0,0,0,0,0,0,0,0,0,0,0,0,0,0,0,0,0,0,0,0,0,0,0,0,0,0,0,0,0,0,0,0,0,0,0,0,0,0,0,0,0,0,0,0,0,0,0,0,0,0,0,0,0,0,0,0,0,0,0,0,0,0,0,0,0,0,0,0,0,0,0,0,0,0,0,0,0,0,0,0,0,0,0,0,0,0,0,0,0,0,0,0,0,0,0,0,0,0,0,0,0,0,0,0,0,0,0,0,0,0,0,0,0,0,0,0,0,0,0,0,0,0,0,0,0,0,0,0,0,0,0,0,0,0,0,0,0,0,0,0,0,0,0,0,0,0,0,0,0,0,0,0,0,0,0,0,0,0,0,0,0,0,0,0,0,0,0,0,0,0,0,0,0,0,0,0,0,0,0,0,0,0,0,0,0,0,0,0,0,0,0,0,0,0,0,0,0,0,0,0,0,0,0,0,0,0,0,0,0,0,0,0,0,0,0,0,0,0,0,0,0,0,0,0,0,0,0,0,0,0,0,0,0,0,0,0,0,0,0,0,0,0,0,0,0,0,0,0,0,0,0,0,0,0,0,0,0,0,0,0,0,0,0,0,0,0,0,0,0,0,0,0,0,0,0,0,0,0,0,0,0,0,0,0,0,0,0,0,0,0,0,0,0,0,0,0,0,0,0,0,0,0,0,0,0,0,0,0,0,0,0,0,0h0s0,0,0,0c0,0,0,0,0,0h0s0,0,0,0c0,0,0,0,0,0,0,0,0,0,0,0h0s0,0,0,0c0,0,0,0,0,0,0,0,0,0,0,0,0,0,0,0,0,0,0,0,0,0,0,0,0,0,0,0,0,0,0,0,0,0,0,0h0s0,0,0,0c0,0,0,0,0,0,0,0,0,0,0,0,0,0,0,0,0,0,0,0,0,0,0,0h0s0,0,0,0c0,0,0,0,0,0,0,0,0,0,0,0,0,0,0,0,0,0,0,0,0,0,0,0h0s0,0,0,0c0,0,0,0,0,0,0,0,0,0,0,0,0,0,0,0,0,0,0,0,0,0,0,0,0,0,0,0,0,0,0,0,0,0,0,0,0,0,0,0,0,0,0,0,0,0,0,0,0,0,0,0,0,0,0,0,0,0,0,0,0,0,0,0,0,0,0,0,0,0,0,0,0,0,0,0,0,0,0,0,0,0,0,0,0,0,0,0,0,0,0,0,0,0,0,0,0,0,0,0,0,0,0,0,0,0,0,0,0,0,0,0,0,0,0,0,0,0,0,0,0,0,0,0,0,0,0,0,0,0,0,0h0s0,0,0,0c0,0,0,0,0,0,0,0,0,0,0,0h0s0,0,0,0c0,0,0,0,0,0,0,0,0,0,0,0,0,0,0,0,0,0,0,0,0,0,0,0h0s0,0,0,0h0s0,0,0,0c0,0,0,0,0,0,0,0,0,0,0,0h0s0,0,0,0h0s0,0,0,0c0,0,0,0,0,0,0,0,0,0,0,0,0,0,0,0,0,0,0,0,0,0,0,0,0,0,0,0,0,0h0s0,0,0,0c0,0,0,0,0-.01,0,0,0,0,0,0,0,0,0,0,0,0,0,0,0,0,0,0,0,0,0,0,0-.01,0,0,0,0,0,0,0,0,0,0,0,0,0,0,0,0,0,0,0,0,0,0,0-.01,0,0,0,0,0,0,0,0,0,0,0,0,0,0,0,0,0,0,0,0,0,0,0-.01h0s0,0,0,0c0,0,0,0,0,0,0,0,0,0,0-.01,0,0,0,0,0,0,0,0,0,0,0,0,0,0,0,0,0,0,0,0,0,0,0-.01h0s0,0,0,0c0,0,0,0,0,0,0,0,0,0,0-.01h0s0,0,0,0c0,0,0,0,0,0,0,0,0-.01,0-.02,0,0,0,0,0,0,0,0,0,0,0-.01h0s0,0,0,0h0s0,0,0-.01h0s0,0,0,0c0,0,0,0,0,0,0,0,0,0,0-.01h0s0,0,0,0h0s0-.01,0-.02h0s0,0,0-.01c0,0,0,0,0,0,0,0,0,0,0,0h0s0,0,0-.01h0s0,0,0,0h0s0-.04,0-.06h0s0-.06.01-.09h0s0-.08.01-.12l-.99-.11h0ZM333.95,294.56l-.03,3.38h1s.03-3.38.03-3.38h-1ZM334,287.79l-.03,3.38h1s.03-3.38.03-3.38h-1ZM334.06,281.02l-.03,3.38h1s.03-3.38.03-3.38h-1ZM334.11,274.26l-.03,3.38h1s.03-3.38.03-3.38h-1ZM334.16,267.49l-.03,3.38h1s.03-3.38.03-3.38h-1ZM334.22,260.72l-.03,3.38h1s0-1.11.02-2.06h0s0,0,0,0h0s0,0,0,0h0s0,0,0,0h0s.01-1.3.01-1.3h-1ZM334.61,254.03l-.95.31c.34,1.04.53,2.06.58,3.05l1-.04c-.03-.63-.11-1.27-.25-1.9,0,0,0,0,0,0,0-.02,0-.03,0-.05h0s0-.03,0-.04c0,0,0,0,0,0,0-.02,0-.03,0-.05,0,0,0,0,0,0,0,0,0,0,0,0,0,0,0,0,0,0,0-.01,0-.02,0-.03,0,0,0,0,0,0,0-.01,0-.03,0-.04,0,0,0,0,0,0,0,0,0,0,0,0,0,0,0,0,0,0,0,0,0,0,0,0,0,0,0,0,0,0,0,0,0,0,0,0,0,0,0,0,0,0,0,0,0,0,0-.01,0,0,0,0,0,0,0,0,0,0,0,0h0s0,0,0,0c0,0,0,0,0,0,0,0,0,0,0,0,0,0,0,0,0,0,0,0,0,0,0,0,0,0,0,0,0,0,0,0,0,0,0-.01,0,0,0,0,0,0,0,0,0,0,0,0,0,0,0,0,0,0,0,0,0,0,0,0,0,0,0,0,0,0,0,0,0,0,0,0,0,0,0,0,0,0,0,0,0,0,0,0,0,0,0,0,0,0,0,0,0,0,0-.01,0,0,0,0,0,0,0,0,0,0,0,0,0,0,0,0,0,0,0,0,0,0,0,0,0,0,0,0,0,0,0,0,0,0,0,0,0,0,0,0,0,0,0,0,0,0,0-.01,0,0,0,0,0,0h0s0,0,0,0c0,0,0,0,0,0,0,0,0,0,0,0,0,0,0,0,0,0,0,0,0,0,0,0,0,0,0,0,0,0,0,0,0,0,0,0,0,0,0,0,0,0,0,0,0,0,0,0,0,0,0,0,0,0,0,0,0,0,0,0,0,0,0,0,0,0,0,0,0,0,0,0,0,0,0,0,0,0,0,0,0,0,0,0,0,0,0,0,0,0,0,0,0,0,0,0h0s0,0,0,0c0,0,0,0,0,0,0,0,0,0,0,0h0s0,0,0,0c0,0,0,0,0,0,0,0,0,0,0,0,0,0,0,0,0,0,0,0,0,0,0,0,0,0,0,0,0,0,0,0,0,0,0,0,0,0,0,0,0,0,0,0,0,0,0,0,0,0,0,0,0,0,0,0,0,0,0,0,0,0,0,0,0,0,0,0,0,0,0,0,0,0,0,0,0,0,0,0,0,0,0,0,0,0,0,0,0,0,0,0,0,0,0,0,0,0,0,0,0,0,0,0,0,0,0,0,0,0,0,0,0,0,0,0,0,0,0,0,0,0,0,0,0,0,0,0,0,0,0,0,0,0,0,0,0,0,0,0,0,0,0,0,0,0,0,0,0,0,0,0,0,0,0,0,0,0,0,0,0,0,0,0,0,0,0,0,0,0,0,0,0,0,0,0,0,0,0,0,0,0,0,0,0,0,0,0,0,0,0,0,0,0,0,0,0,0,0,0,0,0,0,0,0,0,0,0,0,0,0,0,0,0,0,0,0,0,0,0,0,0,0,0,0,0,0,0,0,0,0,0,0,0,0,0,0,0,0,0,0,0,0,0,0,0,0,0,0,0,0,0,0,0,0,0,0,0,0,0,0,0,0,0,0,0,0,0,0,0,0,0,0,0,0,0,0,0,0,0,0,0,0,0,0,0,0,0,0,0,0,0,0,0,0,0,0,0,0,0s0,0,0,0c0,0,0,0,0,0,0,0,0,0,0,0,0,0,0,0,0,0,0,0,0,0,0,0,0,0,0,0,0,0,0,0,0,0,0,0,0,0,0,0,0,0,0,0,0,0,0,0,0,0,0,0,0,0,0,0,0,0,0,0,0,0,0,0,0,0,0,0,0,0,0,0,0,0,0,0,0,0,0,0,0,0,0,0,0,0,0,0,0,0,0,0,0,0,0,0,0,0,0,0,0,0,0,0,0,0,0,0,0,0,0,0,0,0,0,0,0,0,0,0,0,0,0,0,0,0,0,0,0,0,0,0,0,0,0-.01,0-.02,0,0,0,0,0,0,0,0,0,0,0,0,0,0,0,0,0,0,0,0,0,0,0,0,0,0,0,0,0,0h0s0,0,0,0c0,0,0,0,0,0,0,0,0,0,0,0,0,0,0,0,0,0,0,0,0,0,0,0,0,0,0,0,0,0,0,0,0,0,0,0,0,0,0,0,0,0,0,0,0,0,0,0,0,0,0,0,0,0,0,0,0,0,0,0,0,0,0,0,0,0,0,0,0,0,0,0,0,0,0,0,0,0h0s0,0,0,0c0,0,0,0,0,0,0,0,0,0,0,0,0,0,0,0,0,0,0,0,0,0,0,0,0,0,0,0,0,0,0,0,0,0,0,0,0,0,0,0,0,0,0,0,0-.01,0-.02,0,0,0,0,0,0,0,0,0,0,0,0,0,0,0,0,0,0,0,0,0,0,0,0,0,0,0,0,0,0,0,0,0,0,0,0,0,0,0,0,0,0,0,0,0,0,0,0,0,0,0,0,0,0,0,0,0,0,0,0,0,0,0,0,0,0,0,0,0,0,0,0,0,0,0,0,0,0,0,0,0,0,0,0,0,0,0,0,0,0,0,0,0,0,0,0,0,0,0,0,0,0,0,0,0,0,0,0,0,0,0,0,0,0,0,0,0,0,0,0,0,0,0,0,0,0,0,0,0-.01,0-.02,0,0,0,0,0,0,0,0,0,0,0,0,0,0,0,0,0,0,0,0,0,0,0,0,0,0,0,0,0,0,0,0,0,0,0,0,0,0,0,0,0,0,0,0,0,0,0,0,0,0,0,0,0,0,0,0,0,0,0,0,0,0,0,0,0,0,0,0,0,0,0,0,0,0,0,0,0,0h0s0,0,0,0c0,0,0,0,0,0,0,0,0,0,0,0,0,0,0,0,0,0,0,0,0,0,0,0,0,0,0,0,0,0,0,0,0,0,0,0,0,0,0,0,0,0,0,0,0,0,0,0,0,0,0,0,0,0,0,0,0,0,0,0,0,0,0,0,0,0,0,0,0,0,0,0,0,0,0,0,0,0,0,0,0,0,0,0,0,0,0,0,0,0,0,0,0,0,0,0,0,0,0,0,0,0,0,0,0,0,0,0,0,0,0,0,0,0,0,0,0,0,0,0,0,0,0,0,0,0,0,0,0,0,0,0,0,0,0,0,0,0,0,0,0,0,0,0,0,0,0,0,0,0,0,0,0,0,0,0,0,0,0,0,0,0,0,0,0,0,0,0,0,0,0,0,0,0,0,0,0,0,0,0,0,0,0,0,0,0,0,0,0,0,0,0,0,0,0,0,0,0,0,0,0,0,0,0,0,0,0,0,0,0,0,0,0,0,0,0,0,0,0,0,0,0,0,0,0,0,0,0,0,0,0,0,0,0,0,0,0,0,0,0,0,0,0,0,0,0,0,0,0,0,0,0,0,0,0,0,0,0,0,0,0,0,0,0,0,0,0,0,0,0,0,0,0,0,0,0h0s0,0,0,0c0,0,0,0,0,0,0,0,0,0,0,0,0,0,0,0,0,0,0,0,0,0,0,0,0,0,0,0,0,0,0,0,0,0,0,0,0,0,0,0,0,0,0,0,0,0,0,0,0,0,0,0,0,0,0,0,0,0,0,0,0,0,0,0,0,0,0,0,0,0,0,0,0,0,0,0,0,0,0,0,0,0,0-.01,0,0,0,0,0,0,0,0,0,0,0,0,0,0,0,0,0,0,0,0,0,0,0,0,0,0,0,0,0,0,0,0,0,0,0,0,0,0,0,0,0,0,0,0,0,0,0,0,0,0,0,0,0,0,0,0,0,0,0-.01,0,0,0,0,0,0,0,0,0,0,0,0,0,0,0,0,0,0,0,0,0,0,0,0,0,0,0,0,0,0,0,0,0,0,0,0,0,0,0,0,0,0,0,0,0,0,0,0,0,0,0,0,0,0,0,0,0,0,0-.01,0,0,0,0,0,0,0,0,0,0,0,0,0,0,0,0,0,0,0,0,0,0,0,0,0,0,0,0,0,0,0,0,0-.02,0-.03h0ZM331.18,248.25l-.73.68c.71.76,1.35,1.62,1.9,2.53l.86-.51c-.58-.97-1.26-1.89-2.02-2.71h0ZM325.55,244.62l-.37.93,1.21.48c.56.23,1.12.52,1.67.87l.54-.84c-.57-.37-1.16-.68-1.77-.93,0,0,0,0,0,0,0,0,0,0,0,0,0,0,0,0,0,0,0,0,0,0,0,0,0,0,0,0,0,0,0,0,0,0,0,0,0,0,0,0,0,0,0,0,0,0,0,0,0,0,0,0,0,0,0,0,0,0,0,0,0,0,0,0,0,0,0,0,0,0,0,0,0,0,0,0,0,0,0,0,0,0,0,0,0,0,0,0,0,0,0,0,0,0,0,0,0,0,0,0,0,0h0s0,0,0,0c0,0,0,0,0,0h0l-1.21-.49h0ZM319.27,242.11l-.37.93,3.14,1.26.37-.93-2.77-1.11h0s0,0,0,0h0s0,0,0,0c0,0,0,0,0,0h0s0,0,0,0h-.01s0,0,0,0h0s0,0,0,0h0s0,0,0,0h-.02s0,0,0,0h0s0,0,0,0h-.02s0,0,0,0h0s0,0,0,0h0s0,0,0,0h0s0,0,0,0h0s0,0,0,0h0s0,0,0,0h0s0,0,0,0h0s0,0,0,0h0s0,0,0,0h0s0,0,0,0h0s0,0,0,0h0s0,0,0,0h0s0,0,0,0h0s0,0,0,0h-.01s0,0,0,0h0s0,0,0,0h0s0,0,0,0h0s0,0,0,0h0s0,0,0,0h0s0,0,0,0h0s0,0,0,0h0s0,0,0,0h0s0,0,0,0h0s0,0,0,0h0s0,0,0,0h0s0,0,0,0h-.01s0,0,0,0h0s0,0,0,0h0s0,0-.01,0h0s-.02,0-.03-.01h0s-.02,0-.02,0h0s-.01,0-.02,0h0s0,0,0,0h0s-.01,0-.02,0h0s0,0,0,0h0s0,0,0,0h0s0,0,0,0h0ZM312.99,239.59l-.37.93,3.14,1.26.37-.93s-.44-.18-.98-.39h0s0,0,0,0h-.02s0,0,0,0h-.03s0-.01,0-.01h0s0,0,0,0h-.03s0-.01,0-.01l-2.07-.83h0ZM306.7,237.07l-.37.93,3.14,1.26.37-.93-1.04-.42s-.02,0-.03-.01h0c-.91-.37-2.08-.83-2.08-.83h0ZM300.42,234.55l-.37.93,3.14,1.26.37-.93-3.14-1.26h0ZM294.28,232.66h0v1h0c.81,0,1.68.18,2.58.55l.05.02.37-.93s-.05-.02-.05-.02h0c-1.04-.42-2.03-.62-2.95-.62h0Z"/>
    </g>
    <text class="st9" transform="translate(293.21 269.1) rotate(21.06) scale(.8 .93) skewX(24.11)"><tspan x="0" y="0">Tacos</tspan></text>
    <g>
      <path class="st11" d="M277.76,285.95c-.88,0-1.81-.2-2.76-.58l-29.54-11.83c-4.52-1.83-8.18-7.34-8.16-12.29l.34-42.45c.01-3.64,2.02-6,5.1-6,.88,0,1.81.2,2.76.58l29.54,11.84c4.52,1.82,8.18,7.34,8.16,12.29l-.34,42.45c-.02,3.64-2.03,6-5.11,6Z"/>
      <path d="M242.74,213.3h0c.81,0,1.68.18,2.58.55l29.54,11.83c4.35,1.76,7.87,7.06,7.85,11.82l-.34,42.45c-.02,3.34-1.83,5.5-4.61,5.5-.81,0-1.68-.18-2.58-.55l-29.54-11.83c-4.35-1.76-7.87-7.06-7.85-11.82l.34-42.46c.01-3.34,1.82-5.5,4.6-5.5M242.74,212.3c-3.25,0-5.59,2.48-5.6,6.49l-.34,42.45c-.02,5.15,3.78,10.85,8.48,12.75l29.54,11.83c1.04.42,2.03.62,2.95.62,3.25,0,5.58-2.48,5.61-6.49l.34-42.45c.02-5.15-3.78-10.85-8.48-12.75l-29.54-11.83c-1.04-.42-2.03-.62-2.95-.62h0Z"/>
    </g>
    <text class="st10" transform="translate(240.23 248.02) rotate(21.06) scale(.8 .93) skewX(24.11)"><tspan x="0" y="0">Risotto</tspan></text>
  </g>
  <polygon class="st4" points="310.27 184.98 54.45 83.74 54.33 264.78 309.58 365.78 310.27 184.98"/>
  <g class="st12">
    <g>
      <g>
        <path class="st11" d="M123.15,223.14c-.88,0-1.81-.2-2.76-.58l-29.54-11.83c-4.52-1.83-8.18-7.34-8.16-12.29l.34-42.45c.01-3.64,2.02-6,5.1-6,.88,0,1.81.2,2.76.58l29.54,11.83c4.52,1.83,8.18,7.34,8.16,12.29l-.34,42.45c-.02,3.64-2.03,6-5.11,6Z"/>
        <path d="M88.12,150.5h0c.81,0,1.68.18,2.58.55l29.54,11.83c4.35,1.76,7.87,7.06,7.85,11.82l-.34,42.45c-.02,3.34-1.83,5.5-4.61,5.5-.81,0-1.68-.18-2.58-.55l-29.54-11.83c-4.35-1.76-7.87-7.06-7.85-11.82l.34-42.46c.01-3.34,1.82-5.5,4.6-5.5M88.12,149.5c-3.25,0-5.59,2.48-5.6,6.49l-.34,42.45c-.02,5.15,3.78,10.85,8.48,12.75l29.54,11.83c1.04.42,2.03.62,2.95.62,3.25,0,5.58-2.48,5.61-6.49l.34-42.45c.02-5.15-3.78-10.85-8.48-12.75l-29.54-11.83c-1.04-.42-2.03-.62-2.95-.62h0Z"/>
      </g>
      <text class="st9" transform="translate(87.06 185.94) rotate(21.06) scale(.8 .93) skewX(24.11)"><tspan x="0" y="0">Pasta</tspan></text>
      <g>
        <path class="st11" d="M155.02,252.82c-.88,0-1.81-.2-2.76-.58l-29.54-11.83c-4.52-1.83-8.18-7.34-8.16-12.29l.34-42.45c.01-3.64,2.02-6,5.1-6,.88,0,1.81.2,2.76.58l29.54,11.83c4.52,1.83,8.18,7.34,8.16,12.29l-.34,42.45c-.02,3.64-2.03,6-5.11,6Z"/>
        <path d="M120,180.17h0c.81,0,1.68.18,2.58.55l29.54,11.83c4.35,1.76,7.87,7.06,7.85,11.82l-.34,42.45c-.02,3.34-1.83,5.5-4.61,5.5-.81,0-1.68-.18-2.58-.55l-29.54-11.83c-4.35-1.76-7.87-7.06-7.85-11.82l.34-42.46c.01-3.34,1.82-5.5,4.6-5.5M120,179.17c-3.25,0-5.59,2.48-5.6,6.49l-.34,42.45c-.02,5.15,3.78,10.85,8.48,12.75l29.54,11.83c1.04.42,2.03.62,2.95.62,3.25,0,5.58-2.48,5.61-6.49l.34-42.45c.02-5.15-3.78-10.85-8.48-12.75l-29.54-11.83c-1.04-.42-2.03-.62-2.95-.62h0Z"/>
      </g>
      <text class="st9" transform="translate(118.94 215.61) rotate(21.06) scale(.8 .93) skewX(24.11)"><tspan x="0" y="0">Soup</tspan></text>
      <g>
        <path class="st11" d="M226.22,265.17c-.88,0-1.81-.19-2.76-.58l-29.54-11.83c-4.52-1.83-8.18-7.34-8.16-12.29l.34-42.45c.01-3.64,2.02-6,5.1-6,.88,0,1.81.2,2.76.58l29.54,11.83c4.52,1.83,8.18,7.34,8.16,12.29l-.34,42.45c-.02,3.64-2.03,6-5.11,6Z"/>
        <path d="M191.2,192.52h0c.81,0,1.68.18,2.58.55l29.54,11.83c4.35,1.76,7.87,7.06,7.85,11.82l-.34,42.45c-.02,3.34-1.83,5.5-4.61,5.5-.81,0-1.68-.18-2.58-.55l-29.54-11.83c-4.35-1.76-7.87-7.06-7.85-11.82l.34-42.46c.01-3.34,1.82-5.5,4.6-5.5M191.2,191.52c-3.25,0-5.59,2.48-5.6,6.49l-.34,42.45c-.02,5.15,3.78,10.85,8.48,12.75l29.54,11.83c1.04.42,2.03.62,2.95.62,3.25,0,5.58-2.48,5.61-6.49l.34-42.45c.02-5.15-3.78-10.85-8.48-12.75l-29.54-11.83c-1.04-.42-2.03-.62-2.95-.62h0Z"/>
      </g>
      <text class="st9" transform="translate(190.14 227.96) rotate(21.06) scale(.8 .93) skewX(24.11)"><tspan x="0" y="0">Salad</tspan></text>
      <g>
        <path class="st11" d="M329.3,306.31c-.88,0-1.81-.2-2.76-.58l-29.54-11.83c-4.52-1.83-8.18-7.34-8.16-12.29l.34-42.45c.01-3.64,2.02-6,5.1-6,.88,0,1.81.2,2.76.58l29.54,11.83c4.52,1.83,8.18,7.34,8.16,12.29l-.34,42.45c-.02,3.64-2.03,6-5.11,6Z"/>
        <path d="M294.28,233.66h0c.81,0,1.68.18,2.58.55l29.54,11.83c4.35,1.76,7.87,7.06,7.85,11.82l-.34,42.45c-.02,3.34-1.83,5.5-4.61,5.5-.81,0-1.68-.18-2.58-.55l-29.54-11.83c-4.35-1.76-7.87-7.06-7.85-11.82l.34-42.46c.01-3.34,1.82-5.5,4.6-5.5M294.27,232.66c-3.25,0-5.59,2.48-5.6,6.49l-.34,42.45c-.02,5.15,3.78,10.85,8.48,12.75l29.54,11.83c1.04.42,2.03.62,2.95.62,3.25,0,5.58-2.48,5.61-6.49l.34-42.45c.02-5.15-3.78-10.85-8.48-12.75l-29.54-11.83c-1.04-.42-2.03-.62-2.95-.62h0Z"/>
      </g>
      <text class="st9" transform="translate(293.21 269.1) rotate(21.06) scale(.8 .93) skewX(24.11)"><tspan x="0" y="0">Tacos</tspan></text>
      <g>
        <path class="st11" d="M277.76,285.95c-.88,0-1.81-.2-2.76-.58l-29.54-11.83c-4.52-1.83-8.18-7.34-8.16-12.29l.34-42.45c.01-3.64,2.02-6,5.1-6,.88,0,1.81.2,2.76.58l29.54,11.84c4.52,1.82,8.18,7.34,8.16,12.29l-.34,42.45c-.02,3.64-2.03,6-5.11,6Z"/>
        <path d="M242.74,213.3h0c.81,0,1.68.18,2.58.55l29.54,11.83c4.35,1.76,7.87,7.06,7.85,11.82l-.34,42.45c-.02,3.34-1.83,5.5-4.61,5.5-.81,0-1.68-.18-2.58-.55l-29.54-11.83c-4.35-1.76-7.87-7.06-7.85-11.82l.34-42.46c.01-3.34,1.82-5.5,4.6-5.5M242.74,212.3c-3.25,0-5.59,2.48-5.6,6.49l-.34,42.45c-.02,5.15,3.78,10.85,8.48,12.75l29.54,11.83c1.04.42,2.03.62,2.95.62,3.25,0,5.58-2.48,5.61-6.49l.34-42.45c.02-5.15-3.78-10.85-8.48-12.75l-29.54-11.83c-1.04-.42-2.03-.62-2.95-.62h0Z"/>
      </g>
      <text class="st10" transform="translate(240.23 248.02) rotate(21.06) scale(.8 .93) skewX(24.11)"><tspan x="0" y="0">Risotto</tspan></text>
    </g>
  </g>
</svg>