<?xml version="1.0" encoding="UTF-8"?>
<svg id="Layer_1" xmlns="http://www.w3.org/2000/svg" version="1.1" viewBox="0 0 595.28 841.89">
  <!-- Generator: Adobe Illustrator 30.2.1, SVG Export Plug-In . SVG Version: 2.1.1 Build 1)  -->
  <defs>
    <style>
      .st0 {
        stroke: #fff;
      }

      .st0, .st1, .st2, .st3, .st4, .st5 {
        stroke-miterlimit: 10;
      }

      .st0, .st1, .st4 {
        fill: none;
      }

      .st1, .st2, .st3 {
        stroke-dasharray: 3.38;
        stroke-width: 1.69px;
      }

      .st1, .st2, .st3, .st4 {
        stroke: #231f20;
      }

      .st1, .st2, .st3, .st6 {
        opacity: .5;
      }

      .st7 {
        font-size: 24.76px;
      }

      .st7, .st8, .st9, .st10 {
        font-family: MyriadPro-Regular, 'Myriad Pro';
      }

      .st2 {
        fill: #a8ffff;
      }

      .st8 {
        font-size: 30px;
      }

      .st9 {
        font-size: 27.89px;
      }

      .st10 {
        font-size: 30.07px;
      }

      .st3 {
        fill: #a8c4ff;
      }

      .st4 {
        stroke-width: .45px;
      }

      .st5 {
        fill: #e8e7e7;
        stroke: #7b7b7a;
      }

      .st11 {
        fill: #f7f7e4;
      }
    </style>
  </defs>
  <path class="st5" d="M482.18,680.8l-310.39-125.34c-14.51-5.86-26.22-23.47-26.16-39.35l1.05-336.2c.06-15.87,11.88-23.99,26.39-18.13l310.39,125.34c14.51,5.86,26.22,23.47,26.16,39.35l-1.04,336.2c-.09,15.87-11.89,23.99-26.4,18.13Z"/>
  <path class="st0" d="M442.83,277.29l37.52,15.15c12.73,5.15,23.01,20.6,22.95,34.53l-.15,47.36"/>
  <polygon class="st4" points="455.4 344.37 199.58 243.12 199.46 425.69 454.71 527.17 455.4 344.37"/>
  <path class="st1" d="M292.29,408.54l-41.98-16.82c-6.68-2.7-12.08-10.81-12.05-18.13l.49-60.34c.03-7.31,5.47-11.05,12.16-8.35l41.98,16.82c6.68,2.7,12.08,10.81,12.05,18.13l-.48,60.34c-.04,7.31-5.48,11.05-12.16,8.35Z"/>
  <path class="st1" d="M371.05,444.41l-41.98-16.82c-6.68-2.7-12.08-10.81-12.05-18.13l.49-60.34c.03-7.31,5.47-11.05,12.16-8.35l41.98,16.82c6.68,2.7,12.08,10.81,12.05,18.13l-.48,60.34c-.04,7.31-5.48,11.05-12.16,8.35Z"/>
  <g class="st6">
    <line class="st2" x1="87.23" y1="474.34" x2="199.64" y2="425.95"/>
    <polygon class="st3" points="455.58 344.62 343.74 390.5 87.61 290.85 199.78 243.39 455.58 344.62"/>
    <polygon class="st3" points="455.6 344.61 343.74 390.5 343.27 572.94 454.77 527.33 455.6 344.61"/>
    <polygon class="st3" points="87.58 290.57 343.74 390.5 343.27 572.94 87.23 474.34 87.58 290.57"/>
  </g>
  <g class="st6">
    <g>
      <path class="st11" d="M225,442.24c-1.28,0-2.62-.28-4.01-.84l-41.98-16.82c-6.5-2.62-11.76-10.55-11.74-17.66l.49-60.34c.02-5.31,2.95-8.73,7.46-8.73,1.28,0,2.63.28,4.01.84l41.98,16.82c6.5,2.62,11.76,10.55,11.74,17.66l-.48,60.34c-.03,5.3-2.96,8.73-7.47,8.73Z"/>
      <path d="M175.22,337.35v1c1.21,0,2.5.27,3.82.81l41.98,16.82c6.33,2.55,11.45,10.27,11.42,17.19l-.48,60.34c-.03,5-2.76,8.23-6.97,8.23-1.21,0-2.5-.27-3.82-.81l-41.98-16.82c-6.33-2.55-11.45-10.27-11.42-17.19l.49-60.34c.02-5,2.75-8.23,6.96-8.23v-1M175.22,337.35c-4.63,0-7.94,3.53-7.96,9.23l-.49,60.34c-.03,7.32,5.37,15.43,12.05,18.13l41.98,16.82c1.47.6,2.89.88,4.19.88,4.62,0,7.94-3.53,7.97-9.23l.48-60.34c.03-7.32-5.37-15.43-12.05-18.13l-41.98-16.82c-1.47-.6-2.89-.88-4.19-.88h0Z"/>
    </g>
    <text class="st8" transform="translate(173.71 389.14) rotate(21.06) scale(.8 .93) skewX(24.11)"><tspan x="0" y="0">Pasta</tspan></text>
    <g>
      <path class="st11" d="M296.19,464.67c-6.44,0-12.98-3.41-15.9-8.29l-30.84-52.06c-1.67-2.79-2-5.73-.93-8.29,1.16-2.78,3.8-4.8,7.42-5.69l47.19-11.68c1.26-.31,2.61-.47,3.99-.47,6.44,0,12.98,3.41,15.9,8.29l30.85,52.05c1.66,2.79,1.99,5.74.92,8.3-1.17,2.78-3.8,4.8-7.42,5.68l-47.19,11.68c-1.26.31-2.61.47-3.99.47Z"/>
      <path d="M307.12,377.7v1c6.27,0,12.63,3.31,15.47,8.05l30.85,52.06c1.58,2.65,1.89,5.44.88,7.85-1.1,2.63-3.61,4.54-7.08,5.39l-47.19,11.67c-1.23.3-2.53.45-3.87.45-6.27,0-12.64-3.31-15.47-8.05l-30.84-52.07c-1.58-2.64-1.9-5.43-.89-7.84,1.1-2.63,3.61-4.55,7.08-5.4l47.19-11.67c1.23-.3,2.53-.45,3.87-.45v-1M307.12,377.7c-1.39,0-2.78.16-4.11.48l-47.19,11.67c-7.52,1.84-10.57,8.43-6.81,14.72l30.84,52.06c3.1,5.18,9.85,8.54,16.33,8.54,1.39,0,2.78-.16,4.11-.48l47.19-11.67c7.52-1.84,10.57-8.43,6.81-14.73l-30.85-52.06c-3.1-5.18-9.85-8.54-16.33-8.54h0Z"/>
    </g>
    <text class="st10" transform="translate(277 437.07) rotate(-14.63) scale(.86 .96) skewX(18.25)"><tspan x="0" y="0">Tacos</tspan></text>
    <g>
      <path class="st11" d="M330.01,466.88c-.54,0-1.1-.03-1.66-.1l-47.12-5.32c-7.3-.84-14.47-6.87-15.99-13.44l-12.64-55.93c-.64-2.75-.18-5.28,1.29-7.13,1.57-1.97,4.14-3.05,7.26-3.05.54,0,1.1.03,1.66.1l47.12,5.32c7.3.84,14.47,6.87,15.99,13.44l12.65,55.93c.63,2.75.17,5.29-1.31,7.13-1.57,1.96-4.14,3.05-7.26,3.05Z"/>
      <path d="M261.15,381.41v1c.52,0,1.06.03,1.61.1l47.12,5.32c7.11.82,14.09,6.68,15.56,13.05l12.65,55.93c.59,2.6.16,4.98-1.21,6.71-1.47,1.84-3.91,2.86-6.86,2.86-.52,0-1.06-.03-1.61-.1l-47.12-5.32c-7.11-.82-14.09-6.68-15.56-13.05l-12.65-55.93c-.6-2.6-.17-4.98,1.2-6.7,1.47-1.85,3.91-2.86,6.87-2.86v-1M261.15,381.41c-6.5,0-10.48,4.55-9.04,10.79l12.64,55.93c1.56,6.77,8.92,12.96,16.42,13.83l47.12,5.32c.59.07,1.16.1,1.72.1,6.5,0,10.48-4.55,9.05-10.79l-12.65-55.93c-1.56-6.77-8.92-12.96-16.42-13.83l-47.12-5.32c-.59-.07-1.16-.1-1.72-.1h0Z"/>
    </g>
    <text class="st7" transform="translate(265.72 429.55) rotate(5.74) scale(.89 .95) skewX(20.15)"><tspan x="0" y="0">Risotto</tspan></text>
    <g>
      <path class="st11" d="M307.16,478.96c-1.28,0-2.62-.28-4.01-.84l-41.99-16.82c-6.5-2.62-11.76-10.55-11.74-17.66l.49-60.34c.02-5.3,2.95-8.73,7.46-8.73,1.28,0,2.63.28,4.01.84l41.99,16.82c6.5,2.62,11.76,10.55,11.74,17.66l-.48,60.34c-.03,5.3-2.96,8.73-7.47,8.73Z"/>
      <path d="M257.38,374.07v1c1.21,0,2.5.27,3.82.81l41.98,16.82c6.33,2.55,11.45,10.27,11.42,17.19l-.48,60.34c-.03,5-2.76,8.23-6.97,8.23-1.21,0-2.5-.27-3.82-.81l-41.98-16.82c-6.33-2.55-11.45-10.27-11.42-17.19l.49-60.34c.02-5,2.75-8.23,6.96-8.23v-1M257.38,374.07c-4.63,0-7.94,3.53-7.96,9.23l-.49,60.34c-.03,7.32,5.37,15.43,12.05,18.13l41.98,16.82c1.47.6,2.89.88,4.19.88,4.62,0,7.94-3.53,7.97-9.23l.48-60.34c.03-7.32-5.37-15.43-12.05-18.13l-41.98-16.82c-1.47-.6-2.89-.88-4.19-.88h0Z"/>
    </g>
    <text class="st8" transform="translate(255.87 425.86) rotate(21.06) scale(.8 .93) skewX(24.11)"><tspan x="0" y="0">Salad</tspan></text>
    <g>
      <path class="st11" d="M287.33,481.55c-2.18,0-4.45-.73-6.56-2.12l-39.28-25.78c-6.05-3.99-9.09-12.24-6.77-18.39l20.05-52.45c1.4-3.72,4.52-5.94,8.35-5.94,2.19,0,4.45.73,6.56,2.13l39.28,25.78c6.05,3.99,9.09,12.24,6.77,18.39l-20.05,52.45c-1.41,3.72-4.54,5.94-8.36,5.94Z"/>
      <path d="M263.13,377.37h0c2.09,0,4.26.71,6.29,2.04l39.28,25.77c5.87,3.87,8.82,11.86,6.58,17.79l-20.05,52.45c-1.33,3.52-4.28,5.62-7.89,5.62-2.09,0-4.26-.71-6.29-2.04l-39.28-25.77c-5.87-3.87-8.82-11.86-6.58-17.79l20.06-52.45c1.33-3.52,4.27-5.62,7.88-5.62M263.13,376.37c-3.88,0-7.29,2.21-8.82,6.26l-20.06,52.45c-2.4,6.37.72,14.86,6.97,18.99l39.28,25.78c2.26,1.49,4.63,2.21,6.83,2.21,3.88,0,7.29-2.21,8.83-6.26l20.05-52.45c2.4-6.37-.72-14.86-6.97-18.99l-39.28-25.78c-2.26-1.49-4.63-2.21-6.84-2.21h0Z"/>
    </g>
    <text class="st9" transform="translate(247.4 421.43) rotate(32.55) scale(.9 .98) skewX(13.19)"><tspan x="0" y="0">Soup</tspan></text>
  </g>
  <g class="st6">
    <g>
      <path class="st11" d="M225,442.24c-1.28,0-2.62-.28-4.01-.84l-41.98-16.82c-6.5-2.62-11.76-10.55-11.74-17.66l.49-60.34c.02-5.31,2.95-8.73,7.46-8.73,1.28,0,2.63.28,4.01.84l41.98,16.82c6.5,2.62,11.76,10.55,11.74,17.66l-.48,60.34c-.03,5.3-2.96,8.73-7.47,8.73Z"/>
      <path d="M175.22,337.35v1c1.21,0,2.5.27,3.82.81l41.98,16.82c6.33,2.55,11.45,10.27,11.42,17.19l-.48,60.34c-.03,5-2.76,8.23-6.97,8.23-1.21,0-2.5-.27-3.82-.81l-41.98-16.82c-6.33-2.55-11.45-10.27-11.42-17.19l.49-60.34c.02-5,2.75-8.23,6.96-8.23v-1M175.22,337.35c-4.63,0-7.94,3.53-7.96,9.23l-.49,60.34c-.03,7.32,5.37,15.43,12.05,18.13l41.98,16.82c1.47.6,2.89.88,4.19.88,4.62,0,7.94-3.53,7.97-9.23l.48-60.34c.03-7.32-5.37-15.43-12.05-18.13l-41.98-16.82c-1.47-.6-2.89-.88-4.19-.88h0Z"/>
    </g>
    <text class="st8" transform="translate(173.71 389.14) rotate(21.06) scale(.8 .93) skewX(24.11)"><tspan x="0" y="0">Pasta</tspan></text>
    <g>
      <path class="st11" d="M296.19,464.67c-6.44,0-12.98-3.41-15.9-8.29l-30.84-52.06c-1.67-2.79-2-5.73-.93-8.29,1.16-2.78,3.8-4.8,7.42-5.69l47.19-11.68c1.26-.31,2.61-.47,3.99-.47,6.44,0,12.98,3.41,15.9,8.29l30.85,52.05c1.66,2.79,1.99,5.74.92,8.3-1.17,2.78-3.8,4.8-7.42,5.68l-47.19,11.68c-1.26.31-2.61.47-3.99.47Z"/>
      <path d="M307.12,377.7v1c6.27,0,12.63,3.31,15.47,8.05l30.85,52.06c1.58,2.65,1.89,5.44.88,7.85-1.1,2.63-3.61,4.54-7.08,5.39l-47.19,11.67c-1.23.3-2.53.45-3.87.45-6.27,0-12.64-3.31-15.47-8.05l-30.84-52.07c-1.58-2.64-1.9-5.43-.89-7.84,1.1-2.63,3.61-4.55,7.08-5.4l47.19-11.67c1.23-.3,2.53-.45,3.87-.45v-1M307.12,377.7c-1.39,0-2.78.16-4.11.48l-47.19,11.67c-7.52,1.84-10.57,8.43-6.81,14.72l30.84,52.06c3.1,5.18,9.85,8.54,16.33,8.54,1.39,0,2.78-.16,4.11-.48l47.19-11.67c7.52-1.84,10.57-8.43,6.81-14.73l-30.85-52.06c-3.1-5.18-9.85-8.54-16.33-8.54h0Z"/>
    </g>
    <text class="st10" transform="translate(277 437.07) rotate(-14.63) scale(.86 .96) skewX(18.25)"><tspan x="0" y="0">Tacos</tspan></text>
    <g>
      <path class="st11" d="M330.01,466.88c-.54,0-1.1-.03-1.66-.1l-47.12-5.32c-7.3-.84-14.47-6.87-15.99-13.44l-12.64-55.93c-.64-2.75-.18-5.28,1.29-7.13,1.57-1.97,4.14-3.05,7.26-3.05.54,0,1.1.03,1.66.1l47.12,5.32c7.3.84,14.47,6.87,15.99,13.44l12.65,55.93c.63,2.75.17,5.29-1.31,7.13-1.57,1.96-4.14,3.05-7.26,3.05Z"/>
      <path d="M261.15,381.41v1c.52,0,1.06.03,1.61.1l47.12,5.32c7.11.82,14.09,6.68,15.56,13.05l12.65,55.93c.59,2.6.16,4.98-1.21,6.71-1.47,1.84-3.91,2.86-6.86,2.86-.52,0-1.06-.03-1.61-.1l-47.12-5.32c-7.11-.82-14.09-6.68-15.56-13.05l-12.65-55.93c-.6-2.6-.17-4.98,1.2-6.7,1.47-1.85,3.91-2.86,6.87-2.86v-1M261.15,381.41c-6.5,0-10.48,4.55-9.04,10.79l12.64,55.93c1.56,6.77,8.92,12.96,16.42,13.83l47.12,5.32c.59.07,1.16.1,1.72.1,6.5,0,10.48-4.55,9.05-10.79l-12.65-55.93c-1.56-6.77-8.92-12.96-16.42-13.83l-47.12-5.32c-.59-.07-1.16-.1-1.72-.1h0Z"/>
    </g>
    <text class="st7" transform="translate(265.72 429.55) rotate(5.74) scale(.89 .95) skewX(20.15)"><tspan x="0" y="0">Risotto</tspan></text>
    <g>
      <path class="st11" d="M307.16,478.96c-1.28,0-2.62-.28-4.01-.84l-41.99-16.82c-6.5-2.62-11.76-10.55-11.74-17.66l.49-60.34c.02-5.3,2.95-8.73,7.46-8.73,1.28,0,2.63.28,4.01.84l41.99,16.82c6.5,2.62,11.76,10.55,11.74,17.66l-.48,60.34c-.03,5.3-2.96,8.73-7.47,8.73Z"/>
      <path d="M257.38,374.07v1c1.21,0,2.5.27,3.82.81l41.98,16.82c6.33,2.55,11.45,10.27,11.42,17.19l-.48,60.34c-.03,5-2.76,8.23-6.97,8.23-1.21,0-2.5-.27-3.82-.81l-41.98-16.82c-6.33-2.55-11.45-10.27-11.42-17.19l.49-60.34c.02-5,2.75-8.23,6.96-8.23v-1M257.38,374.07c-4.63,0-7.94,3.53-7.96,9.23l-.49,60.34c-.03,7.32,5.37,15.43,12.05,18.13l41.98,16.82c1.47.6,2.89.88,4.19.88,4.62,0,7.94-3.53,7.97-9.23l.48-60.34c.03-7.32-5.37-15.43-12.05-18.13l-41.98-16.82c-1.47-.6-2.89-.88-4.19-.88h0Z"/>
    </g>
    <text class="st8" transform="translate(255.87 425.86) rotate(21.06) scale(.8 .93) skewX(24.11)"><tspan x="0" y="0">Salad</tspan></text>
    <g>
      <path class="st11" d="M287.33,481.55c-2.18,0-4.45-.73-6.56-2.12l-39.28-25.78c-6.05-3.99-9.09-12.24-6.77-18.39l20.05-52.45c1.4-3.72,4.52-5.94,8.35-5.94,2.19,0,4.45.73,6.56,2.13l39.28,25.78c6.05,3.99,9.09,12.24,6.77,18.39l-20.05,52.45c-1.41,3.72-4.54,5.94-8.36,5.94Z"/>
      <path d="M263.13,377.37h0c2.09,0,4.26.71,6.29,2.04l39.28,25.77c5.87,3.87,8.82,11.86,6.58,17.79l-20.05,52.45c-1.33,3.52-4.28,5.62-7.89,5.62-2.09,0-4.26-.71-6.29-2.04l-39.28-25.77c-5.87-3.87-8.82-11.86-6.58-17.79l20.06-52.45c1.33-3.52,4.27-5.62,7.88-5.62M263.13,376.37c-3.88,0-7.29,2.21-8.82,6.26l-20.06,52.45c-2.4,6.37.72,14.86,6.97,18.99l39.28,25.78c2.26,1.49,4.63,2.21,6.83,2.21,3.88,0,7.29-2.21,8.83-6.26l20.05-52.45c2.4-6.37-.72-14.86-6.97-18.99l-39.28-25.78c-2.26-1.49-4.63-2.21-6.84-2.21h0Z"/>
    </g>
    <text class="st9" transform="translate(247.4 421.43) rotate(32.55) scale(.9 .98) skewX(13.19)"><tspan x="0" y="0">Soup</tspan></text>
  </g>
</svg>