<?xml version="1.0" encoding="UTF-8"?>
<svg id="Layer_1" xmlns="http://www.w3.org/2000/svg" xmlns:xlink="http://www.w3.org/1999/xlink" version="1.1" viewBox="0 0 394.28 523.82">
  <!-- Generator: Adobe Illustrator 30.2.1, SVG Export Plug-In . SVG Version: 2.1.1 Build 1)  -->
  <defs>
    <style>
      .st0 {
        mask: url(#mask);
      }

      .st1 {
        fill: #a8ffc1;
      }

      .st1, .st2, .st3, .st4, .st5, .st6, .st7, .st8, .st9, .st10, .st11 {
        stroke-miterlimit: 10;
      }

      .st1, .st3, .st12 {
        opacity: .5;
      }

      .st1, .st3, .st10 {
        stroke: #231f20;
        stroke-dasharray: 3.38;
        stroke-width: 1.69px;
      }

      .st13, .st14, .st15 {
        font-family: SFMono-Medium, 'SF Mono';
        font-size: 18.33px;
        font-weight: 500;
      }

      .st13, .st16 {
        fill: #305dbf;
      }

      .st17 {
        fill: url(#linear-gradient2);
      }

      .st18 {
        fill: url(#linear-gradient1);
      }

      .st19, .st14 {
        fill: #bf3030;
      }

      .st2 {
        stroke: #fff;
      }

      .st2, .st4, .st5, .st6, .st7, .st9, .st10 {
        fill: none;
      }

      .st20 {
        fill: url(#linear-gradient);
      }

      .st3 {
        fill: #a8ffff;
      }

      .st4, .st5, .st6, .st7, .st9, .st11 {
        stroke-width: 2px;
      }

      .st4, .st9 {
        stroke-dasharray: 3.38 3.38;
      }

      .st4, .st11 {
        stroke: #305dbf;
      }

      .st21, .st15 {
        fill: #37bf30;
      }

      .st22 {
        mask: url(#mask-2);
      }

      .st23 {
        mask: url(#mask-1);
      }

      .st24, .st8 {
        fill: #e8e7e7;
      }

      .st5 {
        stroke-dasharray: 3.38 3.32;
      }

      .st5, .st6 {
        stroke: #37bf30;
      }

      .st25, .st11 {
        fill: #fff;
      }

      .st26 {
        opacity: .28;
      }

      .st7, .st9 {
        stroke: #bf3030;
      }

      .st8 {
        stroke: #7b7b7a;
      }

      .st10 {
        opacity: .06;
      }
    </style>
    <linearGradient id="linear-gradient" x1="394.35" y1="-254.34" x2="421.41" y2="-254.34" gradientTransform="translate(-528.35 561.14) scale(1.8 1)" gradientUnits="userSpaceOnUse">
      <stop offset="0" stop-color="#fff"/>
      <stop offset="1" stop-color="#000"/>
    </linearGradient>
    <mask id="mask" x="181.45" y="294.85" width="47" height="23.91" maskUnits="userSpaceOnUse">
      <rect class="st20" x="180.63" y="304.04" width="48.65" height="5.52" transform="translate(-102.73 103.17) rotate(-22.76)"/>
    </mask>
    <linearGradient id="linear-gradient1" x1="356.7" y1="-423.69" x2="382.69" y2="-423.69" gradientTransform="translate(-588.87 599.88) scale(1.8 1)" xlink:href="#linear-gradient"/>
    <mask id="mask-1" x="52.93" y="165.69" width="45.72" height="20.99" maskUnits="userSpaceOnUse">
      <rect class="st18" x="52.43" y="173.54" width="46.73" height="5.3" transform="translate(-55.76 36.62) rotate(-20.03)"/>
    </mask>
    <linearGradient id="linear-gradient2" x1="339.12" y1="-348.32" x2="365.11" y2="-348.32" gradientTransform="translate(-557.02 606.8) scale(1.8 1)" xlink:href="#linear-gradient"/>
    <mask id="mask-2" x="53.14" y="248.05" width="45.76" height="20.84" maskUnits="userSpaceOnUse">
      <rect class="st17" x="52.66" y="255.82" width="46.73" height="5.3" transform="translate(-83.19 41.13) rotate(-19.83)"/>
    </mask>
  </defs>
  <g class="st12">
    <line class="st3" x1="55.39" y1="267.59" x2="165.98" y2="224.93"/>
    <polygon class="st1" points="391.96 155.23 312.28 186.24 56.15 86.59 136.16 54 391.96 155.23"/>
    <polygon class="st1" points="391.98 155.22 312.28 186.24 311.81 366.67 391.15 335.95 391.98 155.22"/>
    <polygon class="st3" points="56.12 86.3 312.28 186.24 311.81 366.67 55.39 267.59 56.12 86.3"/>
  </g>
  <path class="st8" d="M337.05,521.41L26.66,396.07c-14.51-5.86-26.22-23.47-26.16-39.35L1.56,20.53C1.62,4.66,13.43-3.46,27.94,2.4l310.39,125.34c14.51,5.86,26.22,23.47,26.16,39.35l-1.04,336.2c-.09,15.87-11.89,23.99-26.4,18.13Z"/>
  <polyline points="155.03 359.01 155.29 348.1 57.37 309.35 57.33 320.17"/>
  <polyline class="st12" points="147.09 369.94 147.35 363.28 59.75 329.05 59.7 335.61"/>
  <rect class="st24" x="75.69" y="312.95" width="4.94" height="18.41"/>
  <rect class="st24" x="99.42" y="321.06" width="4.94" height="18.41"/>
  <rect class="st24" x="141.34" y="340.6" width="4.94" height="18.41"/>
  <rect class="st24" x="151.82" y="345.83" width="4.94" height="18.41"/>
  <rect class="st24" x="73.12" y="330.04" width="4.94" height="18.41"/>
  <rect class="st24" x="112.86" y="344.87" width="4.94" height="18.41"/>
  <polyline class="st12" points="147.09 381.23 147.35 374.58 59.75 340.34 59.7 346.9"/>
  <polygon class="st24" points="130.07 377.44 125.12 375.35 125.12 363.96 130.07 366.05 130.07 377.44"/>
  <polygon class="st24" points="112.11 371.26 107.17 368.84 107.17 354.39 112.11 356.8 112.11 371.26"/>
  <rect class="st24" x="82.78" y="347.68" width="4.94" height="11.27"/>
  <polygon class="st24" points="148.02 383.66 143.08 380.49 143.08 369.03 148.02 372.2 148.02 383.66"/>
  <path class="st2" d="M299.14,118.79l37.52,15.15c12.73,5.15,23.01,20.6,22.95,34.53l-.15,47.36"/>
  <g class="st0">
    <line class="st1" x1="226.59" y1="298.65" x2="183.84" y2="317.45"/>
  </g>
  <g class="st23">
    <line class="st1" x1="96.92" y1="169.36" x2="55.04" y2="185.43"/>
  </g>
  <g class="st22">
    <line class="st1" x1="97.18" y1="251.71" x2="55.24" y2="267.65"/>
  </g>
  <polygon class="st1" points="311.71 185.86 55.89 84.62 55.39 267.86 311.02 366.67 311.71 185.86"/>
  <polyline class="st10" points="91.39 107.82 90.98 258.04 301.07 339.25"/>
  <g>
    <line class="st25" x1="210.18" y1="305.28" x2="210.18" y2="146.11"/>
    <g>
      <line class="st6" x1="210.18" y1="299.63" x2="210.18" y2="146.11"/>
      <polygon class="st21" points="210.18 305.28 213.43 297.32 210.18 299.2 206.92 297.32 210.18 305.28"/>
    </g>
  </g>
  <g class="st12">
    <line class="st25" x1="210.18" y1="146.11" x2="210.18" y2="119.68"/>
    <g>
      <line class="st5" x1="210.18" y1="146.11" x2="210.18" y2="125.32"/>
      <polygon class="st21" points="210.18 119.68 213.43 127.63 210.18 125.75 206.92 127.63 210.18 119.68"/>
    </g>
  </g>
  <g class="st12">
    <line class="st25" x1="295.97" y1="179.89" x2="323.02" y2="168.74"/>
    <g>
      <line class="st4" x1="295.97" y1="179.89" x2="317.8" y2="170.89"/>
      <polygon class="st16" points="323.02 168.74 316.9 174.78 317.41 171.06 314.43 168.77 323.02 168.74"/>
    </g>
  </g>
  <line class="st11" x1="210.56" y1="215.08" x2="295.97" y2="179.89"/>
  <text class="st13" transform="translate(285.53 163.33)"><tspan x="0" y="0">15cm</tspan></text>
  <text class="st13" transform="translate(162.44 305.27)"><tspan x="0" y="0">2cm</tspan></text>
  <text class="st14" transform="translate(315.32 282.82)"><tspan x="0" y="0">10cm</tspan></text>
  <g class="st12">
    <text class="st15" transform="translate(215.92 125.37)"><tspan x="0" y="0">8cm</tspan></text>
  </g>
  <text class="st15" transform="translate(212.12 276.54)"><tspan x="0" y="0">8cm</tspan></text>
  <g class="st26">
    <path d="M57.77,67.14l-.22-24.79,10.21,4.09.02,2.78-8.15-3.27.07,7.95,7.73,3.1.03,2.75-7.73-3.1.08,8.52,8.15,3.27.03,2.78-10.21-4.09Z"/>
    <path d="M69.45,71.83l3.96-7.31-4.05-10.53,2.21.89,2.92,7.84.05.02,2.76-5.57,2.21.89-3.93,7.21,4.03,10.64-2.2-.88-2.9-7.94-.05-.02-2.8,5.65-2.2-.88Z"/>
    <path d="M81.43,76.63l-.22-24.79,1.99.8.09,9.77.04.02c.31-.88.78-1.47,1.41-1.78s1.38-.29,2.26.07c.84.34,1.59.94,2.23,1.81.64.87,1.14,1.92,1.51,3.15.37,1.23.56,2.57.57,4.01l.1,10.94-1.99-.8-.09-10.43c-.01-1.61-.29-2.98-.81-4.09s-1.25-1.85-2.18-2.23c-.61-.25-1.14-.24-1.6,0-.46.25-.81.71-1.06,1.37-.25.67-.37,1.51-.36,2.53l.09,10.43-1.99-.8Z"/>
    <path d="M94.86,61.21c-.34-.14-.64-.44-.88-.9-.25-.46-.37-.95-.38-1.47,0-.53.11-.92.35-1.18.24-.26.53-.33.87-.19.35.14.65.44.89.9.24.46.37.95.37,1.48,0,.52-.11.91-.35,1.18-.24.27-.53.34-.88.2ZM94.05,81.7l-.16-17.87,1.99.8.16,17.87-1.99-.8Z"/>
    <path d="M104.65,86.29c-.56-.23-1.09-.57-1.57-1.04-.48-.47-.91-1.02-1.28-1.67-.37-.65-.69-1.37-.95-2.17l-.04-.02.03,3.02-1.99-.8-.22-24.79,1.99.8.09,9.91.04.02c.25-.59.55-1.05.93-1.4.37-.35.8-.56,1.29-.63.48-.07,1,0,1.56.22,1,.4,1.87,1.13,2.63,2.19.76,1.06,1.35,2.37,1.79,3.93.44,1.56.66,3.27.68,5.15v.02c.02,1.88-.18,3.43-.58,4.65-.41,1.22-.99,2.06-1.74,2.52-.75.46-1.63.48-2.64.08ZM104.24,83.49c.7.28,1.3.26,1.81-.07.51-.33.89-.94,1.16-1.82.26-.89.39-2.01.38-3.37v-.02c-.01-1.36-.16-2.59-.44-3.69-.28-1.09-.68-2.01-1.2-2.76-.51-.74-1.12-1.25-1.82-1.54-.67-.27-1.26-.23-1.77.11-.51.34-.91.95-1.2,1.82-.29.87-.43,1.97-.41,3.3v.02c.01,1.33.17,2.55.47,3.66.3,1.11.71,2.05,1.24,2.81.52.76,1.12,1.27,1.79,1.54Z"/>
    <path d="M112.63,68.33c-.34-.14-.64-.44-.88-.9-.25-.46-.37-.95-.38-1.47,0-.53.11-.92.35-1.18.24-.26.53-.33.87-.19.35.14.65.44.89.9.24.46.37.95.37,1.48,0,.52-.11.91-.35,1.18-.24.27-.53.34-.88.2ZM111.82,88.82l-.16-17.87,1.99.8.16,17.87-1.99-.8Z"/>
    <path d="M120.38,92.6c-1.09-.44-1.91-1.15-2.45-2.15-.55-1-.83-2.35-.84-4.05l-.1-10.84-1.74-.7-.02-2.47,1.74.7-.04-4.83,2.06.82.04,4.83,2.26.91.02,2.47-2.26-.91.1,10.82c0,.95.15,1.65.43,2.1.28.45.68.78,1.22.99.12.05.24.09.35.11.11.03.21.05.29.07l.02,2.42c-.12-.03-.28-.06-.47-.11-.19-.05-.39-.11-.59-.19Z"/>
    <path d="M127.35,95.05l5.91-22.33,1.52.61.03,3.71-.53-.21-4.78,19.09-2.16-.87ZM130.09,89.09l.66-2.35,7.31,2.93.71,2.9-8.68-3.48ZM139.48,99.92l-5.15-23.07-.03-3.71.99.4,6.34,27.24-2.16-.87Z"/>
    <path d="M144.43,102.15c-.37-.15-.68-.46-.93-.94-.25-.48-.38-.99-.39-1.54s.12-.96.36-1.24c.25-.28.55-.34.92-.2.37.15.68.46.93.94.25.48.38.99.39,1.54s-.12.96-.36,1.24c-.25.28-.55.34-.92.2Z"/>
  </g>
  <g class="st12">
    <line class="st25" x1="310.35" y1="256.24" x2="329.37" y2="263.99"/>
    <g>
      <line class="st9" x1="310.35" y1="256.24" x2="324.14" y2="261.86"/>
      <polygon class="st19" points="329.37 263.99 320.77 264 323.75 261.7 323.23 257.98 329.37 263.99"/>
    </g>
  </g>
  <g>
    <line class="st25" x1="97.04" y1="169.29" x2="310.35" y2="256.24"/>
    <g>
      <line class="st7" x1="102.27" y1="171.42" x2="310.35" y2="256.24"/>
      <polygon class="st19" points="97.04 169.29 103.18 175.31 102.66 171.58 105.64 169.29 97.04 169.29"/>
    </g>
  </g>
  <text class="st14" transform="translate(89.5 161.48)"><tspan x="0" y="0">10cm</tspan></text>
</svg>