<?xml version="1.0" encoding="UTF-8"?>
<svg id="Layer_1" xmlns="http://www.w3.org/2000/svg" xmlns:xlink="http://www.w3.org/1999/xlink" version="1.1" viewBox="0 0 377.79 523.82">
  <!-- Generator: Adobe Illustrator 30.2.1, SVG Export Plug-In . SVG Version: 2.1.1 Build 1)  -->
  <defs>
    <style>
      .st0, .st1, .st2, .st3, .st4, .st5 {
        fill: none;
      }

      .st6, .st1, .st7, .st2, .st3, .st8, .st4, .st9, .st10, .st11, .st12, .st5 {
        stroke-miterlimit: 10;
      }

      .st6, .st2, .st9, .st10, .st12 {
        stroke: #000;
      }

      .st6, .st13 {
        fill: #32fff5;
      }

      .st1, .st2 {
        opacity: .19;
      }

      .st1, .st3 {
        stroke: #fff;
      }

      .st7 {
        fill: #a8ffff;
      }

      .st7, .st8, .st14, .st15, .st16, .st5 {
        isolation: isolate;
      }

      .st7, .st8, .st17, .st5 {
        opacity: .5;
      }

      .st7, .st8, .st5 {
        stroke: #231f20;
        stroke-dasharray: 3.38;
        stroke-width: 1.69px;
      }

      .st8 {
        fill: #a8ffc1;
      }

      .st18 {
        fill: url(#linear-gradient);
      }

      .st4 {
        stroke: #37bf30;
        stroke-width: 3px;
      }

      .st9 {
        fill: url(#linear-gradient1);
      }

      .st10 {
        fill: url(#linear-gradient2);
      }

      .st15 {
        font-family: ArialMT, Arial;
        font-size: 30.25px;
      }

      .st11 {
        fill: #e8e7e7;
        stroke: #7b7b7a;
      }

      .st12, .st19 {
        fill: #eaff63;
      }

      .st16 {
        fill: #37bf30;
        font-family: SFMono-Medium, 'SF Mono';
        font-size: 29.9px;
        font-weight: 500;
      }

      .st20 {
        fill: #f7f7e4;
      }

      .st21 {
        clip-path: url(#clippath);
      }
    </style>
    <linearGradient id="linear-gradient" x1="187.52" y1="138.57" x2="232.25" y2="138.57" gradientTransform="translate(-.56 456.8) rotate(-21.09) scale(1.07 -.93) skewX(18.56)" gradientUnits="userSpaceOnUse">
      <stop offset="0" stop-color="#949494"/>
      <stop offset=".02" stop-color="#9c9c9c"/>
      <stop offset=".08" stop-color="#bfbfbf"/>
      <stop offset=".15" stop-color="#dbdbdb"/>
      <stop offset=".23" stop-color="#efefef"/>
      <stop offset=".3" stop-color="#fbfbfb"/>
      <stop offset=".37" stop-color="#fff"/>
      <stop offset=".46" stop-color="#f5f5f5"/>
      <stop offset=".6" stop-color="#dcdcdc"/>
      <stop offset=".79" stop-color="#b4b4b4"/>
      <stop offset="1" stop-color="#7d7d7d"/>
    </linearGradient>
    <clipPath id="clippath">
      <polygon class="st0" points="250.78 150.17 122.64 99.69 122.53 377.71 250.14 428.41 250.78 150.17"/>
    </clipPath>
    <linearGradient id="linear-gradient1" x1="186.89" y1="259.08" x2="231.66" y2="259.08" gradientTransform="translate(0 57.23) rotate(-21.16) scale(1.07 .93) skewX(-18.61)" gradientUnits="userSpaceOnUse">
      <stop offset="0" stop-color="#949494"/>
      <stop offset=".01" stop-color="#9c9c9c"/>
      <stop offset=".06" stop-color="#bfbfbf"/>
      <stop offset=".11" stop-color="#dbdbdb"/>
      <stop offset=".17" stop-color="#efefef"/>
      <stop offset=".22" stop-color="#fbfbfb"/>
      <stop offset=".27" stop-color="#fff"/>
      <stop offset=".37" stop-color="#f5f5f5"/>
      <stop offset=".54" stop-color="#dcdcdc"/>
      <stop offset=".75" stop-color="#b4b4b4"/>
      <stop offset="1" stop-color="#7d7d7d"/>
    </linearGradient>
    <linearGradient id="linear-gradient2" x1="132.52" y1="216.28" x2="230.85" y2="236.07" gradientTransform="translate(357.54 -6.34) rotate(68) scale(1.06 .94) skewX(-17.61)" gradientUnits="userSpaceOnUse">
      <stop offset="0" stop-color="#949494"/>
      <stop offset=".02" stop-color="#9c9c9c"/>
      <stop offset=".08" stop-color="#bfbfbf"/>
      <stop offset=".15" stop-color="#dbdbdb"/>
      <stop offset=".23" stop-color="#efefef"/>
      <stop offset=".3" stop-color="#fbfbfb"/>
      <stop offset=".37" stop-color="#fff"/>
      <stop offset=".46" stop-color="#f5f5f5"/>
      <stop offset=".6" stop-color="#dcdcdc"/>
      <stop offset=".79" stop-color="#b4b4b4"/>
      <stop offset="1" stop-color="#7d7d7d"/>
    </linearGradient>
  </defs>
  <g class="st17">
    <line class="st5" x1="112.9" y1="397.61" x2="105.07" y2="307.51"/>
    <polygon class="st8" points="375.47 101.22 251.37 149.82 113.28 97.13 237.72 46.95 375.47 101.22"/>
    <polygon class="st8" points="375.49 101.21 251.37 149.82 250.9 438.25 374.66 389.93 375.49 101.21"/>
    <polygon class="st7" points="113.26 105.84 251.37 158.82 250.9 449.25 112.9 397.61 113.26 105.84"/>
  </g>
  <path class="st11" d="M336.4,521.41L26.01,396.07C11.5,390.21-.21,372.6-.15,356.72L.91,20.53C.97,4.66,12.78-3.46,27.29,2.4l310.39,125.34c14.51,5.86,26.22,23.47,26.16,39.35l-1.04,336.2c-.09,15.87-11.89,23.99-26.4,18.13h0Z"/>
  <g class="st17">
    <g>
      <path class="st20" d="M260.9,384.5l-104.08-1.23c-16.57-.24-29.94-12.11-29.87-26.54l1.2-179.68c.07-14.42,13.57-25.92,30.13-25.68l104.08,1.23c16.57.24,29.94,12.11,29.87,26.54l-1.19,179.67c-.1,14.43-13.58,25.92-30.15,25.68h.01Z"/>
      <path d="M157.78,151.37h-.9c-.65.02-1.29.06-1.92.11h-.23c-.06,0-.11,0-.17.02l.1,1c1.08-.11,2.19-.16,3.28-.16v-1h0l-.16.03ZM151.06,152.03c-1.12.22-2.21.5-3.28.83l.3.96c1.04-.32,2.11-.59,3.18-.81l-.2-.98h0ZM144.6,154.04c-.14.06-.28.12-.43.19h0s-.05.02-.08.04h-.04s-.04.02-.06.03h-.06s-.04.02-.05.02h-.02s-.03,0-.05.02h-.12s0,0-.02,0h-.02s0,0-.02,0h-.02s-.03,0-.05.02h-.04s0,0-.02,0h0s-.03.02-.05.02h-.02s0,0-.02,0h0s-.03.02-.05.02h0s-.02,0-.02,0h0s0,0-.02,0h0s-.06.03-.09.05h0s-.06.03-.09.05h0c-.11.05-.22.11-.33.17h0s-.06.03-.09.05h0s0,0-.02,0h0s-.05.02-.07.04h-.02s0,0-.02,0h0s-.03.02-.04.02h-.04s0,0-.02,0h-.05s-.02,0-.03.02h-.04c-.2.11-.39.21-.59.32l.49.87c.94-.53,1.93-1.02,2.93-1.46l-.4-.92h0l-.2.34ZM138.73,157.38c-.71.52-1.39,1.07-2.05,1.64h0s-.04.03-.06.05h0s0,0,0,.02h0s0,0-.02,0h0l-.04.04h0c-.12.11-.24.22-.36.33l.68.73c.79-.73,1.63-1.43,2.52-2.08l-.59-.81h0l-.05.07ZM133.79,161.98c-.24.29-.47.58-.7.87h0s0,0,0,.02h0s-.02.03-.03.04h0s0,0,0,.02h0s0,.02,0,.03h0v.02h0s0,.02,0,.03h0v.02h0s0,.02-.02.03h0s0,0,0,.02h0s-.02.03-.04.05h0c-.36.49-.71,1-1.03,1.51l.85.53c.57-.91,1.22-1.79,1.91-2.63l-.77-.64h0l-.1.08ZM130.2,167.69c-.14.31-.28.63-.4.95h0v.02h0s0,.03-.02.05h0v.02h0s0,.03-.02.05h0v.02h0v.02h0v.02h0v.02h0v.03h0v.02h0s0,.04-.02.06h0s0,.04-.02.06h0v.02h0s-.02.05-.03.07h0c-.19.52-.37,1.05-.52,1.58h0v.02h0s0,.04-.02.06h0l.96.27c.29-1.03.67-2.05,1.11-3.04l-.91-.41h0l-.11.09ZM128.35,174.18c-.02.15-.04.29-.05.44h0v.02h0v.02h0v.02h0v.02h0v.02h0s0,.07,0,.11h0v.02h0v.02h0v.02h0v.02h0v.02h0v.02h0v.02h0s0,.07,0,.11h0v.02h0v.02h0v.02h0v.02h0v.02h0c0,.05,0,.1,0,.16h0v.02h0v.02h0v.02h0c-.03.41-.05.83-.06,1.24h0v.18h0v.02h0v.02h0v.02h0v.02h0v.02h0v.02h0v.02h0v.02h0v.48h1v-.5c0-.92.07-1.84.19-2.75l-.99-.13h0l-.06.1ZM128.13,180.94l-.02,3.38h1l.02-3.38h-1ZM128.08,187.7l-.02,3.38h1l.02-3.38h-1ZM128.04,194.47l-.02,3.38h1l.02-3.38h-1ZM127.99,201.24v1.51h-.01v.29h0v.07h0v.06h0v.03h0v.02h0v.06h0v.02h0v.03h0v.02h0v.05h0v.02h0v.02h0v.02h0v.04h0v.05h0v.02h0v.05h0v.04h0v.02h0v.02h0v.02h0v.02h0v.02h0v.04h0v.03h0v.03h0v.03h0v.02h0v.03h0v.05h0v.02h0v.02h0v.03h0v.02h0v.04h0v.05h0v.04h0v.18h0v.06h0v.05h0v.03h1l.02-3.38h-1v.09ZM127.95,208.01l-.02,3.38h1l.02-3.38h-1ZM127.9,214.78l-.02,3.38h1l.02-3.38h-1ZM127.86,221.55l-.02,3.38h1l.02-3.38h-1ZM127.81,228.31l-.02,3.38h1l.02-3.38h-1ZM127.77,235.08l-.02,3.38h1l.02-3.38h-1ZM127.72,241.85l-.02,3.38h1l.02-3.38h-1ZM127.67,248.62l-.02,3.38h1l.02-3.38h-1ZM127.63,255.39l-.02,3.38h1l.02-3.38h-1ZM127.58,262.16l-.02,3.38h1l.02-3.38h-1ZM127.54,268.93l-.02,3.38h1l.02-3.38h-1ZM127.49,275.69l-.02,3.38h1l.02-3.38h-1ZM127.45,282.46l-.02,3.38h1l.02-3.38h-1ZM127.4,289.23l-.02,3.38h1l.02-3.38h-1ZM127.36,296l-.02,3.38h1l.02-3.38h-1ZM127.31,302.77l-.02,3.38h1l.02-3.38h-1ZM127.27,309.54l-.02,3.38h1l.02-3.38h-1ZM127.22,316.3l-.02,3.38h1l.02-3.38h-1ZM127.18,323.07l-.02,3.38h1l.02-3.38h-1ZM127.13,329.84l-.02,3.38h1l.02-3.38h-1ZM127.08,336.61v1.51h-.01v.29h0v.06h0v.06h0v.03h0v.07h0v.02h0v.02h0v.02h0v.02h0v.03h0v.02h0v.02h0v.02h0v.03h0v.04h0v.02h0v.02h0v.02h0v.02h0v.07h0v.04h0v.02h0v.02h0v.07h0v.04h0v.07h0v.03h0v.09h0v.02h0v.04h0v.03h0v.06h0v.1h0v.17h0v.15h1l.02-3.38h-1v.02ZM127.04,343.38l-.02,3.38h1l.02-3.38h-1ZM126.99,350.15l-.02,3.38h1l.02-3.38h-1ZM127.95,356.91h-1v.15h0v.02h0v.08h0v.02h0v.05h0v.02h0v.04h0v.02h0v.02h0v.03h0v.02h0v.02h0v.02h0v.02h0v.02h0v.02h0v.02h0v.03h0v.02h0v.02h0v.08h0v.02h0v.08h0c.04.81.12,1.62.24,2.41l.99-.15c-.16-1.06-.24-2.15-.25-3.23h0l.02.13ZM128.91,363.29l-.96.29c.33,1.08.74,2.13,1.21,3.16l.91-.42c-.46-.98-.85-2-1.16-3.02h0ZM131.65,369.16l-.84.54s.02.03.03.04h0s.03.04.04.07h0s0,.01,0,.02h0s.02.03.03.04h0s0,.01,0,.02h0s.03.04.04.07h0s0,.02,0,.02h0s.03.04.04.07h0s0,.01,0,.02h0s.02.03.03.04h0s0,.01,0,.02h0s.03.04.04.06h0s0,.01,0,.02h0s.02.03.03.04h0s0,.01,0,.02h0s0,.01,0,.02h0s.02.03.03.04h0s0,.01,0,.02h0s0,.01,0,.02h0s0,.01,0,.02h0s0,.01,0,.02h0s0,.01,0,.02h0v.02h.02s0,.01,0,.02h0s0,.01,0,.02h0s0,.01,0,.02h0v.03s0,.01,0,.02h0v.02h0v.02s0,.01,0,.02h0v.02h0s0,.01.02.02h0v.02h0s0,.03.02.04h0s0,.01,0,.02h0s.02.03.03.05h0v.02h0c.36.49.73.96,1.12,1.43l.76-.64c-.7-.84-1.35-1.72-1.93-2.62h0l.27.18ZM135.83,374.14l-.68.73c.19.18.39.35.58.53h0s0,.01.02.01h0s.03.02.04.03h0s0,0,.02.01h0s0,.01,0,.02h0s0,.01.02.02h0s0,.01,0,.01h0s0,0,.02.01h.02s.03.02.04.04h0s0,.01,0,.02h0s.04.04.06.05h0c.51.45,1.05.87,1.59,1.27l.59-.81c-.88-.65-1.73-1.35-2.52-2.08h0l.12.14ZM141.09,378.01l-.5.87c.97.56,1.97,1.07,3.02,1.53l.41-.91c-1-.44-1.98-.94-2.92-1.49h-.01ZM147.07,380.67l-.31.95c.71.23,1.42.44,2.15.62h.06s.03,0,.05.01h.08s.05.01.08.02h.02c.25.06.51.12.76.17l.21-.98c-1.07-.23-2.14-.52-3.17-.85h0l.07.06ZM153.48,382.06l-.11.99c.49.06.98.1,1.48.14h.94c.27.01.54.02.81.02l.02-1c-1.1-.02-2.2-.09-3.28-.21h0l.14.06ZM160.14,382.31v1l3.37.04v-1l-3.37-.04h0ZM166.9,382.39v1l3.37.04v-1l-3.37-.04h0ZM173.67,382.47v1l3.37.04v-1l-3.37-.04h0ZM180.44,382.55v1l3.37.04v-1l-3.37-.04h0ZM187.21,382.63v1s2.58.03,3.23.04h.06v-1l-3.37-.04h.08ZM193.98,382.71v1l3.37.04v-1l-3.37-.04h0ZM200.74,382.79v1l1.53.02h0c.89.01,1.83.02,1.83.02v-1l-3.37-.04h0ZM207.51,382.87v1l3.37.04v-1l-3.37-.04h0ZM214.28,382.95v1s1.31.02,2.3.03h1.01v-.99s-3.37-.04-3.37-.04h.06ZM221.05,383.03v1l3.37.04v-1l-3.37-.04h0ZM227.82,383.11v1l1.63.02h.02c.85.01,1.71.02,1.71.02v-1l-3.37-.04h0ZM234.58,383.19v1l3.37.04v-1l-3.37-.04h0ZM241.35,383.27v1s.63,0,1.36.02h.11l1.89.02v-1l-3.37-.04h0ZM248.12,383.35v1l3.37.04v-1l-3.37-.04h0ZM254.89,383.43v1l1.8.02c.8,0,1.57.02,1.57.02v-1l-3.37-.04h0ZM264.92,383.33c-1.08.11-2.18.18-3.28.18v1c1.15,0,2.28-.07,3.38-.19l-.1-.99h0ZM271.33,381.99c-1.03.33-2.1.61-3.17.83l.2.98c.09-.02.17-.04.26-.06h0s.07-.02.1-.02h.08s.03,0,.05-.01h.18s.03,0,.05-.01h.29s.03,0,.05-.01h.06c.66-.17,1.31-.35,1.95-.55l-.3-.95h0l.2-.2ZM277.32,379.35c-.94.54-1.92,1.04-2.92,1.48l.4.92c.89-.39,1.75-.82,2.58-1.28h0s.02,0,.02-.01h0s.05-.03.07-.04h0s.01,0,.02-.01h0s.01,0,.02-.01h0s.03-.02.04-.02h.04s.01,0,.02-.01h0s.01,0,.02-.01h.04s.02,0,.02-.01h.02l-.5-.87h0l.11-.13ZM282.55,375.46c-.78.74-1.62,1.45-2.5,2.1l.6.8h0s.03-.02.05-.03h.02c.89-.67,1.73-1.38,2.52-2.13l-.69-.73h0ZM286.66,370.43c-.56.91-1.2,1.8-1.89,2.64l.77.63c.57-.7,1.1-1.42,1.59-2.16h0s.03-.04.04-.07h0s.02-.03.03-.05h0v-.02h0s.01-.02.02-.03h0v-.02h0v-.02h0v-.02h0s0-.02.01-.03h0v-.02h0s0-.01.01-.02h0s0-.01.01-.02h0s0-.02.01-.03h0s0-.01.01-.02h0s0-.01.01-.02h0s0-.01.01-.02h0s0-.01.01-.02h0s0-.01.01-.02h0s0-.01.01-.02h0l-.85-.53h0l.19-.11ZM289.26,364.51c-.29,1.03-.65,2.06-1.09,3.05l.92.4c.25-.58.48-1.16.69-1.75h0s.02-.05.03-.08h0s.02-.05.03-.07h0v-.02h0s.01-.04.02-.05h0v-.02h0s0-.02.01-.03h0v-.02h0s.01-.03.02-.05h0s0-.04.01-.05h0v-.02h0v-.04h0v-.02h0v-.04h0v-.03h0v-.03h0v-.02h0v-.02h0v-.02h0v-.02h0v-.02h0v-.02h0v-.02h0v-.02h0c.06-.19.11-.37.16-.56l-.96-.27h0l.16-.14ZM290.05,358.08v.74c-.01.84-.07,1.69-.17,2.53l.99.12c.11-.87.16-1.75.17-2.64h0v-.73h-1v-.02ZM290.1,351.31l-.02,3.38h1v-.76h0v-.03h0l.02-2.57h-1v-.02ZM290.14,344.54l-.02,3.38h1v-1.29h0v-.02h0v-2.06h-.99,0ZM290.19,337.77l-.02,3.38h1s0-.95.01-1.84h0v-.03h0v-.02h0v-1.47h-.99v-.02ZM290.23,331l-.02,3.38h1s0-1.38.02-2.38h0v-.02h0v-.98h-1ZM290.28,324.24l-.02,3.38h1s.01-1.98.02-2.91h0v-.02h0v-.02h0v-.02h0v-.4h-1ZM290.32,317.47l-.02,3.38h1l.02-3.38h-1ZM290.37,310.7l-.02,3.38h1l.02-2.8h0v-.02h0v-.53h-1v-.03ZM290.41,303.93l-.02,3.38h1l.02-2.33h0v-1.04h-1ZM290.46,297.16l-.02,3.38h1v-1.88c.01-.77.01-1.49.01-1.49h-1,0ZM290.5,290.39l-.02,3.38h1v-1.4h0c0-.94.01-1.98.01-1.98h-1,0ZM290.55,283.63l-.02,3.38h1v-.96h0c0-1,.02-2.42.02-2.42h-1ZM290.59,276.86l-.02,3.38h1v-.47h0v-.03h0c0-.96.02-2.86.02-2.86h-1v-.02ZM290.64,270.09l-.02,3.38h1l.02-3.37h-1ZM290.68,263.32l-.02,3.38h1v-.46h0v-.02h0l.02-2.89h-1ZM290.72,256.55l-.02,3.38h1v-1.05l.02-2.33h-1ZM290.77,249.78l-.02,3.38h1s0-.77.01-1.59h0v-1.79h-.99ZM290.81,243.01l-.02,3.38h1s0-1.15.01-2.12h0v-.02h0v-1.23h-.99ZM290.86,236.25l-.02,3.38h1s.01-1.7.02-2.69h0v-.69h-1ZM290.9,229.48l-.02,3.38h1s.02-2.47.02-3.19h0v-.17h-1v-.02ZM290.95,222.71l-.02,3.38h1l.02-3.02h0v-.02h0v-.31h-1v-.03ZM290.99,215.94l-.02,3.38h1l.02-2.53h0v-.05h0v-.79h-1ZM291.04,209.17l-.02,3.38h1v-2.1h.01v-1.28h-1,0ZM291.08,202.4l-.02,3.38h1v-1.62h.01v-.05h0c0-.85.01-1.69.01-1.69h-1v-.02ZM291.13,195.64l-.02,3.38h1v-1.16h0c0-.98.01-2.2.01-2.2h-1v-.02ZM291.17,188.87l-.02,3.38h1v-.68h0v-.02h0c0-.99.02-2.67.02-2.67h-1ZM291.22,182.1l-.02,3.38h1v-.24h0c0-.81.02-3.12.02-3.12h-1v-.02ZM291.94,175.35l-.99.16c.17,1.06.27,2.15.28,3.22h1v-.13h0v-.02h0v-.06h0v-.02h0v-.02h0v-.03h0v-.02h0v-.02h0v-.02h0v-.03h0v-.02h0v-.02h0v-.02h0v-.02h0v-.02h0v-.08h0v-.02h0c-.04-.92-.13-1.83-.28-2.73h0v-.08ZM289.91,168.92l-.9.43c.47.98.87,1.99,1.19,3.01l.95-.3c-.08-.25-.16-.5-.25-.74h0s-.02-.06-.03-.1h0s-.02-.05-.03-.08h0s-.02-.05-.03-.08h0v-.02h0s-.02-.05-.03-.07h0s-.02-.05-.03-.07h0v-.02h0s-.01-.04-.02-.06h0v-.02h0s-.01-.04-.02-.05h0v-.02h0v-.02h0s-.01-.04-.02-.05h0v-.02h0s-.01-.03-.02-.05h0v-.02h0v-.02h0s0-.02-.01-.04h0v-.02h0v-.02h0s-.01-.03-.02-.05h0v-.03h0s0-.02-.01-.03h0v-.02h0s0-.02-.01-.03h0v-.02h0v-.04h0v-.02h0v-.02h0v-.02h0v-.02h0v-.02h0v-.03h0v-.02h0v-.02h0v-.02h0v-.02h0v-.02h0s-.01-.03-.02-.04h0v-.02h0v-.02h0s0-.02-.01-.02h0v-.02h0v-.02h0s-.01-.03-.02-.05h0v-.02h0c-.11-.24-.22-.48-.33-.72h0l-.33-.17ZM286.22,163.27l-.76.65c.71.83,1.37,1.7,1.96,2.6l.84-.55c-.62-.94-1.3-1.84-2.03-2.7h0ZM281.24,158.71l-.59.81c.89.64,1.74,1.34,2.53,2.06l.68-.74h-.01s-.01-.02-.02-.03h-.01s-.01-.02-.02-.03h-.01s0,0-.01-.02h0s-.01,0-.02,0h0s-.01,0-.02-.02h0s-.01,0-.02,0h0s-.01,0-.02,0h0s-.04-.03-.06-.05h0c-.52-.46-1.05-.9-1.61-1.33h0s-.01,0-.02-.02h0s-.01,0-.02,0h0s-.03-.02-.04-.03h-.01s0,0-.01,0h-.01s0,0-.01-.02h0s0,0-.01-.02h-.02s-.03-.04-.05-.05h0c-.14-.11-.29-.22-.44-.32h0l-.15-.14ZM275.37,155.37l-.4.92c1,.44,1.99.93,2.93,1.46l.49-.87h0s-.01,0-.02,0h0s-.01,0-.02,0h0s-.05-.03-.07-.04h0s-.01,0-.02,0h0s-.01,0-.02,0h0s-.04-.03-.07-.04h0s-.01,0-.02,0h0s-.01,0-.02,0h0s-.04-.02-.07-.04h-.04s-.01,0-.02,0h0s-.03-.02-.04-.03h0s-.01,0-.02,0h0s-.01,0-.02,0h0s-.01,0-.02,0h0s-.02,0-.02,0h0s-.01,0-.02,0h-.06s-.01,0-.02,0h0s-.01,0-.02,0h-.03s-.01,0-.02,0h0s-.01,0-.02,0h-.03s-.01,0-.02,0h-.14s-.01,0-.02,0h-.05s-.01,0-.02,0h-.05s-.01,0-.02,0h-.06s-.01,0-.02,0h-.04s-.01,0-.02,0h0s-.01,0-.02,0h0s-.02,0-.02,0h0s-.01,0-.02,0h-.04s-.05-.02-.07-.03h0s-.02,0-.02,0h0s-.02,0-.02,0h0c-.4-.19-.8-.38-1.21-.56h0l-.41-.5ZM268.93,153.32l-.2.98c1.07.22,2.14.5,3.18.83l.3-.95c-.08-.03-.17-.05-.25-.08h-.18c-.92-.28-1.86-.52-2.81-.71h0l-.04-.07ZM262.21,152.6v1h.14c1.04.02,2.1.08,3.13.19l.11-.99c-.5-.05-.99-.1-1.5-.13h-.51c-.26,0-.53-.02-.8-.03h-.41l-.16-.04ZM255.44,152.52v1l3.37.04v-1l-3.37-.04h0ZM248.67,152.44v1l3.37.04v-1l-3.37-.04h0ZM241.9,152.36v1l3.37.04v-1l-3.37-.04h0ZM235.13,152.28v1l3.37.04v-1l-3.37-.04h0ZM228.37,152.2v1l3.37.04v-1l-1.46-.02c-.91,0-1.91-.02-1.91-.02h0ZM221.6,152.12v1l3.37.04v-1l-3.37-.04h0ZM214.83,152.04v1l3.37.04v-1s-1.89-.02-2.84-.03h-.53ZM208.06,151.96v1l3.37.04v-1l-3.37-.04h0ZM201.29,151.88v1l3.37.04v-1l-1.59-.02c-.88,0-1.79-.02-1.79-.02h0ZM194.53,151.8v1l3.37.04v-1l-3.37-.04h0ZM187.76,151.72v1l3.37.04v-1s-.83,0-1.68-.02h-1.64l-.05-.02ZM180.99,151.64v1l3.37.04v-1l-3.37-.04h0ZM174.22,151.56v1l3.37.04v-1l-1.73-.02h-.03c-.82,0-1.61-.02-1.61-.02h0ZM167.45,151.48v1l3.37.04v-1l-3.37-.04h0ZM160.69,151.4v1l3.37.04v-1s-.44,0-1.02,0h-.13l-2.21-.03h0Z"/>
    </g>
    <g>
      <polygon class="st13" points="147.34 278.79 147.34 183.64 263.21 185.08 263.21 278.23 147.34 278.79"/>
      <path d="M147.84,184.14l114.87,1.44v92.15l-114.87.56v-94.15M146.84,183.14v96.15l116.87-.56v-94.15l-116.87-1.44h0Z"/>
    </g>
    <g>
      <polygon class="st19" points="147.34 278.79 147.34 245.55 263.21 245 263.21 278.23 147.34 278.79"/>
      <path d="M147.84,246.06l114.87-.56v32.23l-114.87.56v-32.23M146.84,245.05v34.23l116.87-.56v-34.23l-116.87.56h0Z"/>
    </g>
    <g class="st14">
      <text class="st15" transform="translate(144.15 316.46) rotate(-.03) scale(.94 1) skewX(-.03)"><tspan x="0" y="0">Lapsang</tspan></text>
      <text class="st15" transform="translate(144.15 346.32) rotate(-.03) scale(.94 1) skewX(-.03)"><tspan x="0" y="0">souchong</tspan></text>
    </g>
    <g>
      <polygon class="st18" points="187.23 265.1 187.23 208.63 231.96 210.15 231.96 266.62 187.23 265.1"/>
      <path d="M187.73,209.15l43.73,1.49v55.47l-43.73-1.49v-55.47M186.73,208.11v57.47l45.73,1.56v-57.47l-45.73-1.56h0Z"/>
    </g>
  </g>
  <path class="st3" d="M297.7,117.9l37.52,15.15c12.73,5.15,23.01,20.6,22.95,34.53l-.15,47.36"/>
  <polygon class="st8" points="250.8 149.68 113.02 95.39 112.9 385.96 250.11 440.48 250.8 149.68"/>
  <g class="st21">
    <g>
      <g>
        <path class="st20" d="M156.83,382.77c-16.27-.23-29.45-11.92-29.38-26.04l1.2-179.68c.07-13.89,13.13-25.19,29.13-25.19l104.58,1.24c16.27.23,29.45,11.92,29.38,26.04l-1.19,179.67c-.1,13.89-13.18,25.19-29.14,25.19l-104.58-1.24h0Z"/>
        <path d="M157.78,152.37h.49l104.08,1.23c15.99.23,28.95,11.69,28.89,25.54l-1.19,179.67c-.05,6.61-3.03,12.81-8.39,17.45-5.4,4.67-12.59,7.25-20.25,7.25h-.49l-104.08-1.23c-15.99-.23-28.95-11.69-28.89-25.54l1.2-179.68c.07-13.61,12.91-24.69,28.63-24.69M157.78,151.37c-16.33,0-29.56,11.41-29.63,25.68l-1.2,179.68c-.07,14.43,13.3,26.3,29.87,26.54l104.08,1.23h.51c16.33,0,29.54-11.41,29.64-25.69l1.19-179.67c.07-14.43-13.3-26.3-29.87-26.54l-104.08-1.23h-.51Z"/>
      </g>
      <g class="st14">
        <text class="st15" transform="translate(144.15 316.46) rotate(-.03) scale(.94 1) skewX(-.03)"><tspan x="0" y="0">Lapsang</tspan></text>
        <text class="st15" transform="translate(144.15 346.32) rotate(-.03) scale(.94 1) skewX(-.03)"><tspan x="0" y="0">souchong</tspan></text>
      </g>
      <g>
        <polygon class="st6" points="262.25 278.6 147.84 278.29 147.84 184.57 262.25 184.88 262.25 278.6"/>
        <polygon class="st12" points="262.25 278.6 147.84 278.29 147.84 244.92 262.25 245.23 262.25 278.6"/>
        <path class="st9" d="M231.66,260.69s-1.4,4.7-23.37,4.9c-21.97.2-21.4-5.12-21.4-5.12v-51.6l44.77,1.47v50.35Z"/>
        <path class="st2" d="M188.78,227.77c3.58,3.09,19.63,7.42,36.96,1.89"/>
        <path class="st1" d="M191.61,232.08c3.58,2.82,19.63,5.96,36.96-.86"/>
        <ellipse class="st10" cx="209.26" cy="209.04" rx="5.97" ry="22.42" transform="translate(-8.02 409.74) rotate(-87.7)"/>
      </g>
    </g>
  </g>
  <polyline class="st4" points="231.39 390.69 135.95 389.93 223.49 425.3"/>
  <path class="st4" d="M165.45,390.69c3.55,3.35-2.36,8.45-4.77,9.23"/>
  <g class="st14">
    <text class="st16" transform="translate(181.85 403.82) rotate(19.06) scale(.87 .76) skewX(-36.85)"><tspan x="0" y="0">45˚</tspan></text>
  </g>
  <line class="st5" x1="154.01" y1="80.74" x2="117.89" y2="95.39"/>
  <line class="st5" x1="287.01" y1="423.59" x2="250.9" y2="438.25"/>
  <line class="st5" x1="286.89" y1="135.51" x2="250.78" y2="150.17"/>
</svg>