<?xml version="1.0" encoding="UTF-8"?>
<svg id="Layer_1" xmlns="http://www.w3.org/2000/svg" xmlns:xlink="http://www.w3.org/1999/xlink" version="1.1" viewBox="0 0 453.55 523.82">
  <!-- Generator: Adobe Illustrator 30.2.1, SVG Export Plug-In . SVG Version: 2.1.1 Build 1)  -->
  <defs>
    <style>
      .st0, .st1, .st2, .st3, .st4, .st5, .st6, .st7 {
        fill: none;
      }

      .st8 {
        mask: url(#mask);
      }

      .st9 {
        fill: #a8ffc1;
      }

      .st9, .st1, .st2, .st3, .st10, .st11, .st12, .st13, .st4, .st5, .st14, .st6, .st7 {
        stroke-miterlimit: 10;
      }

      .st9, .st1, .st3, .st10, .st11, .st12 {
        stroke: #231f20;
      }

      .st9, .st1, .st11, .st5, .st15 {
        opacity: .5;
      }

      .st9, .st11 {
        stroke-dasharray: 3.38;
        stroke-width: 1.69px;
      }

      .st16 {
        fill: url(#linear-gradient1);
      }

      .st1, .st5 {
        isolation: isolate;
      }

      .st2, .st5 {
        stroke: #fff;
      }

      .st10 {
        fill: #bcbcbc;
      }

      .st17 {
        font-family: MyriadPro-Regular, 'Myriad Pro';
        font-size: 11.29px;
      }

      .st18 {
        fill: url(#linear-gradient);
      }

      .st11 {
        fill: #a8ffff;
      }

      .st19 {
        mask: url(#mask-1);
      }

      .st12 {
        fill: #a2a2a3;
      }

      .st20, .st14 {
        fill: #e8e7e7;
      }

      .st13 {
        stroke: #000;
      }

      .st13, .st21 {
        fill: #fff;
      }

      .st4, .st6 {
        stroke-dasharray: 3.32 3.32;
      }

      .st4, .st6, .st7 {
        stroke: #4359a7;
      }

      .st14 {
        stroke: #7b7b7a;
      }

      .st6 {
        stroke-width: 1.68px;
      }
    </style>
    <linearGradient id="linear-gradient" x1="360.36" y1="-401.15" x2="425.68" y2="-401.15" gradientTransform="translate(-602.57 603.51) scale(1.8 1)" gradientUnits="userSpaceOnUse">
      <stop offset="0" stop-color="#fff"/>
      <stop offset="1" stop-color="#000"/>
    </linearGradient>
    <mask id="mask" x="47.31" y="173.5" width="113.45" height="57.71" maskUnits="userSpaceOnUse">
      <rect class="st18" x="45.31" y="195.7" width="117.43" height="13.32" transform="translate(-70.18 56) rotate(-22.76)"/>
    </mask>
    <linearGradient id="linear-gradient1" x1="398.14" y1="-332.41" x2="429.29" y2="-332.41" gradientTransform="translate(-578.87 583.77) scale(1.8 1)" xlink:href="#linear-gradient"/>
    <mask id="mask-1" x="137.88" y="237.6" width="54.1" height="27.52" maskUnits="userSpaceOnUse">
      <rect class="st16" x="136.92" y="248.19" width="56.01" height="6.35" transform="translate(-84.4 83.37) rotate(-22.76)"/>
    </mask>
  </defs>
  <g class="st15">
    <line class="st11" x1="53.33" y1="229.43" x2="163.54" y2="186.29"/>
    <polygon class="st9" points="451.28 128.12 309.84 185.35 53.71 85.7 195.47 26.88 451.28 128.12"/>
    <polygon class="st9" points="451.29 128.11 309.84 185.35 309.37 328.03 450.46 271.07 451.29 128.11"/>
    <polygon class="st11" points="53.68 85.41 309.84 185.35 309.37 328.03 53.33 229.43 53.68 85.41"/>
  </g>
  <path class="st14" d="M337.05,521.41L26.66,396.07c-14.51-5.86-26.22-23.47-26.16-39.35L1.56,20.53C1.62,4.66,13.43-3.46,27.94,2.4l310.39,125.34c14.51,5.86,26.22,23.47,26.16,39.35l-1.04,336.2c-.09,15.87-11.89,23.99-26.4,18.13Z"/>
  <path class="st2" d="M297.7,117.9l37.52,15.15c12.73,5.15,23.01,20.6,22.95,34.53l-.15,47.36"/>
  <polygon class="st9" points="309.53 185.04 53.71 83.8 53.59 226.62 308.85 328.09 309.53 185.04"/>
  <g>
    <polygon class="st21" points="52.94 309.2 53 243.25 172.04 290.37 171.72 356.42 52.94 309.2"/>
    <path d="M53.5,243.99l118.04,46.72-.31,64.98-117.78-46.83.05-64.87M52.5,242.52l-.06,67.02,119.78,47.62.32-67.13-120.04-47.51h0Z"/>
  </g>
  <polyline points="250.5 455.94 250.96 452.61 79.59 384.8 79.51 387.96"/>
  <polyline points="284.19 419.1 284.46 408.19 186.54 369.44 186.5 380.26"/>
  <polyline class="st15" points="285.38 434.43 285.64 427.98 187.73 389.23 187.68 395.59"/>
  <g>
    <polygon class="st21" points="186.21 362.17 186.27 296.22 305.31 343.34 305 409.39 186.21 362.17"/>
    <path d="M186.77,296.96l118.04,46.72-.31,64.98-117.78-46.83.05-64.87M185.77,295.49l-.06,67.02,119.78,47.62.32-67.13-120.04-47.51h0Z"/>
  </g>
  <g class="st8">
    <line class="st9" x1="156.26" y1="182.69" x2="53.33" y2="224.47"/>
  </g>
  <g class="st19">
    <line class="st9" x1="189.84" y1="241.98" x2="140.75" y2="261.91"/>
  </g>
  <polygon class="st20" points="286.57 425.92 259.53 414.85 259.53 396.44 286.57 407.51 286.57 425.92"/>
  <g>
    <polyline points="151.03 370.34 151.29 359.43 53.37 320.68 53.33 331.5"/>
    <polyline class="st15" points="143.09 381.27 143.35 374.61 55.75 340.38 55.7 346.94"/>
    <rect class="st20" x="71.69" y="324.28" width="4.94" height="18.41"/>
    <rect class="st20" x="95.42" y="332.39" width="4.94" height="18.41"/>
    <rect class="st20" x="137.34" y="351.93" width="4.94" height="18.41"/>
    <rect class="st20" x="147.81" y="357.15" width="4.94" height="18.41"/>
    <rect class="st20" x="69.12" y="341.37" width="4.94" height="18.41"/>
    <rect class="st20" x="108.86" y="356.2" width="4.94" height="18.41"/>
  </g>
  <rect class="st20" x="198.43" y="370.34" width="4.94" height="18.41"/>
  <rect class="st20" x="219.55" y="393.14" width="4.94" height="18.41"/>
  <rect class="st20" x="224.21" y="399.56" width="4.94" height="18.41"/>
  <rect class="st20" x="220.78" y="381.7" width="4.94" height="18.41"/>
  <g>
    <line class="st0" x1="258.49" y1="270.65" x2="262.88" y2="267.85"/>
    <line class="st1" x1="235.88" y1="251.83" x2="274.99" y2="271.08"/>
    <g>
      <line class="st7" x1="263.6" y1="243.08" x2="264.03" y2="243.3"/>
      <path class="st6" d="M341.99,170.06"/>
      <path class="st4" d="M268.99,235.62"/>
    </g>
    <path class="st10" d="M236,227.59c2.05-.91,6.52,1.63,8.75,2.66l3.97-3.12c-2.91-1.29-8.12-3.72-11.24-3.11-3.12.61-4.53,1.9-4.57,4.5-.03,2.6,1.34,8.37,2.85,11.04s2.13,3.25,2.13,3.25l3.33-6.03s-.22.44-1.14-1.31c-.92-1.75-2.2-6.87-1.2-7.75"/>
    <path class="st10" d="M236.55,243.15s5.03-10.28,7.09-12.32c2.07-2.05,6.66-7.54,22.83-6.31,16.17,1.23,19.88,7.36,21.61,9.69,1.73,2.34,5.14,13.25,5.14,13.25,1.43,16.48-9.3,20.96-9.3,20.96,0,0-.5,1.06-.51,1.2-5.43,3.58-14.52,3.99-20.64,3.52-6.12-.47-15.04-2.25-19.87-6.6.01-.14-.33-1.26-.33-1.26,0,0-12.95-6.42-6.02-22.13Z"/>
    <path class="st5" d="M285.48,232.52c-2.17-2.4-7.54-6.13-18.95-7-11.41-.87-16.14,1.42-20.04,4.03"/>
    <path class="st10" d="M281.16,266.19c6.23.26,10.13-.31,12.51-4.82,2.38-4.51,2.07-8.88,4.49-10.12s4.76-1.93,2.66-3.03c-2.1-1.1-5.6-2.02-7.16-.72s-4.47,5.19-5.34,6.72c-.87,1.53-1.86,2.81-5.23,1.62"/>
    <path class="st5" d="M268.39,230.93c-1.09.64-3.29.58-4.77-.36"/>
    <path class="st12" d="M300.71,249.39c-.73.16-1.97.12-3.28-.41s-2.26-1.04-2.1-1.48"/>
    <path class="st5" d="M300.27,249.7c-.74.12-1.55.05-3.13-.5-1.58-.55-2.38-1.37-2.21-1.8"/>
    <path class="st5" d="M298.35,250.1c-1.04-.31-2.8-1.19-4.16-.72s-1.7,1.7-1.7,1.7"/>
    <path class="st5" d="M282.01,256.52c-1.26.67-2.73,2.88-2.64,4.89.09,2.01.59,3.48,1.19,4.13"/>
    <path class="st3" d="M284.7,237.11c.57-1.24.87-3.71-1.85-5.59s-8.13-4.75-16.47-5.39"/>
    <path class="st3" d="M246.63,234.17c-.36-1.26-.32-3.71,2.65-5.15,2.97-1.44,8.76-3.47,17.09-2.83"/>
    <path class="st3" d="M286.26,234.96c-1.26,2.81-7.09,7.33-21.55,6.23-14.46-1.1-18.09-5.7-19.21-9.61"/>
    <path class="st5" d="M287.24,235.17c-1.33,3.07-7.46,8.04-22.64,6.89-15.18-1.15-18.96-6.18-20.13-10.44"/>
    <path class="st10" d="M263.18,230.03c.24-.6.61-1.38-.01-1.89s-2-2.12-2.01-2.74-.07-2.95,5.58-2.52c5.65.43,5.24,2.72,5.13,3.33-.1.61-1.7,1.99-2.4,2.4-.7.42-.45,1.24-.3,1.87"/>
    <path class="st5" d="M261.77,225.87c.82.84,2.09,1.74,4.59,1.93,2.5.19,3.89-.51,4.83-1.21"/>
    <path class="st1" d="M244.06,265.88c5.59,3.19,10.37,4.8,18.97,5.45,8.6.65,13.56-.21,19.57-2.52"/>
    <path class="st2" d="M241.77,221.63"/>
    <path class="st2" d="M285.76,224.97"/>
    <path class="st5" d="M289.47,255.99c-1.31,1.88-1.57,4.22-7.36,2.39"/>
    <path class="st5" d="M245.01,228.41c-1.91-1.03-5.65-3.18-8.71-2.41"/>
    <path class="st5" d="M238.16,239.41c-1.08-1.19-2.26-4.02-2.65-7.33"/>
    <path class="st5" d="M301.19,249.05c.08-.24-.5-.6-1.26-.87-.76-.27-1.96-.75-3.01-.92-1.05-.17-1.59-.02-1.59-.02"/>
    <path class="st5" d="M282.09,267.07c-4.84,2.49-10.96,2.87-20.23,2.17-9.27-.71-20.98-5.13-24.81-11.58"/>
  </g>
  <g>
    <path d="M99.54,144.17l-5.74-32.38,3.09,1.19,2.68,16.3c.67,4.02,1.28,8.01,1.68,11.08l.07.03c.37-2.86,1.07-6.17,1.85-9.77l3.02-14.06,3.05,1.18,2.75,16.37c.64,3.83,1.24,7.64,1.58,10.95l.07.03c.47-3.13,1.11-6.24,1.81-9.73l2.99-14.07,2.99,1.15-6.41,27.71-3.05-1.18-2.85-16.81c-.71-4.12-1.17-7.26-1.48-10.42l-.07-.03c-.4,2.84-.91,5.61-1.74,9.18l-3.22,14.47-3.05-1.18Z"/>
    <path d="M124.67,143.73c.07,5.35,2.62,8.53,5.57,9.67,2.11.81,3.39.81,4.5.61l.5,3.01c-1.04.23-2.82.26-5.4-.74-5-1.93-7.98-7.46-7.98-14s2.88-10.57,7.61-8.75c5.3,2.04,6.71,8.81,6.71,12.79,0,.81-.07,1.41-.1,1.8l-11.41-4.39ZM133.33,144.24c.03-2.49-.77-6.7-4.09-7.98-2.99-1.15-4.29,2.02-4.53,4.66l8.62,3.32Z"/>
    <path d="M139.84,127.9l2.95,1.14v31.79l-2.95-1.14v-31.79Z"/>
    <path d="M159.33,166.39c-.77.24-2.48.3-4.66-.54-4.9-1.89-8.09-7.55-8.09-14.17s3.42-10.19,8.72-8.15c1.74.67,3.29,1.85,4.09,2.7l-.67,2.79c-.7-.81-1.81-1.73-3.42-2.35-3.72-1.43-5.74,1.46-5.74,5.98,0,5.01,2.42,9.03,5.64,10.27,1.68.65,2.78.49,3.62.32l.5,3.15Z"/>
    <path d="M177.28,163.1c0,8.01-4.16,9.9-8.09,8.39-4.39-1.69-7.78-7.29-7.78-14.14,0-7.25,3.56-10.14,8.05-8.41,4.66,1.8,7.82,7.53,7.82,14.16ZM164.4,158.36c0,4.75,2.05,9.12,4.93,10.23,2.82,1.09,4.93-1.64,4.93-6.52,0-3.67-1.38-8.86-4.86-10.2-3.49-1.34-5,2.37-5,6.49Z"/>
    <path d="M181,159.74c0-2.24-.03-4.09-.13-5.92l2.58,1,.13,3.54.1.04c.91-1.71,2.42-3.05,5.1-2.02,2.21.85,3.89,3.29,4.6,6.11l.07.03c.5-1.01,1.14-1.71,1.81-2.12.97-.61,2.05-.73,3.59-.14,2.15.83,5.33,3.94,5.33,11.46v12.76l-2.89-1.11v-12.27c0-4.16-1.14-7.11-3.52-8.03-1.68-.65-2.99.51-3.49,2.24-.13.49-.23,1.16-.23,1.88v13.39l-2.89-1.11v-12.98c0-3.45-1.14-6.39-3.39-7.26-1.84-.71-3.19.74-3.66,2.53-.17.52-.24,1.16-.24,1.83v13.07l-2.89-1.11v-15.8Z"/>
    <path d="M210.63,176.84c.07,5.35,2.62,8.53,5.57,9.67,2.11.81,3.39.81,4.5.61l.5,3.01c-1.04.23-2.82.26-5.4-.74-5-1.92-7.98-7.46-7.98-14s2.88-10.57,7.61-8.75c5.3,2.04,6.71,8.81,6.71,12.79,0,.81-.07,1.41-.1,1.8l-11.41-4.39ZM219.29,177.35c.03-2.49-.77-6.7-4.09-7.98-2.99-1.15-4.29,2.02-4.53,4.66l8.62,3.32Z"/>
    <path d="M236.47,169.01v6.22l4.23,1.63v3l-4.23-1.63v11.69c0,2.69.57,4.43,2.21,5.06.77.3,1.34.38,1.71.39l.13,3.01c-.57.09-1.48-.03-2.62-.47-1.38-.53-2.48-1.54-3.19-2.88-.84-1.49-1.14-3.53-1.14-6.08v-11.82l-2.52-.97v-3l2.52.97v-5.19l2.88.08Z"/>
    <path d="M258.51,194.38c0,8.01-4.16,9.9-8.08,8.39-4.39-1.69-7.78-7.3-7.78-14.15,0-7.25,3.56-10.14,8.05-8.4,4.66,1.8,7.82,7.53,7.82,14.16ZM245.63,189.64c0,4.75,2.05,9.12,4.93,10.23,2.82,1.09,4.93-1.64,4.93-6.52,0-3.67-1.38-8.86-4.86-10.2s-5,2.37-5,6.49Z"/>
    <path d="M100.14,171.27l-6.88-2.65v-3.31l16.74,6.45v3.31l-6.91-2.66v26.86l-2.95-1.14v-26.86Z"/>
    <path d="M115.31,176.21c.03,1.36-.7,2.15-1.88,1.69-1.04-.4-1.78-1.76-1.78-3.1s.77-2.17,1.84-1.75c1.11.43,1.81,1.77,1.81,3.16ZM112.02,202.7v-21.67l2.95,1.14v21.67l-2.95-1.14Z"/>
    <path d="M119.87,189.92c0-2.24-.03-4.09-.13-5.92l2.58,1,.13,3.54.1.04c.91-1.71,2.42-3.05,5.1-2.02,2.21.85,3.89,3.29,4.6,6.11l.07.03c.5-1.02,1.14-1.71,1.81-2.12.97-.61,2.05-.73,3.59-.14,2.15.83,5.33,3.93,5.33,11.46v12.76l-2.88-1.11v-12.27c0-4.16-1.14-7.11-3.52-8.03-1.68-.65-2.99.51-3.49,2.24-.13.49-.24,1.16-.24,1.88v13.39l-2.88-1.11v-12.98c0-3.45-1.14-6.39-3.39-7.26-1.84-.71-3.19.74-3.66,2.53-.17.52-.24,1.16-.24,1.83v13.07l-2.88-1.11v-15.8Z"/>
    <path d="M150.47,186.84c-.77,3.46-2.21,7.7-3.15,9.4l-1.88-.41c.74-2.36,1.61-6.68,1.98-9.76l3.05.77Z"/>
    <path d="M150.88,213.64c.87,1.1,2.41,2.5,3.89,3.07,2.15.83,3.15-.22,3.15-2.01,0-1.88-.84-3.23-3.02-5.15-2.92-2.51-4.29-5.19-4.29-7.79,0-3.49,2.11-5.54,5.6-4.2,1.64.63,3.09,1.82,3.99,2.88l-.74,2.58c-.64-.78-1.81-1.95-3.32-2.53-1.74-.67-2.72.3-2.72,1.91,0,1.79.97,2.97,3.09,4.86,2.82,2.52,4.26,4.95,4.26,8.18,0,3.81-2.21,5.64-6.07,4.15-1.78-.69-3.42-1.9-4.56-3.23l.74-2.71Z"/>
    <path d="M174.7,199.98l-6.88-2.65v-3.31l16.74,6.45v3.31l-6.91-2.66v26.86l-2.95-1.14v-26.86Z"/>
    <path d="M186.24,221.17c.07,5.35,2.62,8.53,5.57,9.67,2.11.81,3.39.81,4.5.61l.5,3.01c-1.04.23-2.82.26-5.4-.74-5-1.92-7.98-7.46-7.98-14s2.89-10.57,7.62-8.75c5.3,2.04,6.71,8.81,6.71,12.79,0,.81-.07,1.41-.1,1.8l-11.41-4.39ZM194.89,221.68c.03-2.49-.77-6.7-4.09-7.98-2.99-1.15-4.29,2.02-4.53,4.66l8.62,3.32Z"/>
    <path d="M210.4,240.59l-.23-2.82-.1-.04c-.91,1.35-2.65,2.2-4.96,1.31-3.29-1.27-4.97-5-4.97-8.13,0-5.24,3.49-6.76,9.76-4.3v-.45c0-1.79-.37-5.16-3.69-6.44-1.51-.58-3.09-.56-4.23-.02l-.67-2.85c1.34-.65,3.29-.66,5.33.13,4.96,1.91,6.17,6.9,6.17,11.24v8.1c0,1.88.07,3.74.27,5.3l-2.68-1.03ZM209.96,229.36c-3.22-1.33-6.88-1.98-6.88,2.23,0,2.55,1.27,4.25,2.78,4.83,2.11.81,3.46-.46,3.93-2.12.1-.36.17-.79.17-1.19v-3.76Z"/>
    <path d="M217.18,239.17c.87,1.1,2.42,2.5,3.89,3.07,2.15.83,3.15-.22,3.15-2.01,0-1.88-.84-3.23-3.02-5.15-2.92-2.51-4.29-5.19-4.29-7.79,0-3.49,2.11-5.54,5.6-4.2,1.64.63,3.09,1.82,3.99,2.88l-.74,2.58c-.64-.78-1.81-1.95-3.32-2.53-1.74-.67-2.72.3-2.72,1.91,0,1.79.97,2.97,3.09,4.86,2.82,2.52,4.26,4.95,4.26,8.18,0,3.81-2.21,5.64-6.07,4.15-1.78-.69-3.42-1.9-4.56-3.23l.74-2.72Z"/>
  </g>
  <polygon class="st13" points="276.65 235.78 300.66 247.24 300.62 232.08 277.31 221.49 271.1 227.21 276.65 235.78"/>
  <text class="st17" transform="translate(280.38 234.6) rotate(21.06) scale(.8 .93) skewX(24.11)"><tspan x="0" y="0">Sale!</tspan></text>
</svg>