<?xml version="1.0" encoding="UTF-8"?>
<svg id="Layer_1" xmlns="http://www.w3.org/2000/svg" xmlns:xlink="http://www.w3.org/1999/xlink" version="1.1" viewBox="0 0 453.55 523.82">
  <!-- Generator: Adobe Illustrator 30.2.1, SVG Export Plug-In . SVG Version: 2.1.1 Build 1)  -->
  <defs>
    <style>
      .st0, .st1, .st2, .st3, .st4, .st5, .st6, .st7 {
        fill: none;
      }

      .st8 {
        mask: url(#mask);
      }

      .st9 {
        fill: #a8ffc1;
      }

      .st9, .st1, .st2, .st3, .st10, .st11, .st4, .st12, .st5, .st6, .st13, .st7 {
        stroke-miterlimit: 10;
      }

      .st9, .st1, .st3, .st10, .st11, .st4, .st12 {
        stroke: #231f20;
      }

      .st9, .st1, .st11, .st14, .st6, .st15 {
        opacity: .5;
      }

      .st9, .st11 {
        stroke-dasharray: 3.38;
        stroke-width: 1.69px;
      }

      .st16 {
        fill: url(#linear-gradient2);
      }

      .st17 {
        fill: url(#linear-gradient1);
      }

      .st1, .st6 {
        isolation: isolate;
      }

      .st2, .st6 {
        stroke: #fff;
      }

      .st10 {
        fill: #bcbcbc;
      }

      .st18 {
        fill: url(#linear-gradient);
      }

      .st19, .st14 {
        font-family: MyriadPro-Regular, 'Myriad Pro';
        font-size: 20.81px;
      }

      .st11 {
        fill: #a8ffff;
      }

      .st20 {
        mask: url(#mask-2);
      }

      .st21 {
        mask: url(#mask-1);
      }

      .st4 {
        stroke-width: .69px;
      }

      .st12 {
        fill: #a2a2a3;
      }

      .st22, .st13 {
        fill: #e8e7e7;
      }

      .st23 {
        fill: #fff;
      }

      .st5 {
        stroke-dasharray: 3.32 3.32;
      }

      .st5, .st7 {
        stroke: #4359a7;
      }

      .st13 {
        stroke: #7b7b7a;
      }

      .st24 {
        fill: #f7f7e4;
      }

      .st25 {
        clip-path: url(#clippath);
      }
    </style>
    <linearGradient id="linear-gradient" x1="360.36" y1="-401.15" x2="425.68" y2="-401.15" gradientTransform="translate(-602.57 603.51) scale(1.8 1)" gradientUnits="userSpaceOnUse">
      <stop offset="0" stop-color="#fff"/>
      <stop offset="1" stop-color="#000"/>
    </linearGradient>
    <mask id="mask" x="47.31" y="173.5" width="113.45" height="57.71" maskUnits="userSpaceOnUse">
      <rect class="st18" x="45.31" y="195.7" width="117.43" height="13.32" transform="translate(-70.18 56) rotate(-22.76)"/>
    </mask>
    <linearGradient id="linear-gradient1" x1="429.73" y1="-276.27" x2="460.89" y2="-276.27" gradientTransform="translate(-561.58 557.43) scale(1.8 1)" xlink:href="#linear-gradient"/>
    <mask id="mask-1" x="211.97" y="267.39" width="54.1" height="27.52" maskUnits="userSpaceOnUse">
      <rect class="st17" x="211.02" y="277.98" width="56.01" height="6.35" transform="translate(-90.15 114.35) rotate(-22.76)"/>
    </mask>
    <linearGradient id="linear-gradient2" x1="389.13" y1="-347.05" x2="420.28" y2="-347.05" gradientTransform="translate(-583.27 591.18) scale(1.8 1)" xlink:href="#linear-gradient"/>
    <mask id="mask-2" x="117.27" y="230.36" width="54.1" height="27.52" maskUnits="userSpaceOnUse">
      <rect class="st16" x="116.32" y="240.95" width="56.01" height="6.35" transform="translate(-83.2 74.84) rotate(-22.76)"/>
    </mask>
    <clipPath id="clippath">
      <polygon class="st0" points="128.27 113.26 300 181.31 281.66 265.5 74.06 183.29 128.27 113.26"/>
    </clipPath>
  </defs>
  <path class="st4" d="M174.27,117.7"/>
  <g class="st15">
    <line class="st11" x1="53.33" y1="229.43" x2="163.54" y2="186.29"/>
    <polygon class="st9" points="451.28 128.12 309.84 185.35 53.71 85.7 195.47 26.88 451.28 128.12"/>
    <polygon class="st9" points="451.29 128.11 309.84 185.35 309.37 328.03 450.46 271.07 451.29 128.11"/>
    <polygon class="st11" points="53.68 85.41 309.84 185.35 309.37 328.03 53.33 229.43 53.68 85.41"/>
  </g>
  <path class="st13" d="M337.05,521.41L26.66,396.07c-14.51-5.86-26.22-23.47-26.16-39.35L1.56,20.53C1.62,4.66,13.43-3.46,27.94,2.4l310.39,125.34c14.51,5.86,26.22,23.47,26.16,39.35l-1.04,336.2c-.09,15.87-11.89,23.99-26.4,18.13Z"/>
  <path class="st2" d="M297.7,117.9l37.52,15.15c12.73,5.15,23.01,20.6,22.95,34.53l-.15,47.36"/>
  <polygon class="st9" points="309.27 184.98 53.45 83.74 53.33 226.55 308.58 328.03 309.27 184.98"/>
  <g>
    <polygon class="st23" points="52.94 309.2 53 243.25 172.04 290.37 171.72 356.42 52.94 309.2"/>
    <path d="M53.5,243.99l118.04,46.72-.31,64.98-117.78-46.83.05-64.87M52.5,242.52l-.06,67.02,119.78,47.62.32-67.13-120.04-47.51h0Z"/>
  </g>
  <polyline points="250.5 455.94 250.96 452.61 79.59 384.8 79.51 387.96"/>
  <polyline points="284.19 419.1 284.46 408.19 186.54 369.44 186.5 380.26"/>
  <polyline class="st15" points="285.38 434.43 285.64 427.98 187.73 389.23 187.68 395.59"/>
  <g>
    <polygon class="st23" points="186.21 362.17 186.27 296.22 305.31 343.34 305 409.39 186.21 362.17"/>
    <path d="M186.77,296.96l118.04,46.72-.31,64.98-117.78-46.83.05-64.87M185.77,295.49l-.06,67.02,119.78,47.62.32-67.13-120.04-47.51h0Z"/>
  </g>
  <g class="st8">
    <line class="st9" x1="156.26" y1="182.69" x2="53.33" y2="224.47"/>
  </g>
  <g class="st21">
    <line class="st9" x1="263.93" y1="271.77" x2="214.84" y2="291.7"/>
  </g>
  <g class="st20">
    <line class="st9" x1="169.23" y1="234.74" x2="120.14" y2="254.67"/>
  </g>
  <polygon class="st22" points="286.57 425.92 259.53 414.85 259.53 396.44 286.57 407.51 286.57 425.92"/>
  <g>
    <polyline points="151.03 370.34 151.29 359.43 53.37 320.68 53.33 331.5"/>
    <polyline class="st15" points="143.09 381.27 143.35 374.61 55.75 340.38 55.7 346.94"/>
    <rect class="st22" x="71.69" y="324.28" width="4.94" height="18.41"/>
    <rect class="st22" x="95.42" y="332.39" width="4.94" height="18.41"/>
    <rect class="st22" x="137.34" y="351.93" width="4.94" height="18.41"/>
    <rect class="st22" x="147.81" y="357.15" width="4.94" height="18.41"/>
    <rect class="st22" x="69.12" y="341.37" width="4.94" height="18.41"/>
    <rect class="st22" x="108.86" y="356.2" width="4.94" height="18.41"/>
  </g>
  <rect class="st22" x="198.43" y="370.34" width="4.94" height="18.41"/>
  <rect class="st22" x="264.87" y="420.37" width="4.94" height="18.41"/>
  <rect class="st22" x="224.21" y="399.56" width="4.94" height="18.41"/>
  <rect class="st22" x="220.78" y="381.7" width="4.94" height="18.41"/>
  <g>
    <line class="st0" x1="201.04" y1="265.5" x2="209.42" y2="259.22"/>
    <line class="st1" x1="152.81" y1="231.19" x2="234.2" y2="263.86"/>
    <g>
      <line class="st7" x1="207.07" y1="209.42" x2="207.98" y2="209.78"/>
      <path class="st5" d="M216.75,193.62"/>
    </g>
    <path class="st10" d="M149.35,182.55c3.98-2.14,13.34,2.28,17.97,4.01l7.49-6.87c-6.04-2.14-16.85-6.23-23.02-4.52s-8.8,4.5-8.47,9.73c.33,5.23,3.97,16.59,7.4,21.7,3.43,5.11,4.78,6.19,4.78,6.19l5.76-12.61s-.37.91-2.48-2.45c-2.11-3.37-5.47-13.45-3.59-15.37"/>
    <path class="st10" d="M152.82,213.69s8.52-21.39,12.34-25.8c3.83-4.42,12.2-16.15,44.83-16.15,32.63,0,41,11.73,44.83,16.15,3.83,4.42,12.34,25.8,12.34,25.8,5.39,32.85-15.46,43.48-15.46,43.48,0,0-.85,2.21-.85,2.48-10.35,8.01-28.52,10.22-40.86,10.22-12.34,0-30.51-2.21-40.86-10.22,0-.28-.85-2.48-.85-2.48,0,0-26.96-10.91-15.46-43.48Z"/>
    <path class="st6" d="M249.36,184.89c-4.73-4.49-16.06-11.14-39.08-11.14s-32.17,5.31-39.6,11.14"/>
    <path class="st10" d="M245.84,253.09c12.55-.42,20.28-2.16,24.37-11.57,4.08-9.41,2.79-18.13,7.46-20.99,4.67-2.86,9.24-4.61,4.87-6.49-4.37-1.88-11.53-3.21-14.48-.35-2.95,2.86-8.17,11.08-9.68,14.3-1.51,3.21-3.3,5.93-10.25,4.04"/>
    <path class="st6" d="M214.84,184.3c-2.1,1.45-6.52,1.67-9.62,0"/>
    <path class="st12" d="M282.49,216.41c-1.43.43-3.93.54-6.64-.32s-4.7-1.75-4.44-2.64"/>
    <path class="st6" d="M281.66,217.09c-1.46.35-3.1.34-6.36-.52-3.26-.86-4.98-2.38-4.72-3.27"/>
    <path class="st6" d="M277.86,218.19c-2.13-.46-5.8-1.97-8.45-.82-2.64,1.15-3.16,3.68-3.16,3.68"/>
    <path class="st6" d="M246.07,233.56c-2.43,1.54-5.04,6.19-4.54,10.21.49,4.02,1.71,6.89,3.01,8.11"/>
    <path class="st3" d="M248.5,194.22c.95-2.58,1.18-7.58-4.56-10.92s-17.04-8.29-33.86-8.29"/>
    <path class="st3" d="M171.68,194.13c-.91-2.48-1.21-7.4,4.54-10.75,5.74-3.35,17.04-8.29,33.86-8.29"/>
    <path class="st3" d="M251.3,189.66c-2.09,5.82-13.1,15.79-42.29,15.79-29.18,0-37.16-8.68-40-16.34"/>
    <path class="st6" d="M253.3,189.94c-2.19,6.37-13.75,17.28-44.37,17.28-30.62,0-38.98-9.5-41.97-17.88"/>
    <path class="st10" d="M204.24,183.29c.4-1.25,1.02-2.86-.31-3.8s-4.34-3.94-4.45-5.19-.6-5.9,10.81-5.9,10.92,4.66,10.81,5.9c-.11,1.25-3.1,4.24-4.45,5.19-1.34.94-.71,2.55-.31,3.8"/>
    <path class="st6" d="M200.78,175.16c1.77,1.55,4.45,3.16,9.5,3.16s7.73-1.61,9.5-3.16"/>
    <path class="st1" d="M171.36,258.14c11.71,5.54,21.54,8.04,38.89,8.04,17.34,0,27.18-2.5,38.89-8.04"/>
    <path class="st2" d="M160.02,169.7"/>
    <path class="st2" d="M248.78,169.7"/>
    <path class="st6" d="M260.94,231.37c-2.34,3.96-2.51,8.7-14.4,5.91"/>
    <path class="st6" d="M167.54,182.82c-3.99-1.77-11.81-5.51-17.85-3.51"/>
    <path class="st6" d="M155.49,205.94c-2.34-2.22-5.14-7.73-6.44-14.31"/>
    <path class="st6" d="M283.41,215.65c.13-.49-1.09-1.12-2.67-1.56-1.57-.43-4.04-1.21-6.17-1.39-2.12-.19-3.2.21-3.2.21"/>
    <path class="st6" d="M247.83,254.73c-9.33,5.73-21.54,7.43-40.26,7.43-18.71,0-42.87-7.09-51.55-19.44"/>
  </g>
  <g class="st15">
    <path class="st24" d="M259.58,189.41l-105.42-42.24c-5.25-2.12-9.49-8.5-9.47-14.25l.38-32.29c.02-5.74,4.3-8.68,9.55-6.56l105.42,42.24c5.25,2.12,9.49,8.5,9.47,14.25l-.38,32.29c-.03,5.74-4.31,8.68-9.56,6.56Z"/>
    <path d="M151.33,93.38h-.01s0,0,0,0h0s0,0,0,0c0,0,0,0,0,0,0,0,0,0,0,0,0,0,0,0,0,0,0,0,0,0,0,0,0,0,0,0,0,0,0,0,0,0,0,0,0,0,0,0,0,0,0,0,0,0,0,0,0,0,0,0,0,0,0,0,0,0,0,0,0,0,0,0,0,0,0,0,0,0,0,0,0,0,0,0,0,0,0,0,0,0,0,0,0,0,0,0,0,0,0,0,0,0,0,0,0,0,0,0,0,0,0,0,0,0,0,0,0,0,0,0,0,0,0,0,0,0,0,0,0,0,0,0,0,0,0,0,0,0,0,0,0,0,0,0,0,0,0,0,0,0,0,0,0,0,0,0,0,0,0,0,0,0,0,0,0,0,0,0,0,0,0,0,0,0,0,0,0,0,0,0,0,0,0,0,0,0,0,0,0,0,0,0,0,0,0,0,0,0,0,0,0,0,0,0,0,0,0,0,0,0,0,0,0,0,0,0,0,0,0,0,0,0,0,0,0,0,0,0,0,0,0,0,0,0,0,0,0,0,0,0,0,0,0,0,0,0,0,0,0,0,0,0,0,0,0,0,0,0,0,0,0,0,0,0,0,0,0,0,0,0,0,0,0,0,0,0,0,0,0,0,0,0,0,0,0,0,0,0,0,0,0,0,0,0,0,0,0,0,0,0,0,0,0,0,0,0,0,0,0,0,0,0-.01,0,0,0,0,0,0,0,0,0,0,0,0,0,0,0,0,0,0,0,0,0,0,0-.01,0,0,0,0,0,0,0,0,0-.01,0-.02,0,0,0,0,0,0,0,0,0-.01,0-.02,0,0,0,0,0,0,0,0,0-.01,0-.02,0,0,0,0,0,0,0,0,0-.01,0-.02,0,0,0,0,0,0,0,0,0-.01,0-.02,0,0,0,0,0,0,0,0,0-.01,0-.02,0,0,0,0,0,0,0,0,0-.01,0-.02,0,0,0,0,0,0,0,0,0-.01,0-.02,0,0,0,0,0,0,0,0,0-.01,0-.02,0,0,0,0,0,0,0,0,0-.01,0-.02,0,0,0,0,0,0,0,0,0-.01,0-.02,0,0,0,0,0,0,0,0,0-.01,0-.02,0,0,0,0,0,0,0,0,0-.01,0-.02,0,0,0,0,0,0,0,0,0-.01,0-.02,0,0,0,0,0,0,0,0,0-.01,0-.02,0h0s-.01,0-.02,0c0,0,0,0,0,0-.01,0-.03,0-.04,0,0,0,0,0,0,0,0,0-.01,0-.02,0,0,0,0,0,0,0,0,0-.01,0-.02,0,0,0,0,0,0,0,0,0-.01,0-.02,0,0,0,0,0,0,0,0,0,0,0-.01,0h0s0,0,0,0c0,0,0,0,0,0,0,0,0,0-.01,0h0s0,0,0,0h0s0,0-.01,0h0s0,0,0,0c0,0,0,0,0,0,0,0,0,0-.01,0,0,0,0,0,0,0,0,0,0,0,0,0,0,0,0,0,0,0,0,0,0,0-.01,0,0,0,0,0,0,0,0,0,0,0,0,0,0,0,0,0,0,0,0,0,0,0-.01,0,0,0,0,0,0,0,0,0,0,0,0,0,0,0,0,0,0,0,0,0,0,0-.01,0,0,0,0,0,0,0,0,0,0,0,0,0,0,0,0,0,0,0,0,0,0,0-.01,0,0,0,0,0,0,0,0,0,0,0,0,0,0,0,0,0,0,0,0,0,0,0-.01,0,0,0,0,0,0,0,0,0,0,0,0,0,0,0,0,0,0,0,0,0,0,0-.01,0,0,0,0,0,0,0,0,0,0,0,0,0,0,0,0,0,0,0,0,0,0,0-.01,0,0,0,0,0,0,0,0,0,0,0,0,0,0,0,0,0,0,0,0,0,0,0-.01,0,0,0,0,0,0,0,0,0,0,0,0,0,0,0,0,0,0,0,0,0,0,0-.01,0,0,0,0,0,0,0,0,0,0,0,0,0,0,0,0,0,0,0,0,0,0,0,0,0,0,0,0,0,0,0,0,0,0,0,0,0,0,0,0,0,0,0,0,0,0,0,0,0,0,0,0,0,0,0,0,0,0,0,0,0,0,0,0,0,0,0,0,0,0,0,0,0,0,0,0,0,0,0,0,0,0,0,0,0,0,0,0,0,0,0h0s0,0,0,0c0,0,0,0,0,0,0,0,0,0,0,0,0,0,0,0,0,0,0,0,0,0,0,0,0,0,0,0,0,0h0s0,0,0,0c0,0,0,0,0,0,0,0,0,0,0,0,0,0,0,0,0,0,0,0,0,0,0,0,0,0,0,0,0,0,0,0,0,0,0,0,0,0,0,0,0,0,0,0,0,0,0,0,0,0,0,0,0,0,0,0,0,0,0,0,0,0,0,0,0,0,0,0,0,0,0,0,0,0,0,0,0,0,0,0,0,0,0,0,0,0,0,0,0,0,0,0,0,0,0,0,0,0,0,0,0,0,0,0,0,0,0,0,0,0,0,0,0,0,0,0,0,0,0,0,0,0,0,0,0,0,0,0,0,0,0,0,0,0,0,0,0,0,0,0,0,0,0,0,0,0,0,0,0,0,0,0,0,0,0,0,0,0,0,0,0,0,0,0,0,0,0,0,0,0,0,0,0,0,0,0,0,0,0,0,0,0,0,0,0,0,0,0,0,0,0,0,0,0,0,0,0,0,0,0,0,0,0,0,0,0,0,0,0,0,0,0,0,0,0,0,0,0,0,0,0,0,0,0,0,0,0,0,0,0,0,0,0,0,0,0,0,0,0,0,0,0,0,0,0,0,0,0,0,0,0,0,0,0,0,0,0,0,0,0,0,0,0,0,0,0,0,0,0,0,0,0,0,0,0,0,0,0,0,0,0,0,0,0,0,0,0,0h0s0,0,0,0c0,0,0,0,0,0,0,0,0,0,0,0,0,0,0,0,0,0,0,0,0,0,0,0,0,0,0,0,0,0,0,0,0,0,0,0,0,0,0,0,0,0,0,0,0,0,0,0,0,0,0,0,0,0,0,0,0,0,0,0,0,0,0,0,0,0,0,0,0,0,0,0,0,0,0,0,0,0,0,0,0,0,0,0,0,0,0,0,0,0,0,0,0,0,0,0,0,0,0,0,0,0,0,0,0,0,0,0,0,0,0,0,0,0,0,0,0,0,0,0,0,0,0,0,0,0,0,0,0,0,0,0,0,0-.01,0-.02,0,0,0,0,0,0,0,0,0-.01,0-.02,0,0,0,0,0,0,0,0,0-.01,0-.02,0,0,0,0,0,0,0,0,0-.01,0-.02,0,0,0,0,0,0,0,0,0-.01,0-.02,0h0c-.59.15-1.15.38-1.65.69l.53.85c.78-.48,1.69-.73,2.7-.73v-1h0ZM145.89,96.76c-.03.07-.06.14-.1.21,0,0,0,0,0,0,0,0,0,.02-.01.03h0s0,0,0,0c0,0,0,0,0,0,0,0,0,.02-.01.03,0,0,0,0,0,0,0,0,0,0,0,0,0,0,0,0,0,0,0,0,0,.01,0,.02,0,0,0,0,0,0,0,0,0,0,0,0,0,0,0,0,0,0,0,0,0,0,0,0,0,0,0,0,0,0,0,0,0,.01,0,.02,0,0,0,0,0,0,0,0,0,0,0,0,0,0,0,0,0,0,0,0,0,0,0,0,0,0,0,0,0,0,0,0,0,0,0,0,0,0,0,0,0,0,0,0,0,0,0,0,0,0,0,0,0,0,0,0,0,0,0,0,0,0,0,0,0,0,0,0,0,0,0,0,0,0,0,0,0,0,0,0,0,0,0,0,0,0,0,0,0,0,0,0,0,0,0,0,0,0,0,0,0,0,0,0,0,0,0,0,0,0,0,0,0,0,0,0,0,0,0,0,0,0,0,0,0,0,0,0,0,0,0,0,0,0,0,0,0,0,0,0,0,0,0,0,0,0,0,0,0,0,0,0,0,0,0,0,0,0,0,0,0,0,0,0,0,0,0,0,0,0,0,0,0,0,0,0,0,0,0,0,0,0,0,0,0,0,0,0,0,0,0,0,0,0,0,0,0,0,0,0,0,0,0,0,0,0,0,0,0,0,0,0,0,0,0,0,0,0,0,0,0,0,0,0,0,0,0,0,0,0,0,0,0,0,0,0,0,0,0,0,0,0,0,0,0,0,0,0,0,0,0,0,0,0,0,0,0,0,0,0,0,0,0,0,0,0,0,0,0,0,0,0,0,0,0,0,0,0,0,0,0,0,0,0,0,0,0,0,0,0,0,0,0,0,0,0,0,0,0,0,0,0,0,0,0,0,0,0,0,0,0,0,0,0,0,0,0,0,0,0,0,0,0,0,0,0,0,0,0,0,0,0,0,0,0,0,0,0,0,0,0,0,0,0,0,0,0,0,0,0,0,0,0,0,0,0,0,0,0,0s0,0,0,0c0,0,0,0,0,0,0,0,0,0,0,0,0,0,0,0,0,0,0,0,0,0,0,0,0,0,0,0,0,0,0,0,0,0,0,0,0,0,0,0,0,0,0,0,0,0,0,0,0,0,0,0,0,0,0,0,0,0,0,0,0,0,0,0,0,0,0,0,0,0,0,0s0,0,0,0c0,0,0,0,0,0,0,0,0,0,0,0,0,0,0,0,0,0,0,0,0,0,0,0,0,0,0,0,0,0,0,0,0,0,0,0,0,0,0,0,0,0,0,0,0,0,0,0,0,0,0,0,0,0,0,0,0,0,0,0,0,0,0,0,0,0,0,0,0,0,0,0,0,0,0,0,0,0,0,0,0,0,0,0,0,0,0,0,0,0,0,0,0,0,0,0,0,0,0,0,0,0,0,0,0,0,0,0,0,0,0,0,0,0,0,0,0,0,0,0,0,0,0,0,0,0,0,0,0,0,0,0,0,0,0,0,0,0,0,0,0,0,0,0,0,0,0,0,0,0,0,0,0,0,0,0,0,0,0,0,0,.01h0s0,0,0,0c0,0,0,0,0,0,0,0,0,0,0,0,0,0,0,0,0,0,0,0,0,0,0,0,0,0,0,0,0,0h0s0,.01,0,.01c0,0,0,0,0,0,0,0,0,0,0,0,0,0,0,0,0,0,0,0,0,0,0,0,0,0,0,0,0,0,0,0,0,0,0,0,0,0,0,.01,0,.02,0,0,0,0,0,0h0s0,.01,0,.01c0,0,0,0,0,0,0,0,0,0,0,0,0,0,0,.01,0,.02,0,0,0,0,0,0,0,0,0,0,0,0,0,0,0,0,0,0,0,0,0,0,0,.01,0,0,0,0,0,0,0,0,0,.01,0,.02,0,0,0,0,0,0,0,0,0,0,0,0,0,0,0,0,0,0,0,0,0,0,0,.01,0,0,0,0,0,0,0,0,0,0,0,0,0,0,0,0,0,0,0,0,0,0,0,0,0,0,0,0,0,0,0,0,0,0,0,0,0,0,0,0,0,0,0,0,0,0,0,0,0,0,0,0,0,0,0,0,0,0,0,0,0,0,0,0,0,0,0,0,0,0,0,0,0,0,0,0,0,0,0,0,0,0,0,0,0,0,0,0,0,0,0,0,0,.01,0,.02,0,0,0,0,0,0,0,0,0,0,0,0,0,0,0,0,0,0,0,0,0,0,0,.01,0,0,0,0,0,0,0,0,0,.01,0,.02,0,0,0,0,0,0,0,0,0,0,0,.01,0,0,0,0,0,0,0,0,0,0,0,0,0,0,0,0,0,0,0,0,0,0,0,0,0,0,0,0,0,0,0,0,0,0,0,.01,0,0,0,0,0,0,0,0,0,0,0,0,0,0,0,0,0,0,0,0,0,0,0,0,0,0,0,0,0,0,0,0,0,.01,0,.02,0,0,0,0,0,0,0,0,0,0,0,.01,0,0,0,0,0,0,0,0,0,0,0,.01,0,0,0,0,0,0,0,0,0,0,0,0,0,0,0,0,0,0h0s0,.01,0,.01c0,0,0,0,0,.01,0,0,0,0,0,0,0,0,0,.01,0,.02,0,0,0,0,0,0,0,0,0,0,0,.01,0,0,0,0,0,0,0,0,0,0,0,.01,0,0,0,0,0,0,0,0,0,.01,0,.02,0,0,0,0,0,0,0,0,0,0,0,0,0,0,0,0,0,0,0,0,0,0,0,0,0,0,0,0,0,0,0,0,0,.01,0,.02,0,0,0,0,0,0,0,0,0,0,0,.01,0,0,0,0,0,0,0,0,0,0,0,0,0,0,0,0,0,0h0s0,0,0,0c0,0,0,0,0,.01,0,0,0,0,0,0,0,0,0,0,0,0,0,0,0,0,0,0h0s0,.01,0,.01c0,0,0,0,0,0,0,0,0,0,0,0,0,0,0,0,0,0,0,0,0,0,0,0,0,0,0,0,0,.01,0,0,0,0,0,0,0,0,0,0,0,0,0,0,0,0,0,0,0,0,0,0,0,0,0,0,0,0,0,0,0,0,0,0,0,0,0,0,0,0,0,0,0,0,0,0,0,0,0,0,0,0,0,0,0,0,0,0,0,0,0,0,0,0,0,0h0s0,0,0,0c0,0,0,0,0,0,0,0,0,0,0,0,0,0,0,0,0,0,0,0,0,0,0,0,0,0,0,0,0,0,0,0,0,0,0,0,0,0,0,0,0,0,0,0,0,0,0,0,0,0,0,0,0,0,0,0,0,0,0,0,0,0,0,0,0,0,0,0,0,0,0,0,0,0,0,0,0,0,0,0,0,0,0,0,0,0,0,0,0,0,0,0,0,0,0,0,0,0,0,0,0,0,0,0,0,0,0,0,0,0,0,0,0,0,0,0,0,0,0,0,0,0,0,0,0,0,0,0,0,0,0,0,0,0,0,0,0,0,0,0,0,0,0,0,0,0,0,0,0,0h0s0,0,0,.01c0,0,0,0,0,0,0,0,0,0,0,0,0,0,0,0,0,0,0,0,0,0,0,0,0,0,0,0,0,0,0,0,0,0,0,0,0,0,0,0,0,0,0,0,0,0,0,0,0,0,0,0,0,0,0,0,0,0,0,0,0,0,0,0,0,0s0,0,0,0c0,0,0,0,0,0,0,0,0,0,0,0,0,0,0,0,0,0,0,0,0,0,0,0,0,0,0,0,0,0,0,0,0,0,0,0,0,0,0,0,0,0,0,0,0,0,0,0,0,0,0,0,0,0,0,0,0,0,0,0,0,0,0,0,0,0,0,0,0,0,0,0,0,0,0,0,0,0,0,0,0,0,0,0,0,0,0,0,0,0h0s0,0,0,.01c0,0,0,0,0,0,0,0,0,0,0,0,0,0,0,0,0,0,0,0,0,0,0,0,0,0,0,0,0,0,0,0,0,0,0,0,0,0,0,0,0,0,0,0,0,0,0,0,0,0,0,0,0,0,0,0,0,0,0,0,0,0,0,0,0,0,0,0,0,0,0,0,0,0,0,0,0,0,0,0,0,0,0,0,0,0,0,0,0,0,0,0,0,0,0,0,0,0,0,0,0,0,0,0,0,0,0,0,0,0,0,0,0,0,0,0,0,0,0,0,0,0,0,0,0,0,0,0,0,0,0,0,0,0,0,0,0,0s0,0,0,0c0,0,0,0,0,0,0,0,0,0,0,0,0,0,0,0,0,0,0,0,0,0,0,0,0,0,0,0,0,0,0,0,0,0,0,0,0,0,0,0,0,0,0,0,0,0,0,0,0,0,0,0,0,0,0,0,0,0,0,0,0,0,0,0,0,0,0,0,0,0,0,0,0,0,0,0,0,0,0,0,0,0,0,0,0,0,0,0,0,0,0,0,0,0,0,0,0,0,0,0,0,0,0,0,0,0,0,0,0,0,0,0,0,0,0,0,0,0,0,0,0,0,0,0,0,0,0,0,0,0,0,0,0,0,0,0,0,0,0,0,0,0,0,0,0,0,0,0,0,0,0,0,0,0,0,0,0,0,0,0,0,0,0,0,0,0,0,0,0,0,0,0,0,0,0,0,0,0,0,0,0,0,0,0,0,0,0,0,0,0,0,0,0,0,0,0,0,0,0,0,0,0,0,0,0,0,0,0,0,0,0,0,0,0,0,0,0,0,0,0,0,0,0,0,0,0,0,0,0,0,0,0,0,0,0,0,0,0,0,0,0,0,0,0,0,0,0,0,0,0,0,0,0,0,0,0,0,0,0,0,0,0,0,0,0,0,0,0,0,0,0,0,0,0,0,0,0,0,0,0,0,0,0,0,0,0,0,0,0,0,0,0,0,0,0,0,0,0,0,0,0,0,0,0,0,0,0,0,0,0,0,0,0,0,0,0,0,0,0,0,0,0,0,0,0,0,0,0,0,0,0,0,0,0,0,0h0s0,0,0,.01c0,0,0,0,0,0,0,0,0,0,0,0,0,0,0,0,0,0,0,0,0,0,0,.01,0,0,0,0,0,0,0,0,0,0,0,0,0,0,0,0,0,0,0,0,0,0,0,.01,0,0,0,0,0,0,0,0,0,0,0,0,0,0,0,0,0,0,0,0,0,0,0,.01,0,0,0,0,0,0,0,0,0,0,0,0,0,0,0,0,0,0,0,0,0,0,0,.01,0,0,0,0,0,0,0,0,0,0,0,0,0,0,0,0,0,0,0,0,0,0,0,.01,0,0,0,0,0,0,0,0,0,0,0,.01,0,0,0,0,0,0,0,0,0,0,0,.01,0,0,0,0,0,0,0,0,0,0,0,.01,0,0,0,0,0,0,0,0,0,0,0,.01,0,0,0,0,0,0,0,0,0,0,0,.01,0,0,0,0,0,0,0,0,0,.01,0,.02,0,0,0,0,0,0,0,0,0,0,0,.01,0,0,0,0,0,0,0,0,0,0,0,.01,0,0,0,0,0,0,0,0,0,0,0,.01,0,0,0,0,0,0,0,0,0,0,0,.01,0,0,0,0,0,0,0,0,0,0,0,.01,0,0,0,0,0,0,0,0,0,0,0,.01,0,0,0,0,0,0,0,0,0,.02,0,.02,0,0,0,0,0,0,0,0,0,0,0,.01,0,0,0,0,0,0,0,0,0,0,0,.01,0,0,0,0,0,0,0,0,0,.02,0,.02,0,0,0,0,0,0,0,0,0,0,0,.01,0,0,0,0,0,0,0,.01,0,.02,0,.04,0,0,0,0,0,0,0,0,0,0,0,.01,0,0,0,0,0,0,0,0,0,.02,0,.02h0s0,0,0,.01h0s0,0,0,.01c0,0,0,0,0,0,0,0,0,.02,0,.02h0c-.01.12-.02.24-.03.36l1,.06c.06-1.08.3-2.06.7-2.89l-.9-.44h0ZM145.04,103.41l-.04,3.38h1s.04-3.37.04-3.37h-1ZM144.96,110.18l-.04,3.38h1s.04-3.37.04-3.37h-1ZM144.88,116.95s0,.82-.02,1.65h0s0,0,0,0h0s0,0,0,.01v.02s0,0,0,0l-.02,1.7h1s.04-3.37.04-3.37h-1ZM144.8,123.71l-.04,3.38h1s.04-3.37.04-3.37h-1ZM144.72,130.48l-.03,2.24s0,0,0,0h0s0,0,0,0h0s0,0,0,0h0s0,0,0,.01h0s0,0,0,0h0s0,0,0,0h0s0,0,0,0h0s0,.01,0,.01h0s0,0,0,0h0s0,0,0,0h0s0,0,0,0h0s0,0,0,0h0s0,0,0,0h0s0,0,0,0h0s0,0,0,0h0s0,0,0,0h0s0,0,0,0h0s0,0,0,.01h0c0,.05,0,.08,0,.08h0s0,0,0,0h0s0,0,0,0h0s0,0,0,0h0s0,0,0,0h0s0,.03,0,.04h0s0,0,0,0h0c0,.28.01.57.03.85l1-.07c-.02-.29-.03-.58-.03-.85l.03-2.44h-1ZM146.34,136.87l-.95.31c.21.65.46,1.29.76,1.92h0s0,.02.01.02h0s0,.02.01.02h0s0,.02.01.02c0,0,0,0,0,0,0,0,0,.02.01.02,0,0,0,0,0,0,0,0,0,0,0,.01h0s0,0,0,.01c0,0,0,0,0,0,0,0,0,0,0,.01,0,0,0,0,0,0,0,0,0,0,0,.01,0,0,0,0,0,0,0,0,0,0,0,0,0,0,0,0,0,0,0,0,0,0,0,.01,0,0,0,0,0,0,0,0,0,0,0,0,0,0,0,0,0,0,0,0,0,0,0,.01,0,0,0,0,0,0,0,0,0,0,0,0,0,0,0,0,0,0,0,0,0,0,0,.01h0s0,0,0,.01c0,0,0,0,0,0,0,0,0,0,0,.01h0s0,0,0,.01c0,0,0,0,0,0,0,0,0,0,0,.01h0s0,0,0,.01c0,0,0,0,0,0,0,0,0,0,0,0,0,0,0,0,0,0h0s0,.01,0,.01c0,0,0,0,0,0,0,0,0,0,0,0,0,0,0,0,0,0,0,0,0,0,0,0,0,0,0,0,0,0,0,0,0,0,0,0,0,0,0,0,0,0,0,0,0,0,0,0,0,0,0,0,0,0,0,0,0,0,0,0,0,0,0,0,0,0,0,0,0,0,0,0,0,0,0,0,0,0h0s0,0,0,.01h0s0,0,0,.01h0s0,.01,0,.01c0,0,0,0,0,0,0,0,0,0,0,0,0,0,0,0,0,0,0,0,0,0,0,0,0,0,0,0,0,0,0,0,0,0,0,0,0,0,0,0,0,0,0,0,0,0,0,0,0,0,0,0,0,0,0,0,0,0,0,0,0,0,0,0,0,0,0,0,0,0,0,0,0,0,0,0,0,0,0,0,0,0,0,0,0,0,0,0,0,0,0,0,0,0,0,0,0,0,0,0,0,0,0,0,0,0,0,0,0,0,0,0,0,0,0,0,0,0,0,0,0,0,0,0,0,0h0s0,.01,0,.01c0,0,0,0,0,0,0,0,0,0,0,0,0,0,0,0,0,0,0,0,0,0,0,0,0,0,0,0,0,0,0,0,0,0,0,0,0,0,0,0,0,0,0,0,0,0,0,0,0,0,0,0,0,0,0,0,0,0,0,0,0,0,0,0,0,0,0,0,0,0,0,0,0,0,0,0,0,0,0,0,0,0,0,0,0,0,0,0,0,0,0,0,0,0,0,0,0,0,0,0,0,0,0,0,0,0,0,0,0,0,0,0,0,0,0,0,0,0,0,0,0,0,0,0,0,0,0,0,0,0,0,0,0,0,0,0,0,0,0,0,0,0,0,0,0,0,0,0,0,.01,0,0,0,0,0,0,0,0,0,0,0,0,0,0,0,0,0,0,0,0,0,0,0,.01,0,0,0,0,0,0,0,0,0,0,0,0,0,0,0,0,0,0,0,0,0,0,0,.01,0,0,0,0,0,0,0,0,0,0,0,0,0,0,0,0,0,0,0,0,0,0,0,.01,0,0,0,0,0,0,0,0,0,0,0,0,0,0,0,0,0,0,0,0,0,0,0,.01,0,0,0,0,0,0,0,0,0,0,0,0,0,0,0,0,0,0,0,0,0,0,0,.01h0s0,0,0,.01c0,0,0,0,0,0,0,0,0,.01.01.02h0s0,.02.01.02h0s0,.02.01.02c0,0,0,0,0,0,.05.09.1.18.15.27l.87-.49c-.53-.94-.96-1.92-1.28-2.91h0ZM149.43,142.4l-.76.65c.74.87,1.56,1.67,2.43,2.34l.61-.79c-.81-.63-1.58-1.37-2.28-2.2h0ZM154.39,146.19l-.39.92s.08.03.12.05c0,0,0,0,0,0,0,0,0,0,0,0,0,0,0,0,0,0,0,0,0,0,0,0,0,0,0,0,0,0,0,0,0,0,0,0l2.99,1.2.37-.93-2.99-1.2-.14-.06h0ZM160.66,148.7l-.37.93h0s0,0,0,0h0s0,0,0,0h0s0,0,0,0h0s0,0,0,0h0s0,0,0,0h0s0,0,0,0h0s0,0,0,0h0s0,0,0,0h0s0,0,0,0h0s0,0,0,0h0s0,0,0,0h0s0,0,0,0h0s0,0,0,0h0s0,0,0,0h0s0,0,0,0h0s0,0,0,0h0s0,0,0,0h0s0,0,0,0h0s0,0,0,0h0s0,0,0,0h0s0,0,.01,0h0s0,0,0,0h0s0,0,0,0h0s0,0,0,0h0s0,0,0,0h0s0,0,0,0h0s0,0,0,0h0s0,0,0,0h0s0,0,0,0h0s0,0,0,0h.01s0,0,0,0h0s0,0,0,0h0s0,0,.01,0h0s0,0,0,0h0s.02,0,.03.01h0s0,0,0,0h0s0,0,0,0h0s.01,0,.02,0h0s.01,0,.02,0h0s0,0,0,0h0s0,0,0,0h.01s.01,0,.02.01h0s.01,0,.02,0h0s.02,0,.02,0h0s0,0,.01,0h0s0,0,.01,0h0s.01,0,.02.01h0s.02,0,.02,0h0s.02,0,.03.01h0s0,0,.01,0h0s0,0,0,0h.02s0,0,0,0h0s.02.01.04.02h0s.02,0,.03.01h0s.02,0,.03.01h0s.08.03.12.05h0c.08.04.17.07.26.11h0c.92.37,2.15.86,2.15.86l.37-.93-3.14-1.26h0ZM166.94,151.22l-.37.93s.25.1.61.24h0s.02,0,.03.01h0s.02,0,.03.01h0s.02,0,.03.01l2.45.98.37-.93-3.14-1.26h0ZM173.23,153.74l-.37.93,1.16.46s0,0,0,0h0s0,0,0,0h.01s0,0,0,0h0s0,0,.01,0h0c.89.36,1.93.78,1.93.78l.37-.93-3.14-1.26h0ZM179.51,156.25l-.37.93,3.14,1.26.37-.93-3.14-1.26h0ZM185.79,158.77l-.37.93,3.14,1.26.37-.93-3.14-1.26h0ZM192.08,161.29l-.37.93,3.14,1.26.37-.93-3.14-1.26h0ZM198.36,163.81l-.37.93,1.62.65c.77.31,1.52.61,1.52.61l.37-.93-3.14-1.26h0ZM204.64,166.32l-.37.93,3.14,1.26.37-.93-3.14-1.26h0ZM210.93,168.84l-.37.93s1.01.4,1.88.75h0s.03.01.04.02l1.22.49.37-.93-3.14-1.26h0ZM217.21,171.36l-.37.93,3.14,1.26.37-.93-3.14-1.26h0ZM223.49,173.87l-.37.93,3.14,1.26.37-.93-3.14-1.26h0ZM229.77,176.39l-.37.93,3.14,1.26.37-.93-3.14-1.26h0ZM236.06,178.91l-.37.93,3.14,1.26.37-.93-3.14-1.26h0ZM242.34,181.43l-.37.93,3.14,1.26.37-.93-3.14-1.26h0ZM248.62,183.94l-.37.93,3.14,1.26.37-.93-3.14-1.26h0ZM254.91,186.46l-.37.93,1.91.77s0,0,0,0l.07.03s0,0,0,0h0s0,0,0,0h0s0,0,0,0h.02s0,0,0,0l.07.03s0,0,0,0h.02s0,.01,0,.01l.04.02s0,0,0,0l.04.02s0,0,0,0l.04.02s0,0,0,0h.01s0,0,0,0h0s0,0,0,0h.03s0,.01,0,.01h0s0,0,0,0h0s0,0,.01,0h.02s.02.02.04.02h.01s0,0,.01,0h0s0,0,0,0h0s.04.02.06.03h0s.03.01.05.02h0s0,0,0,0h0s0,0,0,0h0s.05.02.08.03h0s.02,0,.03.01h0s.02,0,.03.01h0s.04.01.05.02h0s0,0,0,0h0s.01,0,.02,0h0c.23.09.38.15.38.15l.37-.93-3.14-1.26h0ZM261.1,188.86l-.25.97c.13.03.27.07.4.09,0,0,0,0,0,0,.01,0,.02,0,.03,0,0,0,0,0,0,0,0,0,.02,0,.02,0t0,0s0,0,0,0c0,0,0,0,0,0,0,0,.02,0,.02,0,0,0,0,0,0,0,0,0,0,0,0,0,0,0,0,0,0,0,0,0,0,0,0,0h0s0,0,0,0c0,0,0,0,0,0,0,0,0,0,0,0,0,0,0,0,0,0,0,0,0,0,0,0,0,0,0,0,0,0,0,0,0,0,0,0,0,0,0,0,0,0,0,0,0,0,0,0h0s0,0,0,0c0,0,0,0,0,0,0,0,0,0,0,0,0,0,0,0,0,0,0,0,0,0,0,0h0s0,0,0,0c0,0,0,0,0,0h0s0,0,0,0c0,0,0,0,0,0,0,0,0,0,0,0,0,0,.01,0,.02,0,0,0,0,0,0,0,0,0,0,0,0,0,0,0,0,0,0,0,0,0,0,0,0,0,0,0,0,0,0,0,0,0,.01,0,.02,0,0,0,0,0,0,0,0,0,0,0,0,0,0,0,0,0,0,0,0,0,0,0,0,0,0,0,0,0,0,0,0,0,0,0,0,0,0,0,0,0,0,0,0,0,0,0,0,0,0,0,0,0,0,0,0,0,0,0,0,0,0,0,0,0,0,0,0,0,0,0,0,0,0,0,0,0,0,0,0,0,0,0,0,0,0,0,0,0,0,0,0,0,0,0,0,0,0,0,0,0,0,0,0,0,0,0,0,0,0,0,0,0,0,0,0,0,0,0,0,0,0,0,0,0,0,0,0,0,0,0,0,0,0,0,0,0,0,0,0,0,0,0,0,0,0,0,0,0,0,0,0,0,0,0,0,0,0,0,0,0,0,0,0,0,0,0,0,0,0,0,0,0,0,0,0,0,0,0,0,0,0,0,0,0,0,0,0,0,0,0,0,0,0,0,0,0,0,0,0,0,0,0,0,0,0,0,0,0,0,0,0,0,0,0,0,0,0,0,0,0,0,0,0,0,0,0,0,0,0,0,0,0,0,0,0,0,0,0,0,0,0,0,0,0,0,0,0,0,0,0,0,0,0,0,0,0,0,0,0,0,0,0,0,0,0,0,0,0,0,0,0,0,0,0,0,0,0,0,0,0,0,0,0,0,0,0,0,0,0,0,0,0,0,0,0,0,0,0,0,0,0,0,0,0,0,0,0,0,0,0,0,0,0,0,0,0,0,0,0,0,0,0,0,0,0,0,0,0,0,0,0,0,0,0,0,0h0s0,0,0,0c0,0,0,0,0,0,0,0,0,0,0,0,0,0,0,0,0,0,0,0,0,0,0,0,0,0,0,0,0,0,0,0,0,0,0,0,0,0,0,0,0,0,0,0,0,0,0,0,0,0,0,0,0,0,0,0,0,0,0,0,0,0,0,0,0,0,0,0,0,0,0,0h0s0,0,0,0c0,0,0,0,0,0s0,0,0,0c0,0,0,0,0,0,0,0,0,0,0,0,0,0,0,0,0,0,0,0,0,0,0,0,0,0,0,0,0,0,0,0,0,0,0,0,0,0,0,0,0,0,0,0,0,0,0,0,0,0,0,0,0,0,0,0,0,0,0,0,0,0,0,0,0,0,0,0,0,0,0,0,0,0,0,0,0,0,0,0,0,0,0,0,0,0,0,0,0,0,0,0,0,0,0,0,0,0,0,0,0,0,0,0,0,0,0,0,0,0,0,0,0,0,0,0,0,0,0,0,0,0,0,0,0,0,0,0,0,0,0,0,0,0,0,0,0,0,0,0,0,0,0,0,0,0,0,0,0,0,0,0,0,0,0,0,0,0,0,0,0,0,0,0,0,0,0,0,0,0,0,0,0,0,0,0,0,0,0,0,0,0,0,0,0,0,0,0,0,0,0,0,0,0,0,0,0,0,0,0,0,0,0,0,0,0,0,0,0,0,0,0,0,0,0,0,0,0,0,0,0,0,0,0,0,0,0,0,0,0,0,0,0,0,0,0,0,0,0,0,0,0,0,0,0,0,0,0,0,0,0,0,0,0,0,0,0,0,0,0,0,0,0,0,0,0,0,0,0,0,0,0,0,0,0,0,0,0,0,0,0,0,0,0,0,0,0,0,0,0,0,0,0,0,0,0,0,0,0,0,0,0,0,0,0,0,0,0,0,0,0,0,0,0,0,0,0,0,0,0,0,0,0,0,0,0,0,0,0,0,0,0,0,0,0,0,0,0,0,0,0,0,0,0,0,0,0,0,0,0,0,0,0,0,0,0,0,0,0,0,0,0,0,0,0,0,0,0,0,0,0,0,0,0,0,0,0,0,0,0,0,0,0,0,0,0,0,0,0,0,0,0,0,0,0,0,0,0,0,0,0,0,0,0,0,0,0,0,0,0,0,0,0,0,0,0,0,0,0,0,0,0,0,0,0,0,0,0,0,0,0,0,0,0,0,0,0,0,0,0,0,0,0,0,0,0,0,0,0,0,0,0,0,0,0,0,0,0,0,0,0,0,0,0,0,0,0,0,0,0,0,0,0,0,0,0,0,0,0,0,0,0,0,0,0,0,0,0,0,0,0,0,0,0,0,0,0,0,0,0,0,0,0,0,0,0,0,0,0,0h0s0,0,.01,0c0,0,0,0,0,0,0,0,0,0,0,0,0,0,0,0,0,0,0,0,0,0,0,0,0,0,0,0,0,0,0,0,0,0,0,0,0,0,0,0,0,0,0,0,0,0,0,0,0,0,0,0,0,0h0s0,0,0,0c0,0,0,0,0,0,0,0,0,0,0,0,0,0,0,0,0,0,0,0,0,0,0,0,0,0,0,0,0,0h0s0,0,0,0c0,0,0,0,0,0,0,0,0,0,0,0,0,0,0,0,0,0,0,0,0,0,0,0,0,0,0,0,0,0,0,0,0,0,0,0,0,0,0,0,0,0,0,0,0,0,0,0,0,0,0,0,0,0,0,0,0,0,0,0,0,0,0,0,0,0,0,0,0,0,0,0,0,0,0,0,0,0,0,0,0,0,0,0,0,0,0,0,0,0,0,0,0,0,0,0,0,0,0,0,0,0,0,0,0,0,0,0,0,0,0,0,0,0h0s0,0,0,0c0,0,0,0,0,0,0,0,0,0,0,0,0,0,0,0,0,0,0,0,0,0,0,0,0,0,0,0,0,0,0,0,0,0,0,0,0,0,0,0,0,0,0,0,0,0,0,0,0,0,0,0,0,0,0,0,0,0,0,0,0,0,0,0,0,0,0,0,0,0,0,0,0,0,0,0,0,0,0,0,0,0,0,0,0,0,0,0,0,0,0,0,0,0,0,0,0,0,0,0,0,0,0,0,0,0,0,0,0,0,0,0,0,0,0,0,0,0,0,0,0,0,0,0,0,0,0,0,0,0,0,0,0,0,0,0,0,0,0,0,0,0,0,0,0,0,0,0,0,0,0,0,0,0,0,0,0,0,0,0,0,0,0,0,0,0,0,0,0,0,0,0,0,0,0,0,0,0,0,0,0,0,0,0,0,0,0,0,0,0,0,0,0,0,0,0,0,0,0,0,0,0,0,0,0,0,0,0,0,0,0,0,0,0,0,0,0,0,0,0,0,0,0,0,0,0,0,0,0,0,0,0,0,0,0,0,0,0,0,0,0,0,0,0,0,0,0,0,0,0,0,0,0,0,0,0,0,0,0,0,0,0,0,0,0,0,0,0,0,0,0,0,0,0,0,0,0,0,0,0,0,0,0,0,0,0,0,0,0,0,0,0,0,0,0,0,0,0,0,0,0,0,0,0,0,0,0,0,0,0,0,0,0,0,0,0,0,0,0,0,0,0,0,0,0,0,0,0,0,0,0,0,0,0,0,0,0,0,0,0,0,0,0,0,0,0,0,0,0,0,0,0,0,0,0,0,0,0,0,0,0,0,0,0,0,0,0,0,0,0,0,0,0,0,0,0,0,0,0,0,0,0,0,0,0,0,0,0,0,0,0,0,0,0,0,0,0,0,0,0,0,0,0,0,0,0,0,0,0,0,0,0,0,0,0,0,0,0,0,0,0,0,0,0,0,0,0,0,0,0,0,0,0,0,0,0,0,0,0,0,0,0,0,0,0,0,0,0,0,0,0,0,0,0,0,0,0,0,0,0,0,0,0,0,0,0,0,0,0,0,0,0,0,0,0,0,0,0,0,0,0,0,0,0,0,0,0,0,0,0,0,0,0,0,0,0,0,0,0,0,0,0,0,0,0,0,0,0,0,0,0,0,0,0,0,0s0,0,0,0c0,0,0,0,0,0,0,0,0,0,0,0,0,0,0,0,0,0,0,0,0,0,0,0,0,0,0,0,0,0,0,0,0,0,0,0,0,0,0,0,0,0,0,0,0,0,0,0,0,0,0,0,0,0,0,0,0,0,0,0,0,0,0,0,0,0h0s0,0,0,0c0,0,0,0,0,0,0,0,0,0,0,0,0,0,0,0,0,0,0,0,0,0,0,0,0,0,0,0,0,0,0,0,0,0,0,0,0,0,0,0,0,0,0,0,0,0,0,0,0,0,0,0,0,0,0,0,0,0,0,0,0,0,0,0,0,0,0,0,0,0,0,0,0,0,0,0,0,0,0,0,0,0,0,0,0,0,0,0,0,0,0,0,0,0,0,0,0,0,0,0,0,0,0,0,0,0,0,0,0,0,0,0,0,0,0,0,0,0,0,0,0,0,0,0,0,0,0,0,0,0,0,0,0,0,0,0,0,0,0,0,0,0,0,0,0,0,0,0,0,0,0,0,0,0,0,0,0,0,0,0,0,0,0,0,0,0,0,0,0,0,0,0,0,0,0,0,0,0,0,0h0s0,0,0,0c0,0,0,0,0,0,0,0,0,0,0,0h0s0,0,0,0h0s0,0,0,0c0,0,0,0,0,0,0,0,0,0,0,0h0s0,0,0,0c0,0,0,0,0,0,0,0,0,0,0,0h0s0,0,0,0h0s0,0,0,0h0s.01,0,.02,0h0s0,0,0,0c0,0,0,0,0,0h0s0,0,0,0c0,0,0,0,0,0,0,0,0,0,0,0,0,0,0,0,0,0,0,0,0,0,0,0,0,0,0,0,0,0,0,0,0,0,0,0,0,0,0,0,0,0,0,0,0,0,0,0,0,0,0,0,0,0,0,0,0,0,0,0,0,0,0,0,0,0,0,0,0,0,0,0,0,0,0,0,0,0,0,0,0,0,0,0,0,0,0,0,0,0s0,0,0,0c0,0,0,0,0,0,0,0,0,0,0,0,0,0,0,0,0,0,0,0,0,0,0,0,0,0,0,0,0,0,0,0,0,0,0,0,0,0,0,0,0,0,0,0,0,0,0,0,0,0,0,0,0,0,0,0,0,0,0,0,0,0,0,0,0,0,0,0,0,0,0,0,0,0,0,0,0,0,0,0,0,0,0,0,0,0,0,0,0,0,0,0,0,0,0,0,0,0,0,0,0,0,0,0,0,0,0,0,0,0,0,0,0,0,0,0,0,0,0,0,0,0,0,0,0,0s0,0,0,0,0,0,0,0c0,0,0,0,0,0s0,0,0,0c0,0,0,0,0,0,0,0,0,0,0,0,0,0,0,0,0,0s0,0,0,0,0,0,0,0,0,0,0,0c0,0,0,0,0,0,0,0,0,0,0,0,0,0,0,0,0,0,0,0,0,0,0,0,0,0,0,0,0,0,0,0,0,0,0,0,0,0,0,0,0,0,0,0,0,0,0,0,0,0,0,0,0,0,0,0,0,0,0,0,0,0,0,0,0,0,0,0,0,0,0,0,0,0,0,0,0,0,0,0,0,0,0,0,0,0,0,0,0,0,0,0,0,0,0,0,0,0,0,0,0,0,0,0,0,0,0,0,0,0,0,0,0,0,0,0,0,0,0,0,0,0,0,0,0,0,0,0,0,0,0,0,0,0,0,0,0,0,0,0,0,0,0,0,0,0,0,0,0,0,0,0,0,0,0,0,0,0,0,0,0,0,0,0,0,0,0,0,0,0,0,0,0,0,0,0,0,0,0,0,0,0,0,0,0,0s0,0,0,0h0s0,0,0,0,0,0,0,0c0,0,0,0,0,0h0s0,0,0,0c0,0,0,0,0,0,0,0,0,0,0,0h0s0,0,0,0h0s0,0,0,0c0,0,0,0,0,0s0,0,0,0c0,0,0,0,0,0,0,0,0,0,0,0,0,0,0,0,0,0,0,0,0,0,0,0,0,0,0,0,0,0,0,0,0,0,0,0h0s0,0,0,0c0,0,0,0,0,0,0,0,0,0,0,0h0s0,0,0,0h0s0,0,0,0h0s0,0,0,0c0,0,0,0,0,0,0,0,0,0,0,0,0,0,0,0,0,0,0,0,0,0,0,0,0,0,0,0,0,0,0,0,0,0,0,0,0,0,0,0,0,0,0,0,0,0,0,0,0,0,0,0,0,0,0,0,0,0,0,0,0,0,0,0,0,0,0,0,0,0,0,0h0s0,0,0,0c0,0,0,0,0,0,0,0,0,0,0,0,0,0,0,0,0,0,0,0,0,0,0,0,0,0,0,0,0,0,0,0,0,0,0,0,0,0,0,0,0,0,0,0,0,0,0,0,0,0,0,0,0,0,0,0,0,0,0,0,0,0,0,0,0,0,0,0,0,0,0,0,0,0,0,0,0,0,0,0,0,0,0,0,0,0,0,0,0,0,0,0,0,0,0,0,0,0,0,0,0,0,0,0,0,0,0,0,0,0,0,0,0,0,0,0,0,0,0,0,0,0,0,0,0,0,0,0,0,0,0,0,0,0,0,0,0,0,0,0,0,0,0,0,0,0,0,0,0,0,0,0,0,0,0,0h0s0,0,0,0c0,0,0,0,0,0,0,0,0,0,0,0h0s0,0,0,0c0,0,0,0,0,0,0,0,0,0,0,0,0,0,0,0,0,0,0,0,0,0,0,0,0,0,0,0,0,0,0,0,0,0,0,0,0,0,0,0,0,0,0,0,0,0,0,0,0,0,0,0,0,0,0,0,0,0,0,0,0,0,0,0,0,0,0,0,0,0,0,0,0,0,0,0,0,0,0,0,0,0,0,0,0,0,0,0,0,0,0,0,0,0,0,0,0,0,0,0,0,0,0,0,0,0,0,0,0,0,0,0,0,0,0,0,0,0,0,0,0,0,0,0,0,0,0,0,0,0,0,0h0s0,0,0,0c0,0,0,0,0,0,0,0,0,0,0,0,0,0,0,0,0,0,0,0,0,0,0,0,0,0,0,0,0,0,0,0,0,0,0,0,0,0,0,0,0,0h0s0,0,0,0h0c.1-.02.2-.03.3-.05l-.2-.98c-.36.07-.74.11-1.12.11-.57,0-1.17-.08-1.78-.24h0ZM267.82,185.2c-.29,1-.76,1.84-1.4,2.49l.71.7c.11-.11.21-.22.31-.34h0s0,0,.01-.01t0,0s0,0,0,0c0,0,0,0,0,0,0,0,0,0,.01-.01,0,0,0,0,0,0,0,0,0,0,.01-.01,0,0,0,0,0,0,0,0,0,0,0,0,0,0,0,0,0,0,0,0,0,0,0,0,0,0,0,0,0,0,0,0,0,0,0,0,0,0,0,0,0,0,0,0,0,0,0,0,0,0,0,0,0,0,0,0,0,0,0,0,0,0,0,0,0,0,0,0,0,0,.01-.01,0,0,0,0,0,0,0,0,0,0,0,0,0,0,0,0,0,0,0,0,0,0,0,0,0,0,0,0,0,0,0,0,0,0,0,0,0,0,0,0,0,0,0,0,0,0,0,0,0,0,0,0,0,0,0,0,0,0,0,0,0,0,0,0,0,0,0,0,0,0,0,0,0,0,0,0,0,0,0,0,0,0,0,0,0,0,0,0,0,0,0,0,0,0,0,0,0,0,0,0,0,0,0,0,0,0,0,0,0,0,0,0,0,0,0,0,0,0,0,0,0,0,0,0,0,0,0,0,0,0,0,0,0,0,0,0,0,0,0,0,0,0,0,0,0,0,0,0,0,0,0,0,0,0,0,0,0,0,0,0,0,0,0,0,0,0,0,0,0,0,0,0,0,0,0,0,0,0,0,0,0,0,0,0,0,0,0,0,0,0,0,0,0,0,0,0,0,0,0,0,0,0,0,0,0,0,0,0,0,0,0,0,0,0,0,0,0,0,0,0,0,0,0,0,0,0,0,0,0,0,0,0,0,0,0,0,0,0,0,0,0,0,0,0,0,0,0,0,0,0,0,0,0,0,0,0,0,0,0,0,0,0,0,0,0,0,0,0,0,0,0,0,0,0,0,0,0,0,0,0,0,0,0,0,0,0,0,0,0,0,0,0,0,0,0,0,0,0,0,0,0,0,0,0,0,0,0,0,0,0,0,0,0,0,0,0,0,0,0,0,0,0,0,0,0,0,0,0,0,0h0s0,0,0,0c0,0,0,0,0,0,0,0,0,0,0,0,0,0,0,0,0,0,0,0,0,0,0,0,0,0,0,0,0,0,0,0,0,0,0,0,0,0,0,0,0,0,0,0,0,0,.01-.01,0,0,0,0,0,0,0,0,0,0,.01-.01,0,0,0,0,0,0,0,0,0,0,0,0h0s0-.01.01-.02c0,0,0,0,0,0,0,0,0,0,.01-.01,0,0,0,0,0,0,0-.01.02-.03.03-.04h0c.41-.59.73-1.27.95-2.03,0,0,0,0,0,0,0,0,0-.01,0-.02,0,0,0,0,0,0,0,0,0-.01,0-.02,0,0,0,0,0,0,0,0,0,0,0-.01,0,0,0,0,0,0,0,0,0,0,0,0,0,0,0,0,0,0,0,0,0,0,0,0l-.96-.27h0ZM268.19,178.73l-.04,3.38h1s.04-3.37.04-3.37h-1ZM268.27,171.96l-.04,3.38h1s.04-3.37.04-3.37h-1ZM268.34,165.19l-.04,3.38h1s.04-3.37.04-3.37h-1ZM268.42,158.42l-.04,3.38h1s.04-3.37.04-3.37h-1ZM268.5,151.65l-.04,3.38h1s.04-3.37.04-3.37h-1ZM268.36,145.06l-.92.38c.42,1.01.72,2.03.9,3.03l.98-.17c-.05-.27-.1-.53-.16-.8,0,0,0,0,0,0,0,0,0-.02,0-.03,0,0,0,0,0,0,0,0,0-.02,0-.02,0,0,0,0,0,0,0,0,0-.02,0-.02,0,0,0,0,0,0,0,0,0-.02,0-.02,0,0,0,0,0,0,0,0,0-.02,0-.02,0,0,0,0,0,0,0,0,0,0,0-.01,0,0,0,0,0,0,0,0,0,0,0,0,0,0,0,0,0,0,0,0,0,0,0-.02,0,0,0,0,0,0,0,0,0,0,0,0,0,0,0,0,0,0h0s0-.01,0-.02c0,0,0,0,0,0,0,0,0,0,0,0,0,0,0,0,0-.01,0,0,0,0,0,0,0,0,0,0,0,0,0,0,0,0,0,0,0,0,0,0,0-.01,0,0,0,0,0,0,0,0,0,0,0,0,0,0,0,0,0,0,0,0,0,0,0-.01,0,0,0,0,0,0,0,0,0,0,0,0,0,0,0,0,0,0,0,0,0,0,0,0,0,0,0,0,0,0,0,0,0,0,0,0,0,0,0,0,0,0,0,0,0,0,0-.01h0s0,0,0,0c0,0,0,0,0,0,0,0,0,0,0,0,0,0,0,0,0,0,0,0,0,0,0,0,0,0,0,0,0,0,0,0,0,0,0-.01,0,0,0,0,0,0,0,0,0,0,0,0,0,0,0,0,0,0,0,0,0,0,0-.01,0,0,0,0,0,0,0,0,0,0,0,0,0,0,0,0,0,0,0,0,0,0,0,0,0,0,0,0,0,0,0,0,0,0,0,0,0,0,0,0,0,0,0,0,0,0,0,0,0,0,0,0,0,0,0,0,0,0,0,0,0,0,0,0,0,0,0,0,0,0,0,0,0,0,0,0,0,0,0,0,0,0,0,0,0,0,0,0,0,0,0,0,0,0,0,0,0,0,0,0,0,0,0,0,0,0,0,0,0,0,0,0,0,0,0,0,0,0,0,0,0,0,0,0,0,0,0,0,0,0,0,0h0s0,0,0-.01c0,0,0,0,0,0,0,0,0,0,0,0,0,0,0,0,0,0,0,0,0,0,0,0,0,0,0,0,0,0,0,0,0,0,0,0,0,0,0,0,0,0,0,0,0,0,0,0h0s0-.01,0-.01c0,0,0,0,0,0,0,0,0,0,0,0,0,0,0,0,0,0,0,0,0,0,0,0,0,0,0,0,0,0,0,0,0,0,0,0,0,0,0,0,0,0,0,0,0,0,0,0,0,0,0,0,0,0,0,0,0,0,0,0,0,0,0,0,0,0,0,0,0,0,0,0,0,0,0,0,0,0,0,0,0,0,0,0,0,0,0,0,0,0,0,0,0,0,0,0,0,0,0,0,0,0,0,0,0,0,0,0,0,0,0,0,0,0,0,0,0,0,0,0,0,0,0,0,0,0,0,0,0,0,0,0,0,0,0,0,0,0,0,0,0,0,0,0,0,0,0,0,0,0,0,0,0,0,0,0,0,0,0,0,0,0,0,0,0,0,0,0,0,0,0,0,0,0s0,0,0,0c0,0,0,0,0,0,0,0,0,0,0,0,0,0,0,0,0,0,0,0,0,0,0,0,0,0,0,0,0,0,0,0,0,0,0,0,0,0,0,0,0,0,0,0,0,0,0,0,0,0,0,0,0,0,0,0,0,0,0,0h0s0,0,0-.01c0,0,0,0,0,0,0,0,0,0,0,0,0,0,0,0,0,0,0,0,0,0,0,0,0,0,0,0,0,0,0,0,0,0,0,0,0,0,0,0,0,0,0,0,0,0,0,0,0,0,0,0,0,0,0,0,0,0,0,0,0,0,0,0,0,0,0,0,0,0,0,0,0,0,0,0,0,0,0,0,0,0,0,0,0,0,0,0,0,0,0,0,0,0,0,0,0,0,0,0,0,0,0,0,0,0,0,0,0,0,0,0,0,0,0,0,0,0,0,0,0,0,0,0,0,0,0,0,0,0,0,0,0,0,0,0,0,0,0,0,0,0,0,0,0,0,0,0,0,0,0,0,0,0,0,0,0,0,0,0,0,0,0,0,0,0,0,0,0,0,0,0,0,0,0,0,0,0,0,0,0,0,0,0,0,0,0,0,0,0,0,0,0,0,0,0,0,0,0,0,0,0,0,0,0,0,0,0,0,0,0,0,0,0,0,0,0,0,0,0,0,0,0,0,0,0,0,0,0,0,0,0,0,0,0,0,0,0,0,0h0s0-.01,0-.01c0,0,0,0,0,0,0,0,0,0,0,0,0,0,0,0,0,0,0,0,0,0,0,0,0,0,0,0,0,0,0,0,0,0,0,0,0,0,0,0,0,0s0,0,0,0h0s0,0,0-.01c0,0,0,0,0,0,0,0,0,0,0,0,0,0,0,0,0,0,0,0,0,0,0,0,0,0,0,0,0,0,0,0,0,0,0,0,0,0,0,0,0,0,0,0,0,0,0,0,0,0,0,0,0,0,0,0,0,0,0,0,0,0,0,0,0,0,0,0,0,0,0,0,0,0,0,0,0,0,0,0,0,0,0,0,0,0,0,0,0,0,0,0,0,0,0,0,0,0,0,0,0,0,0,0,0,0,0,0,0,0,0,0,0,0,0,0,0,0,0,0,0,0,0,0,0,0,0,0,0,0,0,0,0,0,0,0,0,0,0,0,0,0,0,0,0,0,0,0,0,0,0,0,0,0,0,0,0,0,0,0,0,0,0,0,0,0,0,0,0,0,0,0,0,0,0,0,0,0,0,0,0,0,0,0,0,0,0,0,0,0,0,0h0s0-.01,0-.01c0,0,0,0,0,0,0,0,0,0,0,0,0,0,0,0,0,0,0,0,0,0,0,0,0,0,0,0,0,0,0,0,0,0,0,0,0,0,0,0,0,0,0,0,0,0,0,0,0,0,0,0,0-.01,0,0,0,0,0,0,0,0,0,0,0,0,0,0,0,0,0,0,0,0,0,0,0-.01,0,0,0,0,0,0,0,0,0,0,0-.01,0,0,0,0,0,0,0,0,0,0,0-.01,0,0,0,0,0,0,0,0,0,0,0-.01,0,0,0,0,0,0,0,0,0,0,0-.01,0,0,0,0,0,0,0,0,0-.02,0-.02,0,0,0,0,0,0,0,0,0,0,0-.01,0,0,0,0,0,0,0,0,0,0,0-.01,0,0,0,0,0,0,0,0,0,0,0-.01h0s0,0,0-.01c0,0,0,0,0,0,0,0,0,0,0-.01h0s0,0,0-.01c0,0,0,0,0,0,0,0,0-.02,0-.02,0,0,0,0,0,0,0,0,0-.02,0-.02,0,0,0,0,0,0,0,0,0-.02,0-.02h0c-.09-.24-.18-.48-.28-.71h0ZM264.63,139.45l-.71.7c.74.74,1.41,1.58,2.01,2.47l.83-.55s0,0,0-.01c0,0,0,0,0,0,0,0,0-.01-.01-.02,0,0,0,0,0,0,0,0,0,0,0,0,0,0,0,0,0,0,0,0,0,0,0,0,0,0,0,0,0,0,0,0,0,0,0,0,0,0,0,0,0,0,0,0,0,0,0,0,0,0,0,0,0,0,0,0,0,0,0,0,0,0,0,0,0,0,0,0,0,0,0,0,0,0,0,0,0,0,0,0,0,0,0,0,0,0,0-.01-.01-.02,0,0,0,0,0,0,0,0,0-.01-.01-.02,0,0,0,0,0,0-.5-.73-1.05-1.43-1.64-2.07,0,0,0,0,0,0,0,0-.01-.01-.02-.02,0,0,0,0,0,0,0,0-.01-.01-.02-.02,0,0,0,0,0,0,0,0,0,0,0,0,0,0,0,0,0,0h0s0,0,0,0c0,0,0,0,0,0,0,0,0,0,0,0,0,0,0,0,0,0,0,0,0,0,0,0,0,0,0,0,0,0,0,0,0,0,0,0,0,0,0,0,0,0,0,0,0,0,0,0,0,0,0,0,0,0,0,0,0,0,0,0,0,0,0,0,0,0,0,0,0,0,0,0,0,0,0,0,0,0,0,0,0,0,0,0,0,0,0,0,0,0,0,0,0,0,0,0,0,0,0,0,0,0,0,0,0,0,0,0,0,0,0,0,0,0h0s0,0,0-.01c0,0,0,0,0,0,0,0,0,0,0,0,0,0,0,0,0,0,0,0,0,0,0,0,0,0,0,0,0,0h0s0,0,0,0h0c-.07-.07-.13-.14-.2-.21h0ZM258.96,135.87l-.37.93,1.08.43c.61.25,1.21.56,1.81.93l.54-.84c-.19-.12-.38-.24-.58-.34,0,0,0,0,0,0,0,0,0,0,0,0,0,0,0,0,0,0,0,0,0,0,0,0,0,0,0,0,0,0,0,0,0,0,0,0,0,0,0,0,0,0,0,0,0,0,0,0,0,0,0,0,0,0,0,0,0,0,0,0,0,0,0,0,0,0,0,0,0,0,0,0,0,0,0,0,0,0,0,0,0,0,0,0,0,0,0,0,0,0,0,0,0,0,0,0,0,0,0,0,0,0,0,0,0,0,0,0,0,0,0,0,0,0,0,0,0,0,0,0,0,0,0,0,0,0,0,0,0,0,0,0,0,0,0,0,0,0,0,0,0,0,0,0,0,0,0,0,0,0,0,0,0,0,0,0,0,0,0,0,0,0,0,0,0,0,0,0,0,0,0,0,0,0,0,0,0,0,0,0,0,0,0,0,0,0,0,0,0,0,0,0,0,0,0,0,0,0,0,0,0,0,0,0,0,0,0,0,0,0,0,0,0,0,0,0h0s0,0,0,0c0,0,0,0,0,0,0,0,0,0,0,0,0,0,0,0,0,0,0,0,0,0,0,0,0,0,0,0,0,0,0,0,0,0,0,0,0,0,0,0,0,0,0,0,0,0,0,0,0,0,0,0,0,0,0,0,0,0,0,0,0,0,0,0,0,0h0s0,0,0,0c0,0,0,0,0,0-.04-.02-.09-.05-.13-.07h0s0,0,0,0t0,0s0,0,0,0h0s0,0,0,0h0s0,0,0,0h0s0,0,0,0c0,0,0,0,0,0,0,0,0,0,0,0,0,0,0,0,0,0,0,0,0,0,0,0,0,0,0,0,0,0,0,0,0,0,0,0h0s0,0,0,0c0,0,0,0,0,0-.08-.04-.15-.08-.23-.12h0s-.01,0-.02,0c0,0,0,0,0,0-.01,0-.02,0-.03-.01h0s0,0,0,0h0s0,0,0,0h0s0,0,0,0h0s0,0,0,0c0,0,0,0,0,0,0,0,0,0,0,0h0s-.02,0-.02-.01c0,0,0,0,0,0-.01,0-.02,0-.03-.01,0,0,0,0,0,0-.03-.02-.07-.03-.1-.05,0,0,0,0,0,0,0,0,0,0,0,0,0,0,0,0,0,0,0,0,0,0,0,0,0,0,0,0,0,0,0,0,0,0,0,0,0,0,0,0,0,0,0,0,0,0,0,0,0,0,0,0,0,0,0,0,0,0,0,0,0,0,0,0,0,0,0,0,0,0,0,0,0,0,0,0,0,0,0,0,0,0,0,0,0,0,0,0,0,0,0,0,0,0,0,0,0,0,0,0,0,0,0,0,0,0,0,0,0,0,0,0,0,0,0,0,0,0,0,0,0,0,0,0,0,0,0,0,0,0,0,0,0,0,0,0,0,0,0,0,0,0,0,0,0,0,0,0,0,0,0,0,0,0,0,0,0,0,0,0,0,0,0,0,0,0,0,0,0,0,0,0,0,0,0,0,0,0,0,0,0,0,0,0,0,0,0,0,0,0,0,0,0,0,0,0,0,0h0s0,0,0,0c0,0,0,0,0,0,0,0,0,0,0,0,0,0,0,0,0,0,0,0,0,0,0,0,0,0,0,0,0,0,0,0,0,0,0,0,0,0,0,0,0,0,0,0,0,0,0,0h0s0,0,0,0c0,0,0,0,0,0,0,0,0,0,0,0h0s0,0,0,0c0,0,0,0,0,0,0,0,0,0,0,0,0,0,0,0,0,0h0s0,0,0,0c0,0,0,0,0,0-.02,0-.03-.01-.05-.02h0s0,0,0,0c0,0,0,0,0,0,0,0,0,0,0,0,0,0,0,0,0,0,0,0,0,0,0,0,0,0,0,0,0,0,0,0,0,0,0,0h0s0,0,0,0c0,0,0,0,0,0,0,0,0,0,0,0,0,0,0,0,0,0,0,0,0,0,0,0,0,0,0,0,0,0,0,0,0,0,0,0,0,0,0,0,0,0,0,0,0,0,0,0,0,0,0,0,0,0,0,0,0,0,0,0,0,0,0,0,0,0,0,0,0,0,0,0,0,0,0,0,0,0,0,0,0,0,0,0,0,0,0,0,0,0,0,0,0,0,0,0,0,0,0,0,0,0,0,0,0,0,0,0,0,0,0,0,0,0,0,0,0,0,0,0,0,0,0,0,0,0,0,0,0,0,0,0,0,0,0,0,0,0,0,0,0,0,0,0,0,0,0,0,0,0,0,0,0,0,0,0,0,0,0,0,0,0,0,0,0,0,0,0,0,0,0,0,0,0,0,0,0,0,0,0,0,0,0,0,0,0,0,0,0,0,0,0,0,0,0,0,0,0,0,0,0,0,0,0,0,0,0,0,0,0,0,0,0,0,0,0,0,0,0,0,0,0s0,0,0,0c0,0,0,0,0,0s0,0,0,0,0,0,0,0,0,0,0,0,0,0,0,0c0,0,0,0,0,0,0,0,0,0,0,0,0,0,0,0,0,0,0,0,0,0,0,0,0,0,0,0,0,0,0,0,0,0,0,0,0,0,0,0,0,0,0,0,0,0,0,0,0,0,0,0,0,0,0,0,0,0,0,0,0,0,0,0,0,0,0,0,0,0,0,0,0,0,0,0,0,0,0,0,0,0,0,0,0,0,0,0,0,0h0s0,0-.01,0h0s0,0,0,0h0s0,0,0,0h0s0,0,0,0h0s0,0,0,0h0s0,0,0,0h0s0,0,0,0h0s0,0,0,0h0s0,0,0,0h0s0,0,0,0l-1.05-.42h0ZM252.68,133.36l-.37.93,3.14,1.26.37-.93-3.14-1.26h0ZM246.39,130.84l-.37.93,3.14,1.26.37-.93-3.14-1.26h0ZM240.11,128.32l-.37.93,3.14,1.26.37-.93-3.14-1.26h0ZM233.83,125.8l-.37.93,3.14,1.26.37-.93-1.5-.6c-.81-.32-1.64-.66-1.64-.66h0ZM227.55,123.29l-.37.93,3.14,1.26.37-.93-3.14-1.26h0ZM221.26,120.77l-.37.93,3.14,1.26.37-.93s-1.35-.54-2.28-.91h-.02s0-.01,0-.01h0s0,0,0,0h0s0,0,0,0l-.82-.33h0ZM214.98,118.25l-.37.93,3.14,1.26.37-.93-3.14-1.26h0ZM208.7,115.73l-.37.93,3.14,1.26.37-.93-1.87-.75c-.67-.27-1.27-.51-1.27-.51h0ZM202.41,113.22l-.37.93,3.14,1.26.37-.93-3.14-1.26h0ZM196.13,110.7l-.37.93,3.14,1.26.37-.93-1.98-.8s0,0,0,0h0s0,0,0,0h0s0,0,0,0h-.02s0,0,0,0l-.07-.03s0,0,0,0h-.02s0-.01,0-.01l-.08-.03s0,0,0,0l-.05-.02s0,0,0,0h0s0,0,0,0h-.03s0-.01,0-.01h0s0,0,0,0h0s0,0,0,0h-.02s-.02-.02-.03-.02h-.01s0,0-.01,0h0s0,0,0,0h0s0,0,0,0h0s-.03-.01-.05-.02h0s-.03-.02-.05-.02h0s0,0,0,0h0s0,0,0,0h0s-.05-.02-.07-.03h0s-.02,0-.03-.01h0s-.02,0-.02,0h0s-.03-.02-.05-.02h0s0,0,0,0h0s-.01,0-.02,0h0c-.23-.09-.38-.15-.38-.15h0ZM189.85,108.18l-.37.93,3.14,1.26.37-.93-3.14-1.26h0ZM183.56,105.67l-.37.93,3.14,1.26.37-.93-3.14-1.26h0ZM177.28,103.15l-.37.93,3.14,1.26.37-.93-3.14-1.26h0ZM171,100.63l-.37.93,3.14,1.26.37-.93s-.3-.12-.71-.29h0s0,0,0,0h-.03s0-.01,0-.01h-.01s0,0,0,0h0s0,0,0,0l-2.37-.95h0ZM164.71,98.11l-.37.93,3.14,1.26.37-.93-3.14-1.26h0ZM158.43,95.6l-.37.93,3.14,1.26.37-.93-3.14-1.26h0ZM152.05,93.42l-.1,1c.74.07,1.51.27,2.3.59l.67.27.37-.93-.67-.27h0s0,0,0,0c0,0,0,0,0,0,0,0,0,0,0,0,0,0,0,0,0,0,0,0,0,0,0,0,0,0,0,0,0,0,0,0,0,0,0,0,0,0,0,0,0,0,0,0,0,0,0,0,0,0,0,0,0,0,0,0,0,0,0,0,0,0,0,0,0,0,0,0,0,0,0,0,0,0,0,0,0,0,0,0,0,0,0,0,0,0,0,0,0,0,0,0,0,0,0,0,0,0,0,0,0,0,0,0,0,0,0,0,0,0,0,0,0,0,0,0,0,0,0,0,0,0,0,0,0,0,0,0,0,0,0,0,0,0,0,0,0,0,0,0,0,0,0,0-.85-.33-1.67-.53-2.45-.6h0Z"/>
  </g>
  <text class="st14" transform="translate(159.05 119.35) rotate(21.06) scale(.8 .93) skewX(24.11)"><tspan x="0" y="0">Drag to rotate</tspan><tspan x="0" y="20.55">Pinch to zoom</tspan></text>
  <g class="st25">
    <g>
      <g>
        <path class="st24" d="M262.87,189.6c-.99,0-2.04-.22-3.11-.65l-105.42-42.24c-5.07-2.05-9.18-8.23-9.16-13.78l.38-32.29c.02-4.11,2.28-6.76,5.76-6.76.99,0,2.04.22,3.11.65l105.42,42.24c5.07,2.05,9.18,8.23,9.16,13.78l-.38,32.29c-.02,4.11-2.29,6.76-5.76,6.76Z"/>
        <path d="M151.33,94.38h0c.93,0,1.91.21,2.92.62l105.42,42.23c4.9,1.98,8.87,7.95,8.84,13.31l-.38,32.3c-.02,3.8-2.09,6.26-5.26,6.26-.93,0-1.91-.21-2.92-.62l-105.42-42.23c-4.9-1.98-8.87-7.95-8.84-13.31l.38-32.3c.01-3.8,2.08-6.26,5.26-6.26M151.33,93.38c-3.64,0-6.24,2.77-6.26,7.25l-.38,32.29c-.02,5.75,4.22,12.12,9.47,14.25l105.42,42.24c1.16.47,2.27.69,3.3.69,3.63,0,6.24-2.77,6.26-7.25l.38-32.29c.02-5.75-4.22-12.12-9.47-14.25l-105.42-42.24c-1.16-.47-2.27-.69-3.3-.69h0Z"/>
      </g>
      <text class="st19" transform="translate(159.05 119.35) rotate(21.06) scale(.8 .93) skewX(24.11)"><tspan x="0" y="0">Drag to rotate</tspan><tspan x="0" y="20.55">Pinch to zoom</tspan></text>
    </g>
  </g>
</svg>